{
copyright = "Copyright (c) 2018 by Vladimir Nikolic. All rights reserved.";
designer = "Vladimir Nikolic";
designerURL = "https://www.coroflot.com/vladimirnikolic";
familyName = Casino;
customParameters = (
{
name = glyphOrder;
value = (
.notdef,
NULL,
CR,
space,
T,
B,
four,
P,
V,
M,
I,
five,
three,
one,
X,
nine,
A,
L,
two,
Y,
U,
H,
K,
W,
Q,
E,
J,
eight,
Z,
exclam,
question,
R,
G,
F,
C,
D,
S,
period,
comma,
O,
colon,
semicolon,
a,
b,
c,
d,
e,
f,
g,
h,
i,
j,
k,
l,
m,
n,
p,
q,
s,
t,
u,
v,
w,
x,
y,
z,
six,
seven,
N,
bracketleft,
bracketright,
quotedbl,
quotesingle,
dollar,
ampersand,
percent,
hyphen,
parenleft,
parenright,
plus,
slash,
equal,
Euro,
backslash,
trademark,
bar,
dagger,
daggerdbl,
quotedblright,
quotedblleft,
quoteright,
quoteleft,
uni00A0,
ecaron,
grave,
bullet,
ring,
aring,
breve,
Aring,
tilde,
ntilde,
hungarumlaut,
ohungarumlaut,
macron,
emacron,
Ntilde,
circumflex,
acircumflex,
Acircumflex,
questiondown,
exclamdown,
OE,
o,
oe,
acute,
otilde,
oacute,
ograve,
Ograve,
Oacute,
Otilde,
dieresis,
odieresis,
Odieresis,
ugrave,
uacute,
udieresis,
yacute,
Ugrave,
Uacute,
Udieresis,
Yacute,
germandbls,
ydieresis,
AE,
ae,
adieresis,
Adieresis,
aacute,
Aacute,
agrave,
Agrave,
egrave,
eacute,
edieresis,
igrave,
iacute,
idieresis,
icircumflex,
Egrave,
Eacute,
Edieresis,
Igrave,
Iacute,
Icircumflex,
Idieresis,
dcaron,
ccaron,
ccircumflex,
cacute,
Cacute,
Ccircumflex,
dotaccent,
cdotaccent,
Cdotaccent,
caron,
ecircumflex,
Ecircumflex,
ocircumflex,
Ocircumflex,
ucircumflex,
Ucircumflex,
abreve,
Abreve,
atilde,
Atilde,
Ccaron,
wcircumflex,
Wcircumflex,
ycircumflex,
Ycircumflex,
Ydieresis,
zacute,
Zacute,
zdotaccent,
Zdotaccent,
zcaron,
Zcaron,
tcaron,
amacron,
Amacron,
Emacron,
ebreve,
Ebreve,
edotaccent,
Edotaccent,
Ecaron,
ogonek,
cedilla,
ccedilla,
Ccedilla,
oslash,
Oslash,
multiply,
gbreve,
Gbreve,
gcircumflex,
Gcircumflex,
eogonek,
aogonek,
Eogonek,
Aogonek,
divide,
ij,
IJ,
jcircumflex,
Jcircumflex,
lacute,
Lacute,
gdotaccent,
Gdotaccent,
hcircumflex,

glyphs = (
{
glyphname = T;
layers = (
{
layerId = "616D4D79-28E0-48D4-A99A-6A264E58F352";
paths = (
{
nodes = (
"512 683 LINE SMOOTH",
"516 683 OFFCURVE",
"518 678 OFFCURVE",
"514 675 QCURVE SMOOTH",
"509 670 OFFCURVE",
"501 654 OFFCURVE",
"495 625 OFFCURVE",
"492 580 OFFCURVE",
"492 547 QCURVE SMOOTH",
"492 527 LINE SMOOTH",
"492 523 OFFCURVE",
"486 521 OFFCURVE",
"484 524 QCURVE SMOOTH",
"464 547 OFFCURVE",
"401 547 QCURVE SMOOTH",
"332 547 LINE",
"332 91 LINE SMOOTH",
"332 27 OFFCURVE",
"354 8 QCURVE SMOOTH",
"357 6 OFFCURVE",
"356 0 OFFCURVE",
"351 0 QCURVE SMOOTH",
"175 0 LINE SMOOTH",
"171 0 OFFCURVE",
"169 6 OFFCURVE",
"173 8 QCURVE",
"195 28 OFFCURVE",
"195 91 QCURVE SMOOTH",
"195 547 LINE",
"126 547 LINE SMOOTH",
"61 547 OFFCURVE",
"43 524 QCURVE SMOOTH",
"40 521 OFFCURVE",
"35 523 OFFCURVE",
"35 527 QCURVE SMOOTH",
"35 592 LINE SMOOTH",
"35 655 OFFCURVE",
"12 675 QCURVE SMOOTH",
"9 678 OFFCURVE",
"11 683 OFFCURVE",
"15 683 QCURVE SMOOTH"
);
}
);
width = 530;
}
);
unicode = 0054;
},
{
glyphname = B;
layers = (
{
layerId = "616D4D79-28E0-48D4-A99A-6A264E58F352";
paths = (
{
nodes = (
"454 364 OFFCURVE",
"492 278 OFFCURVE",
"493 189 OFFCURVE",
"461 105 OFFCURVE",
"402 40 OFFCURVE",
"316 0 OFFCURVE",
"264 0 QCURVE SMOOTH",
"17 0 LINE SMOOTH",
"12 0 OFFCURVE",
"11 5 OFFCURVE",
"14 8 QCURVE SMOOTH",
"36 27 OFFCURVE",
"36 91 QCURVE SMOOTH",
"36 592 LINE SMOOTH",
"36 656 OFFCURVE",
"14 675 QCURVE SMOOTH",
"11 677 OFFCURVE",
"12 683 OFFCURVE",
"17 683 QCURVE SMOOTH",
"264 683 LINE SMOOTH",
"319 683 OFFCURVE",
"403 628 OFFCURVE",
"447 544 OFFCURVE",
"446 443 OFFCURVE",
"415 398 QCURVE"
);
},
{
nodes = (
"264 137 LINE SMOOTH",
"302 137 OFFCURVE",
"355 189 OFFCURVE",
"355 227 QCURVE SMOOTH",
"355 246 OFFCURVE",
"341 280 OFFCURVE",
"316 305 OFFCURVE",
"283 319 OFFCURVE",
"264 319 QCURVE SMOOTH",
"173 319 LINE",
"173 137 LINE"
);
},
{
nodes = (
"173 455 LINE",
"264 455 LINE SMOOTH",
"283 455 OFFCURVE",
"309 482 OFFCURVE",
"309 501 QCURVE SMOOTH",
"309 520 OFFCURVE",
"283 547 OFFCURVE",
"264 547 QCURVE SMOOTH",
"173 547 LINE"
);
}
);
width = 518;
}
);
unicode = 0042;
},
{
glyphname = four;
layers = (
{
layerId = "616D4D79-28E0-48D4-A99A-6A264E58F352";
paths = (
{
nodes = (
"483 683 LINE",
"483 528 LINE SMOOTH",
"483 523 OFFCURVE",
"477 522 OFFCURVE",
"475 525 QCURVE SMOOTH",
"456 547 OFFCURVE",
"391 547 QCURVE SMOOTH",
"167 547 LINE",
"167 477 LINE",
"245 477 LINE SMOOTH",
"294 477 OFFCURVE",
"381 440 OFFCURVE",
"445 375 OFFCURVE",
"483 288 OFFCURVE",
"483 239 QCURVE SMOOTH",
"483 189 OFFCURVE",
"445 102 OFFCURVE",
"381 38 OFFCURVE",
"294 0 OFFCURVE",
"245 0 QCURVE SMOOTH",
"235 0 LINE SMOOTH",
"193 0 OFFCURVE",
"118 32 OFFCURVE",
"62 88 OFFCURVE",
"30 163 OFFCURVE",
"30 206 QCURVE",
"186 206 LINE SMOOTH",
"193 206 OFFCURVE",
"190 199 QCURVE SMOOTH",
"185 190 OFFCURVE",
"185 172 OFFCURVE",
"192 157 OFFCURVE",
"202 146 OFFCURVE",
"207 143 QCURVE SMOOTH",
"219 137 OFFCURVE",
"232 137 QCURVE SMOOTH",
"245 137 LINE SMOOTH",
"266 137 OFFCURVE",
"303 153 OFFCURVE",
"330 181 OFFCURVE",
"346 218 OFFCURVE",
"346 239 QCURVE SMOOTH",
"346 260 OFFCURVE",
"330 297 OFFCURVE",
"303 325 OFFCURVE",
"266 341 OFFCURVE",
"245 341 QCURVE SMOOTH",
"30 341 LINE",
"30 683 LINE"
);
}
);
width = 513;
}
);
unicode = 0034;
},
{
glyphname = P;
layers = (
{
layerId = "616D4D79-28E0-48D4-A99A-6A264E58F352";
paths = (
{
nodes = (
"268 683 LINE SMOOTH",
"320 683 OFFCURVE",
"406 643 OFFCURVE",
"465 578 OFFCURVE",
"497 494 OFFCURVE",
"496 405 OFFCURVE",
"458 319 OFFCURVE",
"419 285 QCURVE SMOOTH",
"385 255 OFFCURVE",
"314 228 OFFCURVE",
"268 228 QCURVE SMOOTH",
"177 228 LINE",
"177 91 LINE SMOOTH",
"177 28 OFFCURVE",
"200 8 QCURVE SMOOTH",
"203 6 OFFCURVE",
"201 0 OFFCURVE",
"197 0 QCURVE SMOOTH",
"21 0 LINE SMOOTH",
"17 0 OFFCURVE",
"15 6 OFFCURVE",
"18 8 QCURVE SMOOTH",
"41 28 OFFCURVE",
"41 91 QCURVE SMOOTH",
"41 592 LINE SMOOTH",
"41 657 OFFCURVE",
"18 675 QCURVE SMOOTH",
"15 678 OFFCURVE",
"17 683 OFFCURVE",
"21 683 QCURVE SMOOTH"
);
},
{
nodes = (
"268 365 LINE SMOOTH",
"306 365 OFFCURVE",
"359 418 OFFCURVE",
"359 456 QCURVE SMOOTH",
"359 475 OFFCURVE",
"345 508 OFFCURVE",
"320 533 OFFCURVE",
"287 547 OFFCURVE",
"268 547 QCURVE SMOOTH",
"177 547 LINE",
"177 365 LINE"
);
}
);
width = 510;
}
);
unicode = 0050;
},
{
glyphname = V;
layers = (
{
layerId = "616D4D79-28E0-48D4-A99A-6A264E58F352";
paths = (
{
nodes = (
"516 684 LINE SMOOTH",
"520 684 OFFCURVE",
"522 678 OFFCURVE",
"519 676 QCURVE SMOOTH",
"496 657 OFFCURVE",
"496 593 QCURVE SMOOTH",
"496 375 LINE SMOOTH",
"496 292 OFFCURVE",
"463 214 QCURVE SMOOTH",
"411 92 LINE",
"397 27 OFFCURVE",
"417 8 QCURVE SMOOTH",
"420 6 OFFCURVE",
"419 0 OFFCURVE",
"414 0 QCURVE SMOOTH",
"122 0 LINE SMOOTH",
"118 0 OFFCURVE",
"117 6 OFFCURVE",
"119 8 QCURVE SMOOTH",
"138 27 OFFCURVE",
"126 92 QCURVE",
"74 214 LINE SMOOTH",
"57 253 OFFCURVE",
"41 332 OFFCURVE",
"41 375 QCURVE SMOOTH",
"41 593 LINE SMOOTH",
"41 656 OFFCURVE",
"18 676 QCURVE SMOOTH",
"15 678 OFFCURVE",
"17 684 OFFCURVE",
"21 684 QCURVE SMOOTH",
"197 684 LINE SMOOTH",
"201 684 OFFCURVE",
"203 678 OFFCURVE",
"200 676 QCURVE SMOOTH",
"177 656 OFFCURVE",
"177 593 QCURVE SMOOTH",
"177 375 LINE SMOOTH",
"177 320 OFFCURVE",
"199 267 QCURVE SMOOTH",
"268 107 LINE",
"337 267 LINE SMOOTH",
"359 320 OFFCURVE",
"359 375 QCURVE SMOOTH",
"359 593 LINE SMOOTH",
"359 657 OFFCURVE",
"337 676 QCURVE SMOOTH",
"334 678 OFFCURVE",
"335 684 OFFCURVE",
"340 684 QCURVE SMOOTH"
);
}
);
width = 531;
}
);
unicode = 0056;
},
{
glyphname = M;
layers = (
{
layerId = "616D4D79-28E0-48D4-A99A-6A264E58F352";
paths = (
{
nodes = (
"628 91 LINE SMOOTH",
"628 28 OFFCURVE",
"651 8 QCURVE SMOOTH",
"659 0 OFFCURVE",
"648 0 QCURVE SMOOTH",
"472 0 LINE SMOOTH",
"468 0 OFFCURVE",
"466 5 OFFCURVE",
"469 8 QCURVE SMOOTH",
"492 28 OFFCURVE",
"492 91 QCURVE SMOOTH",
"492 268 LINE",
"413 76 LINE SMOOTH",
"394 31 OFFCURVE",
"405 7 QCURVE SMOOTH",
"408 0 OFFCURVE",
"401 0 QCURVE SMOOTH",
"265 0 LINE SMOOTH",
"257 0 OFFCURVE",
"261 7 QCURVE SMOOTH",
"273 29 OFFCURVE",
"253 76 QCURVE SMOOTH",
"173 270 LINE",
"173 91 LINE SMOOTH",
"173 27 OFFCURVE",
"196 8 QCURVE SMOOTH",
"199 5 OFFCURVE",
"197 0 OFFCURVE",
"193 0 QCURVE SMOOTH",
"17 0 LINE SMOOTH",
"13 0 OFFCURVE",
"11 5 OFFCURVE",
"14 8 QCURVE SMOOTH",
"36 27 OFFCURVE",
"36 91 QCURVE SMOOTH",
"36 592 LINE SMOOTH",
"36 656 OFFCURVE",
"14 675 QCURVE SMOOTH",
"11 677 OFFCURVE",
"13 683 OFFCURVE",
"17 683 QCURVE SMOOTH",
"193 683 LINE SMOOTH",
"197 683 OFFCURVE",
"199 677 OFFCURVE",
"196 675 QCURVE SMOOTH",
"183 665 OFFCURVE",
"177 640 QCURVE SMOOTH",
"174 626 OFFCURVE",
"180 613 QCURVE",
"332 242 LINE",
"485 613 LINE SMOOTH",
"491 627 OFFCURVE",
"487 640 QCURVE",
"483 664 OFFCURVE",
"469 675 QCURVE SMOOTH",
"466 677 OFFCURVE",
"468 683 OFFCURVE",
"472 683 QCURVE SMOOTH",
"648 683 LINE SMOOTH",
"653 683 OFFCURVE",
"654 677 OFFCURVE",
"651 675 QCURVE SMOOTH",
"628 655 OFFCURVE",
"628 592 QCURVE SMOOTH"
);
}
);
width = 665;
}
);
unicode = 004D;
},
{
glyphname = I;
layers = (
{
layerId = "616D4D79-28E0-48D4-A99A-6A264E58F352";
paths = (
{
nodes = (
"186 91 LINE SMOOTH",
"186 27 OFFCURVE",
"209 8 QCURVE SMOOTH",
"211 6 OFFCURVE",
"210 0 OFFCURVE",
"205 0 QCURVE SMOOTH",
"30 0 LINE SMOOTH",
"25 0 OFFCURVE",
"24 6 OFFCURVE",
"27 8 QCURVE SMOOTH",
"49 27 OFFCURVE",
"49 91 QCURVE SMOOTH",
"49 592 LINE SMOOTH",
"49 657 OFFCURVE",
"27 675 QCURVE",
"19 683 OFFCURVE",
"30 683 QCURVE SMOOTH",
"205 683 LINE SMOOTH",
"215 683 OFFCURVE",
"209 675 QCURVE",
"186 658 OFFCURVE",
"186 592 QCURVE SMOOTH"
);
}
);
width = 231;
}
);
unicode = 0049;
},
{
glyphname = five;
layers = (
{
layerId = "616D4D79-28E0-48D4-A99A-6A264E58F352";
paths = (
{
nodes = (
"488 92 LINE SMOOTH",
"488 27 OFFCURVE",
"511 9 QCURVE SMOOTH",
"514 6 OFFCURVE",
"512 0 OFFCURVE",
"508 0 QCURVE SMOOTH",
"332 0 LINE SMOOTH",
"328 0 OFFCURVE",
"326 6 OFFCURVE",
"329 9 QCURVE SMOOTH",
"352 27 OFFCURVE",
"352 92 QCURVE SMOOTH",
"352 239 LINE",
"14 239 LINE",
"122 506 LINE SMOOTH",
"152 581 OFFCURVE",
"132 615 QCURVE",
"127 622 OFFCURVE",
"135 622 QCURVE SMOOTH",
"316 622 LINE",
"311 610 LINE",
"280 533 LINE",
"226 399 LINE",
"217 376 LINE",
"352 376 LINE",
"352 593 LINE SMOOTH",
"352 655 OFFCURVE",
"329 675 QCURVE SMOOTH",
"326 677 OFFCURVE",
"328 683 OFFCURVE",
"332 683 QCURVE SMOOTH",
"508 683 LINE SMOOTH",
"512 683 OFFCURVE",
"514 677 OFFCURVE",
"511 675 QCURVE SMOOTH",
"488 655 OFFCURVE",
"488 593 QCURVE SMOOTH"
);
}
);
width = 521;
}
);
unicode = 0035;
},
{
glyphname = three;
layers = (
{
layerId = "616D4D79-28E0-48D4-A99A-6A264E58F352";
paths = (
{
nodes = (
"321 683 LINE SMOOTH",
"365 683 OFFCURVE",
"439 651 OFFCURVE",
"492 597 OFFCURVE",
"524 526 OFFCURVE",
"528 450 OFFCURVE",
"503 374 OFFCURVE",
"473 341 QCURVE",
"501 310 OFFCURVE",
"525 246 OFFCURVE",
"525 205 QCURVE SMOOTH",
"525 163 OFFCURVE",
"493 88 OFFCURVE",
"437 32 OFFCURVE",
"362 0 OFFCURVE",
"320 0 QCURVE SMOOTH",
"230 0 LINE SMOOTH",
"187 0 OFFCURVE",
"112 32 OFFCURVE",
"57 88 OFFCURVE",
"25 163 OFFCURVE",
"25 205 QCURVE SMOOTH",
"25 208 LINE",
"184 208 LINE SMOOTH",
"191 208 OFFCURVE",
"188 202 QCURVE SMOOTH",
"176 176 OFFCURVE",
"202 136 OFFCURVE",
"230 136 QCURVE SMOOTH",
"321 136 LINE",
"349 137 OFFCURVE",
"388 176 OFFCURVE",
"388 205 QCURVE SMOOTH",
"388 233 OFFCURVE",
"349 273 OFFCURVE",
"320 273 QCURVE SMOOTH",
"304 273 LINE SMOOTH",
"253 273 OFFCURVE",
"224 252 QCURVE SMOOTH",
"217 247 OFFCURVE",
"217 256 QCURVE SMOOTH",
"217 410 LINE",
"322 410 LINE SMOOTH",
"350 410 OFFCURVE",
"389 450 OFFCURVE",
"389 478 QCURVE SMOOTH",
"389 507 OFFCURVE",
"350 546 OFFCURVE",
"321 546 QCURVE SMOOTH",
"230 546 LINE SMOOTH",
"202 546 OFFCURVE",
"176 507 OFFCURVE",
"188 481 QCURVE SMOOTH",
"191 475 OFFCURVE",
"184 475 QCURVE SMOOTH",
"25 475 LINE",
"25 478 LINE SMOOTH",
"25 520 OFFCURVE",
"57 595 OFFCURVE",
"112 651 OFFCURVE",
"187 683 OFFCURVE",
"230 683 QCURVE SMOOTH"
);
}
);
width = 550;
}
);
unicode = 0033;
},
{
glyphname = one;
layers = (
{
layerId = "616D4D79-28E0-48D4-A99A-6A264E58F352";
paths = (
{
nodes = (
"256 91 LINE SMOOTH",
"256 28 OFFCURVE",
"279 8 QCURVE SMOOTH",
"282 6 OFFCURVE",
"280 0 OFFCURVE",
"276 0 QCURVE SMOOTH",
"100 0 LINE SMOOTH",
"96 0 OFFCURVE",
"94 6 OFFCURVE",
"97 8 QCURVE SMOOTH",
"120 28 OFFCURVE",
"120 91 QCURVE SMOOTH",
"120 547 LINE",
"67 547 LINE",
"61 623 OFFCURVE",
"16 676 QCURVE SMOOTH",
"14 678 OFFCURVE",
"15 683 OFFCURVE",
"19 683 QCURVE SMOOTH",
"276 683 LINE SMOOTH",
"280 683 OFFCURVE",
"282 678 OFFCURVE",
"279 675 QCURVE SMOOTH",
"256 657 OFFCURVE",
"256 592 QCURVE SMOOTH"
);
}
);
width = 303;
}
);
unicode = 0031;
},
{
glyphname = X;
layers = (
{
layerId = "616D4D79-28E0-48D4-A99A-6A264E58F352";
paths = (
{
nodes = (
"480 91 LINE SMOOTH",
"480 27 OFFCURVE",
"502 8 QCURVE SMOOTH",
"505 6 OFFCURVE",
"504 0 OFFCURVE",
"499 0 QCURVE SMOOTH",
"323 0 LINE SMOOTH",
"319 0 OFFCURVE",
"317 6 OFFCURVE",
"321 8 QCURVE",
"343 27 OFFCURVE",
"343 91 QCURVE SMOOTH",
"343 159 LINE SMOOTH",
"343 201 OFFCURVE",
"298 269 OFFCURVE",
"260 285 QCURVE",
"222 269 OFFCURVE",
"177 201 OFFCURVE",
"177 159 QCURVE SMOOTH",
"177 91 LINE SMOOTH",
"177 27 OFFCURVE",
"199 8 QCURVE SMOOTH",
"202 6 OFFCURVE",
"201 0 OFFCURVE",
"196 0 QCURVE SMOOTH",
"20 0 LINE SMOOTH",
"16 0 OFFCURVE",
"14 6 OFFCURVE",
"18 8 QCURVE",
"40 28 OFFCURVE",
"40 91 QCURVE SMOOTH",
"40 159 LINE SMOOTH",
"40 219 OFFCURVE",
"88 326 OFFCURVE",
"132 364 QCURVE",
"88 403 OFFCURVE",
"40 510 OFFCURVE",
"40 569 QCURVE SMOOTH",
"40 592 LINE SMOOTH",
"40 655 OFFCURVE",
"18 675 QCURVE",
"14 677 OFFCURVE",
"16 683 OFFCURVE",
"20 683 QCURVE SMOOTH",
"196 683 LINE SMOOTH",
"201 683 OFFCURVE",
"202 677 OFFCURVE",
"199 675 QCURVE SMOOTH",
"177 656 OFFCURVE",
"177 592 QCURVE SMOOTH",
"177 569 LINE SMOOTH",
"177 527 OFFCURVE",
"222 460 OFFCURVE",
"260 443 QCURVE",
"298 460 OFFCURVE",
"343 527 OFFCURVE",
"343 569 QCURVE SMOOTH",
"343 592 LINE SMOOTH",
"343 656 OFFCURVE",
"321 675 QCURVE",
"317 677 OFFCURVE",
"319 683 OFFCURVE",
"323 683 QCURVE SMOOTH",
"499 683 LINE SMOOTH",
"504 683 OFFCURVE",
"505 677 OFFCURVE",
"502 675 QCURVE SMOOTH",
"480 656 OFFCURVE",
"480 592 QCURVE SMOOTH",
"480 569 LINE SMOOTH",
"480 510 OFFCURVE",
"432 403 OFFCURVE",
"387 364 QCURVE",
"432 326 OFFCURVE",
"480 219 OFFCURVE",
"480 159 QCURVE SMOOTH"
);
}
);
width = 526;
}
);
unicode = 0058;
},
{
glyphname = nine;
layers = (
{
layerId = "616D4D79-28E0-48D4-A99A-6A264E58F352";
paths = (
{
nodes = (
"294 683 LINE SMOOTH",
"341 683 OFFCURVE",
"424 647 OFFCURVE",
"486 586 OFFCURVE",
"522 503 OFFCURVE",
"522 456 QCURVE SMOOTH",
"522 228 LINE SMOOTH",
"522 181 OFFCURVE",
"486 98 OFFCURVE",
"424 36 OFFCURVE",
"341 0 OFFCURVE",
"294 0 QCURVE SMOOTH",
"245 0 LINE SMOOTH",
"203 0 OFFCURVE",
"128 29 OFFCURVE",
"68 80 OFFCURVE",
"28 150 OFFCURVE",
"21 191 QCURVE",
"181 191 LINE SMOOTH",
"187 191 OFFCURVE",
"186 185 QCURVE",
"183 177 OFFCURVE",
"194 160 OFFCURVE",
"203 152 QCURVE SMOOTH",
"221 137 OFFCURVE",
"246 137 QCURVE SMOOTH",
"294 137 LINE SMOOTH",
"313 137 OFFCURVE",
"346 151 OFFCURVE",
"371 176 OFFCURVE",
"385 209 OFFCURVE",
"385 228 QCURVE",
"249 228 LINE SMOOTH",
"203 228 OFFCURVE",
"132 255 OFFCURVE",
"98 285 QCURVE SMOOTH",
"59 320 OFFCURVE",
"21 406 OFFCURVE",
"20 494 OFFCURVE",
"52 578 OFFCURVE",
"111 643 OFFCURVE",
"196 683 OFFCURVE",
"249 683 QCURVE SMOOTH"
);
},
{
nodes = (
"385 456 LINE SMOOTH",
"385 475 OFFCURVE",
"371 508 OFFCURVE",
"346 533 OFFCURVE",
"313 547 OFFCURVE",
"294 547 QCURVE SMOOTH",
"249 547 LINE SMOOTH",
"230 547 OFFCURVE",
"197 533 OFFCURVE",
"172 508 OFFCURVE",
"158 475 OFFCURVE",
"158 456 QCURVE SMOOTH",
"158 437 OFFCURVE",
"172 404 OFFCURVE",
"197 379 OFFCURVE",
"230 364 OFFCURVE",
"249 364 QCURVE SMOOTH",
"385 364 LINE"
);
}
);
width = 537;
}
);
unicode = 0039;
},
{
glyphname = A;
layers = (
{
layerId = "616D4D79-28E0-48D4-A99A-6A264E58F352";
paths = (
{
nodes = (
"520 5 OFFCURVE",
"518 0 OFFCURVE",
"514 0 QCURVE SMOOTH",
"338 0 LINE SMOOTH",
"334 0 OFFCURVE",
"332 5 OFFCURVE",
"335 8 QCURVE SMOOTH",
"358 26 OFFCURVE",
"358 91 QCURVE SMOOTH",
"358 182 LINE",
"175 182 LINE",
"175 91 LINE SMOOTH",
"175 26 OFFCURVE",
"198 8 QCURVE",
"206 0 OFFCURVE",
"195 0 QCURVE SMOOTH",
"19 0 LINE SMOOTH",
"15 0 OFFCURVE",
"13 5 OFFCURVE",
"16 8 QCURVE SMOOTH",
"39 26 OFFCURVE",
"39 91 QCURVE SMOOTH",
"39 308 LINE SMOOTH",
"39 351 OFFCURVE",
"55 430 OFFCURVE",
"72 470 QCURVE SMOOTH",
"124 591 LINE",
"137 655 OFFCURVE",
"118 675 QCURVE SMOOTH",
"115 678 OFFCURVE",
"117 683 OFFCURVE",
"121 683 QCURVE SMOOTH",
"412 683 LINE SMOOTH",
"422 683 OFFCURVE",
"416 675 QCURVE",
"397 657 OFFCURVE",
"409 591 QCURVE",
"461 470 LINE SMOOTH",
"478 430 OFFCURVE",
"494 351 OFFCURVE",
"494 308 QCURVE SMOOTH",
"494 91 LINE SMOOTH",
"494 26 OFFCURVE",
"517 8 QCURVE SMOOTH"
);
},
{
nodes = (
"358 318 LINE",
"355 369 OFFCURVE",
"336 416 QCURVE",
"267 577 LINE",
"198 416 LINE SMOOTH",
"177 369 OFFCURVE",
"176 318 QCURVE"
);
}
);
width = 539;
}
);
unicode = 0041;
},
{
glyphname = L;
layers = (
{
layerId = "616D4D79-28E0-48D4-A99A-6A264E58F352";
paths = (
{
nodes = (
"429 6 OFFCURVE",
"428 0 OFFCURVE",
"423 0 QCURVE SMOOTH",
"19 0 LINE",
"9 2 OFFCURVE",
"17 8 QCURVE SMOOTH",
"39 27 OFFCURVE",
"39 91 QCURVE SMOOTH",
"39 592 LINE SMOOTH",
"39 656 OFFCURVE",
"17 675 QCURVE SMOOTH",
"9 683 OFFCURVE",
"20 683 QCURVE SMOOTH",
"195 683 LINE SMOOTH",
"200 683 OFFCURVE",
"202 678 OFFCURVE",
"198 675 QCURVE SMOOTH",
"176 656 OFFCURVE",
"176 592 QCURVE SMOOTH",
"176 137 LINE",
"312 137 LINE SMOOTH",
"377 137 OFFCURVE",
"395 159 QCURVE SMOOTH",
"398 162 OFFCURVE",
"404 161 OFFCURVE",
"404 156 QCURVE SMOOTH",
"404 91 LINE SMOOTH",
"404 27 OFFCURVE",
"426 8 QCURVE SMOOTH"
);
}
);
width = 445;
}
);
unicode = 004C;
},
{
glyphname = two;
layers = (
{
layerId = "616D4D79-28E0-48D4-A99A-6A264E58F352";
paths = (
{
nodes = (
"520 162 OFFCURVE",
"526 160 OFFCURVE",
"526 156 QCURVE SMOOTH",
"526 0 LINE",
"25 0 LINE",
"25 164 LINE SMOOTH",
"25 215 OFFCURVE",
"64 305 OFFCURVE",
"130 371 OFFCURVE",
"220 410 OFFCURVE",
"271 410 QCURVE SMOOTH",
"321 410 LINE SMOOTH",
"349 410 OFFCURVE",
"389 449 OFFCURVE",
"389 478 QCURVE SMOOTH",
"389 507 OFFCURVE",
"349 546 OFFCURVE",
"321 546 QCURVE SMOOTH",
"229 546 LINE SMOOTH",
"215 546 OFFCURVE",
"202 540 QCURVE SMOOTH",
"192 535 OFFCURVE",
"174 504 OFFCURVE",
"185 485 QCURVE",
"188 478 OFFCURVE",
"181 478 QCURVE SMOOTH",
"25 478 LINE",
"25 520 OFFCURVE",
"57 595 OFFCURVE",
"112 651 OFFCURVE",
"187 683 OFFCURVE",
"229 683 QCURVE SMOOTH",
"321 683 LINE SMOOTH",
"363 683 OFFCURVE",
"438 651 OFFCURVE",
"494 595 OFFCURVE",
"526 520 OFFCURVE",
"526 478 QCURVE SMOOTH",
"526 436 OFFCURVE",
"494 361 OFFCURVE",
"438 305 OFFCURVE",
"363 273 OFFCURVE",
"321 273 QCURVE SMOOTH",
"271 273 LINE SMOOTH",
"248 273 OFFCURVE",
"208 256 OFFCURVE",
"178 226 OFFCURVE",
"161 186 OFFCURVE",
"161 164 QCURVE SMOOTH",
"161 136 LINE",
"434 136 LINE SMOOTH",
"499 136 OFFCURVE",
"517 159 QCURVE SMOOTH"
);
}
);
width = 558;
}
);
unicode = 0032;
},
{
glyphname = Y;
layers = (
{
layerId = "616D4D79-28E0-48D4-A99A-6A264E58F352";
paths = (
{
nodes = (
"510 684 LINE SMOOTH",
"514 684 OFFCURVE",
"516 678 OFFCURVE",
"513 675 QCURVE SMOOTH",
"490 658 OFFCURVE",
"490 592 QCURVE SMOOTH",
"490 502 LINE SMOOTH",
"490 464 OFFCURVE",
"467 395 OFFCURVE",
"425 338 OFFCURVE",
"366 295 OFFCURVE",
"331 284 QCURVE",
"331 91 LINE SMOOTH",
"331 27 OFFCURVE",
"353 8 QCURVE SMOOTH",
"356 6 OFFCURVE",
"355 0 OFFCURVE",
"350 0 QCURVE SMOOTH",
"174 0 LINE SMOOTH",
"170 0 OFFCURVE",
"169 6 OFFCURVE",
"172 8 QCURVE SMOOTH",
"194 27 OFFCURVE",
"194 91 QCURVE SMOOTH",
"194 284 LINE",
"158 295 OFFCURVE",
"100 338 OFFCURVE",
"58 395 OFFCURVE",
"35 464 OFFCURVE",
"35 502 QCURVE SMOOTH",
"35 592 LINE SMOOTH",
"35 657 OFFCURVE",
"12 675 QCURVE SMOOTH",
"9 678 OFFCURVE",
"11 684 OFFCURVE",
"15 684 QCURVE SMOOTH",
"191 684 LINE SMOOTH",
"195 684 OFFCURVE",
"197 678 OFFCURVE",
"194 675 QCURVE SMOOTH",
"171 657 OFFCURVE",
"171 592 QCURVE SMOOTH",
"171 502 LINE SMOOTH",
"171 483 OFFCURVE",
"185 449 OFFCURVE",
"210 424 OFFCURVE",
"244 410 OFFCURVE",
"263 410 QCURVE SMOOTH",
"282 410 OFFCURVE",
"315 424 OFFCURVE",
"339 449 OFFCURVE",
"353 483 OFFCURVE",
"353 502 QCURVE SMOOTH",
"353 592 LINE SMOOTH",
"353 657 OFFCURVE",
"331 675 QCURVE SMOOTH",
"328 678 OFFCURVE",
"330 684 OFFCURVE",
"334 684 QCURVE SMOOTH"
);
}
);
width = 526;
}
);
unicode = 0059;
},
{
glyphname = U;
layers = (
{
layerId = "616D4D79-28E0-48D4-A99A-6A264E58F352";
paths = (
{
nodes = (
"512 683 LINE SMOOTH",
"516 683 OFFCURVE",
"518 678 OFFCURVE",
"514 675 QCURVE SMOOTH",
"492 656 OFFCURVE",
"492 592 QCURVE SMOOTH",
"492 228 LINE SMOOTH",
"492 181 OFFCURVE",
"456 98 OFFCURVE",
"394 36 OFFCURVE",
"311 0 OFFCURVE",
"264 0 QCURVE SMOOTH",
"217 0 OFFCURVE",
"134 36 OFFCURVE",
"72 98 OFFCURVE",
"37 181 OFFCURVE",
"37 228 QCURVE SMOOTH",
"37 592 LINE SMOOTH",
"37 657 OFFCURVE",
"14 675 QCURVE SMOOTH",
"11 678 OFFCURVE",
"13 683 OFFCURVE",
"17 683 QCURVE SMOOTH",
"193 683 LINE SMOOTH",
"197 683 OFFCURVE",
"199 678 OFFCURVE",
"196 675 QCURVE SMOOTH",
"173 657 OFFCURVE",
"173 592 QCURVE SMOOTH",
"173 228 LINE SMOOTH",
"173 209 OFFCURVE",
"187 176 OFFCURVE",
"212 151 OFFCURVE",
"245 137 OFFCURVE",
"264 137 QCURVE SMOOTH",
"302 137 OFFCURVE",
"355 190 OFFCURVE",
"355 228 QCURVE SMOOTH",
"355 592 LINE SMOOTH",
"355 657 OFFCURVE",
"333 675 QCURVE",
"325 683 OFFCURVE",
"336 683 QCURVE SMOOTH"
);
}
);
width = 529;
}
);
unicode = 0055;
},
{
glyphname = H;
layers = (
{
layerId = "616D4D79-28E0-48D4-A99A-6A264E58F352";
paths = (
{
nodes = (
"497 91 LINE SMOOTH",
"497 27 OFFCURVE",
"519 8 QCURVE SMOOTH",
"522 6 OFFCURVE",
"521 0 OFFCURVE",
"516 0 QCURVE SMOOTH",
"340 0 LINE SMOOTH",
"336 0 OFFCURVE",
"334 6 OFFCURVE",
"338 8 QCURVE",
"360 28 OFFCURVE",
"360 91 QCURVE SMOOTH",
"360 273 LINE",
"178 273 LINE",
"178 91 LINE SMOOTH",
"178 27 OFFCURVE",
"200 8 QCURVE SMOOTH",
"203 6 OFFCURVE",
"201 0 OFFCURVE",
"197 0 QCURVE SMOOTH",
"22 0 LINE SMOOTH",
"17 0 OFFCURVE",
"15 6 OFFCURVE",
"19 8 QCURVE",
"41 27 OFFCURVE",
"41 91 QCURVE SMOOTH",
"41 592 LINE SMOOTH",
"41 657 OFFCURVE",
"19 675 QCURVE SMOOTH",
"15 678 OFFCURVE",
"17 683 OFFCURVE",
"22 683 QCURVE SMOOTH",
"197 683 LINE SMOOTH",
"201 683 OFFCURVE",
"203 678 OFFCURVE",
"200 675 QCURVE SMOOTH",
"178 657 OFFCURVE",
"178 592 QCURVE SMOOTH",
"178 410 LINE",
"360 410 LINE",
"360 592 LINE SMOOTH",
"360 656 OFFCURVE",
"338 675 QCURVE SMOOTH",
"334 678 OFFCURVE",
"336 683 OFFCURVE",
"340 683 QCURVE SMOOTH",
"516 683 LINE SMOOTH",
"527 683 OFFCURVE",
"519 675 QCURVE",
"497 657 OFFCURVE",
"497 592 QCURVE SMOOTH"
);
}
);
width = 541;
}
);
unicode = 0048;
},
{
glyphname = K;
layers = (
{
layerId = "616D4D79-28E0-48D4-A99A-6A264E58F352";
paths = (
{
nodes = (
"465 91 LINE SMOOTH",
"465 28 OFFCURVE",
"488 8 QCURVE SMOOTH",
"491 6 OFFCURVE",
"489 0 OFFCURVE",
"485 0 QCURVE SMOOTH",
"309 0 LINE SMOOTH",
"304 0 OFFCURVE",
"303 6 OFFCURVE",
"306 8 QCURVE SMOOTH",
"329 28 OFFCURVE",
"329 91 QCURVE SMOOTH",
"329 159 LINE SMOOTH",
"329 187 OFFCURVE",
"307 237 OFFCURVE",
"270 275 OFFCURVE",
"220 296 OFFCURVE",
"192 296 QCURVE SMOOTH",
"169 296 LINE",
"169 91 LINE SMOOTH",
"169 28 OFFCURVE",
"191 8 QCURVE",
"195 6 OFFCURVE",
"193 0 OFFCURVE",
"189 0 QCURVE SMOOTH",
"13 0 LINE SMOOTH",
"8 0 OFFCURVE",
"7 6 OFFCURVE",
"10 8 QCURVE SMOOTH",
"32 27 OFFCURVE",
"32 91 QCURVE SMOOTH",
"32 592 LINE SMOOTH",
"32 657 OFFCURVE",
"10 675 QCURVE",
"2 683 OFFCURVE",
"13 683 QCURVE SMOOTH",
"189 683 LINE SMOOTH",
"193 683 OFFCURVE",
"195 678 OFFCURVE",
"191 675 QCURVE SMOOTH",
"169 656 OFFCURVE",
"169 592 QCURVE SMOOTH",
"169 433 LINE",
"192 433 LINE SMOOTH",
"220 433 OFFCURVE",
"270 454 OFFCURVE",
"307 491 OFFCURVE",
"329 541 OFFCURVE",
"329 569 QCURVE SMOOTH",
"329 592 LINE SMOOTH",
"329 657 OFFCURVE",
"306 675 QCURVE",
"298 683 OFFCURVE",
"309 683 QCURVE SMOOTH",
"485 683 LINE SMOOTH",
"489 683 OFFCURVE",
"491 678 OFFCURVE",
"488 675 QCURVE SMOOTH",
"465 657 OFFCURVE",
"465 592 QCURVE SMOOTH",
"465 569 LINE SMOOTH",
"465 510 OFFCURVE",
"417 403 OFFCURVE",
"372 365 QCURVE",
"417 325 OFFCURVE",
"465 219 OFFCURVE",
"465 159 QCURVE SMOOTH"
);
}
);
width = 500;
}
);
unicode = 004B;
},
{
glyphname = W;
layers = (
{
layerId = "616D4D79-28E0-48D4-A99A-6A264E58F352";
paths = (
{
nodes = (
"830 683 LINE SMOOTH",
"834 683 OFFCURVE",
"836 677 OFFCURVE",
"833 675 QCURVE SMOOTH",
"811 656 OFFCURVE",
"811 592 QCURVE SMOOTH",
"811 375 LINE SMOOTH",
"811 291 OFFCURVE",
"777 213 QCURVE SMOOTH",
"725 92 LINE",
"713 26 OFFCURVE",
"732 8 QCURVE SMOOTH",
"735 5 OFFCURVE",
"733 0 OFFCURVE",
"729 0 QCURVE SMOOTH",
"454 0 LINE SMOOTH",
"447 0 OFFCURVE",
"449 6 QCURVE SMOOTH",
"461 40 OFFCURVE",
"440 92 QCURVE",
"423 131 LINE",
"407 92 LINE SMOOTH",
"386 40 OFFCURVE",
"398 6 QCURVE",
"399 0 OFFCURVE",
"394 0 QCURVE SMOOTH",
"118 0 LINE SMOOTH",
"114 0 OFFCURVE",
"112 5 OFFCURVE",
"115 8 QCURVE SMOOTH",
"134 26 OFFCURVE",
"121 92 QCURVE",
"103 135 OFFCURVE",
"76 196 OFFCURVE",
"57 245 OFFCURVE",
"45 288 OFFCURVE",
"38 340 OFFCURVE",
"36 407 OFFCURVE",
"36 455 QCURVE SMOOTH",
"36 592 LINE SMOOTH",
"36 656 OFFCURVE",
"14 675 QCURVE SMOOTH",
"11 677 OFFCURVE",
"12 683 OFFCURVE",
"17 683 QCURVE SMOOTH",
"193 683 LINE SMOOTH",
"197 683 OFFCURVE",
"198 677 OFFCURVE",
"195 675 QCURVE SMOOTH",
"173 655 OFFCURVE",
"173 592 QCURVE SMOOTH",
"173 375 LINE SMOOTH",
"173 318 OFFCURVE",
"195 267 QCURVE SMOOTH",
"264 106 LINE",
"333 267 LINE SMOOTH",
"355 318 OFFCURVE",
"355 375 QCURVE SMOOTH",
"355 592 LINE SMOOTH",
"355 656 OFFCURVE",
"333 675 QCURVE SMOOTH",
"330 677 OFFCURVE",
"331 683 OFFCURVE",
"336 683 QCURVE SMOOTH",
"512 683 LINE SMOOTH",
"516 683 OFFCURVE",
"518 677 OFFCURVE",
"514 675 QCURVE",
"492 656 OFFCURVE",
"492 592 QCURVE SMOOTH",
"492 375 LINE SMOOTH",
"492 318 OFFCURVE",
"514 267 QCURVE SMOOTH",
"583 106 LINE",
"652 267 LINE SMOOTH",
"674 318 OFFCURVE",
"674 375 QCURVE SMOOTH",
"674 592 LINE SMOOTH",
"674 656 OFFCURVE",
"651 675 QCURVE SMOOTH",
"648 677 OFFCURVE",
"650 683 OFFCURVE",
"654 683 QCURVE SMOOTH"
);
}
);
width = 842;
}
);
unicode = 0057;
},
{
glyphname = Q;
layers = (
{
layerId = "616D4D79-28E0-48D4-A99A-6A264E58F352";
paths = (
{
nodes = (
"515 228 LINE SMOOTH",
"515 180 OFFCURVE",
"477 93 OFFCURVE",
"442 61 QCURVE",
"469 23 OFFCURVE",
"495 9 QCURVE SMOOTH",
"498 7 OFFCURVE",
"497 0 OFFCURVE",
"492 0 QCURVE SMOOTH",
"333 0 LINE",
"330 5 LINE",
"325 12 LINE",
"236 137 LINE",
"176 223 LINE",
"346 223 LINE SMOOTH",
"353 223 OFFCURVE",
"350 217 QCURVE",
"346 198 OFFCURVE",
"354 185 QCURVE",
"361 175 LINE",
"378 199 OFFCURVE",
"378 228 QCURVE SMOOTH",
"378 456 LINE SMOOTH",
"378 494 OFFCURVE",
"325 547 OFFCURVE",
"287 547 QCURVE SMOOTH",
"242 547 LINE SMOOTH",
"223 547 OFFCURVE",
"190 533 OFFCURVE",
"165 508 OFFCURVE",
"151 475 OFFCURVE",
"151 456 QCURVE SMOOTH",
"151 223 LINE",
"153 196 OFFCURVE",
"184 152 OFFCURVE",
"210 143 QCURVE",
"310 2 LINE",
"305 1 OFFCURVE",
"293 0 OFFCURVE",
"287 0 QCURVE SMOOTH",
"242 0 LINE SMOOTH",
"195 0 OFFCURVE",
"112 36 OFFCURVE",
"50 98 OFFCURVE",
"14 181 OFFCURVE",
"14 228 QCURVE SMOOTH",
"14 456 LINE SMOOTH",
"14 503 OFFCURVE",
"50 586 OFFCURVE",
"112 648 OFFCURVE",
"195 684 OFFCURVE",
"242 684 QCURVE SMOOTH",
"287 684 LINE SMOOTH",
"334 684 OFFCURVE",
"417 648 OFFCURVE",
"479 586 OFFCURVE",
"515 503 OFFCURVE",
"515 456 QCURVE SMOOTH"
);
}
);
width = 531;
}
);
unicode = 0051;
},
{
glyphname = E;
layers = (
{
layerId = "616D4D79-28E0-48D4-A99A-6A264E58F352";
paths = (
{
nodes = (
"500 91 LINE SMOOTH",
"500 26 OFFCURVE",
"522 7 QCURVE SMOOTH",
"525 5 OFFCURVE",
"524 0 OFFCURVE",
"519 0 QCURVE SMOOTH",
"25 0 LINE SMOOTH",
"20 0 OFFCURVE",
"19 5 OFFCURVE",
"22 7 QCURVE SMOOTH",
"44 26 OFFCURVE",
"44 91 QCURVE SMOOTH",
"44 592 LINE SMOOTH",
"44 678 OFFCURVE",
"3 683 QCURVE",
"519 683 LINE SMOOTH",
"524 683 OFFCURVE",
"525 677 OFFCURVE",
"522 675 QCURVE SMOOTH",
"500 656 OFFCURVE",
"500 592 QCURVE SMOOTH",
"500 526 LINE SMOOTH",
"500 522 OFFCURVE",
"494 520 OFFCURVE",
"492 524 QCURVE",
"473 546 OFFCURVE",
"409 546 QCURVE SMOOTH",
"181 546 LINE",
"181 410 LINE",
"318 410 LINE SMOOTH",
"382 410 OFFCURVE",
"401 432 QCURVE SMOOTH",
"403 435 OFFCURVE",
"409 433 OFFCURVE",
"409 429 QCURVE SMOOTH",
"409 253 LINE SMOOTH",
"409 249 OFFCURVE",
"403 247 OFFCURVE",
"401 250 QCURVE SMOOTH",
"381 273 OFFCURVE",
"318 273 QCURVE SMOOTH",
"181 273 LINE",
"181 136 LINE",
"409 136 LINE SMOOTH",
"472 136 OFFCURVE",
"492 159 QCURVE SMOOTH",
"494 162 OFFCURVE",
"500 160 OFFCURVE",
"500 156 QCURVE SMOOTH"
);
}
);
width = 545;
}
);
unicode = 0045;
},
{
glyphname = J;
layers = (
{
layerId = "616D4D79-28E0-48D4-A99A-6A264E58F352";
paths = (
{
nodes = (
"515 683 LINE SMOOTH",
"519 683 OFFCURVE",
"521 677 OFFCURVE",
"518 675 QCURVE SMOOTH",
"495 655 OFFCURVE",
"495 592 QCURVE SMOOTH",
"495 227 LINE SMOOTH",
"495 180 OFFCURVE",
"459 97 OFFCURVE",
"397 36 OFFCURVE",
"314 0 OFFCURVE",
"267 0 QCURVE SMOOTH",
"220 0 OFFCURVE",
"137 36 OFFCURVE",
"75 97 OFFCURVE",
"39 180 OFFCURVE",
"39 227 QCURVE SMOOTH",
"39 292 OFFCURVE",
"17 310 QCURVE SMOOTH",
"14 313 OFFCURVE",
"16 319 OFFCURVE",
"20 319 QCURVE SMOOTH",
"196 319 LINE SMOOTH",
"200 319 OFFCURVE",
"202 313 OFFCURVE",
"199 310 QCURVE SMOOTH",
"176 292 OFFCURVE",
"176 227 QCURVE SMOOTH",
"176 189 OFFCURVE",
"229 136 OFFCURVE",
"267 136 QCURVE SMOOTH",
"286 136 OFFCURVE",
"320 150 OFFCURVE",
"345 175 OFFCURVE",
"359 208 OFFCURVE",
"359 227 QCURVE SMOOTH",
"359 546 LINE",
"131 546 LINE SMOOTH",
"66 546 OFFCURVE",
"48 524 QCURVE SMOOTH",
"45 521 OFFCURVE",
"39 522 OFFCURVE",
"39 527 QCURVE SMOOTH",
"39 592 LINE SMOOTH",
"39 656 OFFCURVE",
"17 675 QCURVE SMOOTH",
"14 677 OFFCURVE",
"16 683 OFFCURVE",
"20 683 QCURVE SMOOTH"
);
}
);
width = 521;
}
);
unicode = 004A;
},
{
glyphname = eight;
layers = (
{
layerId = "616D4D79-28E0-48D4-A99A-6A264E58F352";
paths = (
{
nodes = (
"496 364 OFFCURVE",
"534 278 OFFCURVE",
"536 189 OFFCURVE",
"504 105 OFFCURVE",
"445 40 OFFCURVE",
"359 0 OFFCURVE",
"307 0 QCURVE SMOOTH",
"240 0 LINE SMOOTH",
"188 0 OFFCURVE",
"102 40 OFFCURVE",
"43 105 OFFCURVE",
"11 189 OFFCURVE",
"12 278 OFFCURVE",
"50 364 OFFCURVE",
"89 399 QCURVE",
"58 444 OFFCURVE",
"57 544 OFFCURVE",
"101 628 OFFCURVE",
"185 683 OFFCURVE",
"240 683 QCURVE SMOOTH",
"307 683 LINE SMOOTH",
"362 683 OFFCURVE",
"446 628 OFFCURVE",
"490 544 OFFCURVE",
"488 444 OFFCURVE",
"457 399 QCURVE"
);
},
{
nodes = (
"240 547 LINE SMOOTH",
"221 547 OFFCURVE",
"194 521 OFFCURVE",
"194 501 QCURVE SMOOTH",
"194 482 OFFCURVE",
"221 456 OFFCURVE",
"240 456 QCURVE SMOOTH",
"307 456 LINE SMOOTH",
"326 456 OFFCURVE",
"352 482 OFFCURVE",
"352 501 QCURVE SMOOTH",
"352 521 OFFCURVE",
"326 547 OFFCURVE",
"307 547 QCURVE SMOOTH"
);
},
{
nodes = (
"307 137 LINE SMOOTH",
"345 137 OFFCURVE",
"398 190 OFFCURVE",
"398 228 QCURVE SMOOTH",
"398 266 OFFCURVE",
"345 319 OFFCURVE",
"307 319 QCURVE SMOOTH",
"240 319 LINE SMOOTH",
"202 319 OFFCURVE",
"149 266 OFFCURVE",
"149 228 QCURVE SMOOTH",
"149 190 OFFCURVE",
"202 137 OFFCURVE",
"240 137 QCURVE SMOOTH"
);
}
);
width = 551;
}
);
unicode = 0038;
},
{
glyphname = Z;
layers = (
{
layerId = "616D4D79-28E0-48D4-A99A-6A264E58F352";
paths = (
{
nodes = (
"510 91 LINE SMOOTH",
"510 26 OFFCURVE",
"533 8 QCURVE SMOOTH",
"536 5 OFFCURVE",
"534 0 OFFCURVE",
"530 0 QCURVE SMOOTH",
"9 0 LINE",
"321 546 LINE",
"146 546 LINE SMOOTH",
"83 546 OFFCURVE",
"63 524 QCURVE SMOOTH",
"60 521 OFFCURVE",
"55 522 OFFCURVE",
"55 527 QCURVE SMOOTH",
"55 592 LINE SMOOTH",
"55 655 OFFCURVE",
"32 675 QCURVE SMOOTH",
"29 677 OFFCURVE",
"31 683 OFFCURVE",
"35 683 QCURVE SMOOTH",
"556 683 LINE",
"244 136 LINE",
"419 136 LINE SMOOTH",
"482 136 OFFCURVE",
"502 159 QCURVE SMOOTH",
"505 162 OFFCURVE",
"510 160 OFFCURVE",
"510 156 QCURVE SMOOTH"
);
}
);
width = 563;
}
);
unicode = 005A;
},
{
glyphname = exclam;
layers = (
{
layerId = "616D4D79-28E0-48D4-A99A-6A264E58F352";
paths = (
{
nodes = (
"173 275 LINE SMOOTH",
"173 212 OFFCURVE",
"195 194 QCURVE SMOOTH",
"198 191 OFFCURVE",
"196 186 OFFCURVE",
"192 186 QCURVE SMOOTH",
"20 186 LINE SMOOTH",
"16 186 OFFCURVE",
"14 191 OFFCURVE",
"17 194 QCURVE SMOOTH",
"39 212 OFFCURVE",
"39 275 QCURVE SMOOTH",
"39 594 LINE SMOOTH",
"39 656 OFFCURVE",
"17 675 QCURVE SMOOTH",
"14 677 OFFCURVE",
"16 683 OFFCURVE",
"20 683 QCURVE SMOOTH",
"192 683 LINE SMOOTH",
"196 683 OFFCURVE",
"198 677 OFFCURVE",
"195 675 QCURVE SMOOTH",
"173 656 OFFCURVE",
"173 594 QCURVE SMOOTH"
);
},
{
nodes = (
"131 133 OFFCURVE",
"170 94 OFFCURVE",
"170 67 QCURVE SMOOTH",
"170 38 OFFCURVE",
"131 0 OFFCURVE",
"103 0 QCURVE SMOOTH",
"75 0 OFFCURVE",
"36 38 OFFCURVE",
"36 67 QCURVE SMOOTH",
"36 94 OFFCURVE",
"75 133 OFFCURVE",
"103 133 QCURVE SMOOTH"
);
}
);
width = 215;
}
);
unicode = 0021;
},
{
glyphname = question;
layers = (
{
layerId = "616D4D79-28E0-48D4-A99A-6A264E58F352";
paths = (
{
nodes = (
"342 679 LINE SMOOTH",
"384 679 OFFCURVE",
"457 648 OFFCURVE",
"511 594 OFFCURVE",
"542 521 OFFCURVE",
"542 479 QCURVE SMOOTH",
"542 441 OFFCURVE",
"515 372 OFFCURVE",
"468 319 OFFCURVE",
"403 284 OFFCURVE",
"365 280 QCURVE SMOOTH",
"350 278 OFFCURVE",
"333 265 OFFCURVE",
"328 250 QCURVE SMOOTH",
"326 246 OFFCURVE",
"326 243 QCURVE",
"321 209 OFFCURVE",
"340 194 QCURVE SMOOTH",
"343 191 OFFCURVE",
"341 186 OFFCURVE",
"337 186 QCURVE SMOOTH",
"167 186 LINE SMOOTH",
"163 186 OFFCURVE",
"161 191 OFFCURVE",
"164 194 QCURVE SMOOTH",
"190 218 OFFCURVE",
"191 253 QCURVE",
"194 282 OFFCURVE",
"218 339 OFFCURVE",
"256 384 OFFCURVE",
"309 412 OFFCURVE",
"342 412 QCURVE SMOOTH",
"370 412 OFFCURVE",
"409 451 OFFCURVE",
"409 479 QCURVE SMOOTH",
"409 507 OFFCURVE",
"370 546 OFFCURVE",
"342 546 QCURVE SMOOTH",
"220 546 LINE SMOOTH",
"205 546 OFFCURVE",
"193 540 QCURVE SMOOTH",
"188 537 OFFCURVE",
"178 527 OFFCURVE",
"171 512 OFFCURVE",
"171 495 OFFCURVE",
"176 486 QCURVE SMOOTH",
"179 479 OFFCURVE",
"172 479 QCURVE SMOOTH",
"19 479 LINE",
"19 521 OFFCURVE",
"51 594 OFFCURVE",
"105 648 OFFCURVE",
"178 679 OFFCURVE",
"220 679 QCURVE SMOOTH"
);
},
{
nodes = (
"282 133 OFFCURVE",
"321 94 OFFCURVE",
"321 66 QCURVE SMOOTH",
"321 39 OFFCURVE",
"282 0 OFFCURVE",
"254 0 QCURVE SMOOTH",
"226 0 OFFCURVE",
"187 39 OFFCURVE",
"187 66 QCURVE SMOOTH",
"187 94 OFFCURVE",
"226 133 OFFCURVE",
"254 133 QCURVE SMOOTH"
);
}
);
width = 562;
}
);
unicode = 003F;
},
{
glyphname = R;
layers = (
{
layerId = "616D4D79-28E0-48D4-A99A-6A264E58F352";
paths = (
{
nodes = (
"492 6 OFFCURVE",
"490 0 OFFCURVE",
"486 0 QCURVE SMOOTH",
"310 0 LINE SMOOTH",
"306 0 OFFCURVE",
"304 6 OFFCURVE",
"307 8 QCURVE SMOOTH",
"330 27 OFFCURVE",
"330 91 QCURVE SMOOTH",
"330 160 LINE SMOOTH",
"330 188 OFFCURVE",
"309 238 OFFCURVE",
"271 275 OFFCURVE",
"221 296 OFFCURVE",
"193 296 QCURVE SMOOTH",
"171 296 LINE",
"171 91 LINE SMOOTH",
"171 27 OFFCURVE",
"193 8 QCURVE SMOOTH",
"196 6 OFFCURVE",
"195 0 OFFCURVE",
"190 0 QCURVE SMOOTH",
"14 0 LINE SMOOTH",
"10 0 OFFCURVE",
"8 6 OFFCURVE",
"12 8 QCURVE",
"34 28 OFFCURVE",
"34 91 QCURVE SMOOTH",
"34 592 LINE SMOOTH",
"34 655 OFFCURVE",
"12 674 QCURVE SMOOTH",
"8 677 OFFCURVE",
"10 683 OFFCURVE",
"14 683 QCURVE SMOOTH",
"272 683 LINE SMOOTH",
"312 683 OFFCURVE",
"383 652 OFFCURVE",
"436 600 OFFCURVE",
"467 529 OFFCURVE",
"467 489 QCURVE SMOOTH",
"467 446 OFFCURVE",
"431 368 OFFCURVE",
"398 341 QCURVE",
"434 299 OFFCURVE",
"467 214 OFFCURVE",
"467 160 QCURVE SMOOTH",
"467 91 LINE SMOOTH",
"467 27 OFFCURVE",
"489 8 QCURVE SMOOTH"
);
},
{
nodes = (
"272 431 LINE SMOOTH",
"296 431 OFFCURVE",
"330 464 OFFCURVE",
"330 489 QCURVE SMOOTH",
"330 513 OFFCURVE",
"296 547 OFFCURVE",
"272 547 QCURVE SMOOTH",
"171 547 LINE",
"171 431 LINE"
);
}
);
width = 502;
}
);
unicode = 0052;
},
{
glyphname = G;
layers = (
{
layerId = "616D4D79-28E0-48D4-A99A-6A264E58F352";
paths = (
{
nodes = (
"514 364 LINE",
"514 228 LINE SMOOTH",
"514 181 OFFCURVE",
"478 98 OFFCURVE",
"416 36 OFFCURVE",
"333 0 OFFCURVE",
"286 0 QCURVE SMOOTH",
"240 0 LINE SMOOTH",
"193 0 OFFCURVE",
"110 36 OFFCURVE",
"49 98 OFFCURVE",
"13 181 OFFCURVE",
"13 228 QCURVE SMOOTH",
"13 456 LINE SMOOTH",
"13 503 OFFCURVE",
"49 586 OFFCURVE",
"110 647 OFFCURVE",
"193 683 OFFCURVE",
"240 683 QCURVE SMOOTH",
"286 683 LINE SMOOTH",
"333 683 OFFCURVE",
"416 647 OFFCURVE",
"478 586 OFFCURVE",
"514 503 OFFCURVE",
"514 456 QCURVE",
"352 456 LINE SMOOTH",
"344 456 OFFCURVE",
"349 463 QCURVE SMOOTH",
"367 485 OFFCURVE",
"347 518 QCURVE",
"341 530 OFFCURVE",
"329 536 QCURVE SMOOTH",
"309 547 OFFCURVE",
"286 547 QCURVE SMOOTH",
"240 547 LINE SMOOTH",
"202 547 OFFCURVE",
"149 494 OFFCURVE",
"149 456 QCURVE SMOOTH",
"149 228 LINE SMOOTH",
"149 190 OFFCURVE",
"202 137 OFFCURVE",
"240 137 QCURVE SMOOTH",
"286 137 LINE SMOOTH",
"311 137 OFFCURVE",
"329 148 QCURVE",
"352 160 OFFCURVE",
"377 202 OFFCURVE",
"377 228 QCURVE",
"214 228 LINE",
"214 274 LINE SMOOTH",
"214 338 OFFCURVE",
"192 357 QCURVE SMOOTH",
"189 359 OFFCURVE",
"190 364 OFFCURVE",
"195 364 QCURVE SMOOTH"
);
}
);
width = 529;
}
);
unicode = 0047;
},
{
glyphname = F;
layers = (
{
layerId = "616D4D79-28E0-48D4-A99A-6A264E58F352";
paths = (
{
nodes = (
"510 683 LINE SMOOTH",
"515 683 OFFCURVE",
"516 677 OFFCURVE",
"513 675 QCURVE SMOOTH",
"491 656 OFFCURVE",
"491 592 QCURVE SMOOTH",
"491 527 LINE SMOOTH",
"491 522 OFFCURVE",
"485 521 OFFCURVE",
"483 524 QCURVE SMOOTH",
"463 546 OFFCURVE",
"400 546 QCURVE SMOOTH",
"172 546 LINE",
"172 410 LINE",
"308 410 LINE SMOOTH",
"373 410 OFFCURVE",
"391 432 QCURVE SMOOTH",
"394 435 OFFCURVE",
"400 433 OFFCURVE",
"400 429 QCURVE SMOOTH",
"400 253 LINE SMOOTH",
"400 249 OFFCURVE",
"394 247 OFFCURVE",
"391 250 QCURVE SMOOTH",
"373 273 OFFCURVE",
"308 273 QCURVE SMOOTH",
"172 273 LINE",
"172 91 LINE SMOOTH",
"172 27 OFFCURVE",
"194 7 QCURVE SMOOTH",
"197 5 OFFCURVE",
"196 0 OFFCURVE",
"191 0 QCURVE SMOOTH",
"16 0 LINE SMOOTH",
"11 0 OFFCURVE",
"9 5 OFFCURVE",
"13 7 QCURVE",
"35 26 OFFCURVE",
"35 91 QCURVE SMOOTH",
"35 592 LINE SMOOTH",
"35 656 OFFCURVE",
"13 675 QCURVE",
"9 677 OFFCURVE",
"11 683 OFFCURVE",
"16 683 QCURVE SMOOTH"
);
}
);
width = 516;
}
);
unicode = 0046;
},
{
glyphname = C;
layers = (
{
layerId = "616D4D79-28E0-48D4-A99A-6A264E58F352";
paths = (
{
nodes = (
"515 228 LINE",
"515 181 OFFCURVE",
"479 98 OFFCURVE",
"417 36 OFFCURVE",
"334 0 OFFCURVE",
"287 0 QCURVE SMOOTH",
"241 0 LINE SMOOTH",
"194 0 OFFCURVE",
"111 36 OFFCURVE",
"49 98 OFFCURVE",
"14 181 OFFCURVE",
"14 228 QCURVE SMOOTH",
"14 456 LINE SMOOTH",
"14 503 OFFCURVE",
"49 586 OFFCURVE",
"111 648 OFFCURVE",
"194 684 OFFCURVE",
"241 684 QCURVE SMOOTH",
"287 684 LINE SMOOTH",
"334 684 OFFCURVE",
"417 648 OFFCURVE",
"479 586 OFFCURVE",
"515 503 OFFCURVE",
"515 456 QCURVE",
"353 456 LINE SMOOTH",
"345 456 OFFCURVE",
"350 463 QCURVE SMOOTH",
"367 486 OFFCURVE",
"348 519 QCURVE",
"344 524 OFFCURVE",
"336 533 OFFCURVE",
"330 536 QCURVE SMOOTH",
"311 547 OFFCURVE",
"287 547 QCURVE SMOOTH",
"241 547 LINE SMOOTH",
"203 547 OFFCURVE",
"150 494 OFFCURVE",
"150 456 QCURVE SMOOTH",
"150 228 LINE SMOOTH",
"150 190 OFFCURVE",
"203 137 OFFCURVE",
"241 137 QCURVE SMOOTH",
"287 137 LINE SMOOTH",
"299 137 OFFCURVE",
"319 143 OFFCURVE",
"330 148 QCURVE SMOOTH",
"340 153 OFFCURVE",
"348 166 QCURVE SMOOTH",
"367 198 OFFCURVE",
"350 221 QCURVE SMOOTH",
"345 228 OFFCURVE",
"353 228 QCURVE SMOOTH"
);
}
);
width = 533;
}
);
unicode = 0043;
},
{
glyphname = D;
layers = (
{
layerId = "616D4D79-28E0-48D4-A99A-6A264E58F352";
paths = (
{
nodes = (
"275 684 LINE SMOOTH",
"322 684 OFFCURVE",
"405 648 OFFCURVE",
"466 586 OFFCURVE",
"502 503 OFFCURVE",
"502 456 QCURVE SMOOTH",
"502 228 LINE SMOOTH",
"502 181 OFFCURVE",
"466 98 OFFCURVE",
"405 36 OFFCURVE",
"322 0 OFFCURVE",
"275 0 QCURVE SMOOTH",
"27 0 LINE SMOOTH",
"23 0 OFFCURVE",
"21 6 OFFCURVE",
"25 9 QCURVE SMOOTH",
"47 28 OFFCURVE",
"47 92 QCURVE SMOOTH",
"47 593 LINE SMOOTH",
"47 656 OFFCURVE",
"25 676 QCURVE",
"21 678 OFFCURVE",
"23 684 OFFCURVE",
"27 684 QCURVE SMOOTH"
);
},
{
nodes = (
"275 137 LINE SMOOTH",
"313 137 OFFCURVE",
"366 190 OFFCURVE",
"366 228 QCURVE SMOOTH",
"366 456 LINE SMOOTH",
"366 494 OFFCURVE",
"313 547 OFFCURVE",
"275 547 QCURVE SMOOTH",
"184 547 LINE",
"184 137 LINE"
);
}
);
width = 534;
}
);
unicode = 0044;
},
{
glyphname = S;
layers = (
{
layerId = "616D4D79-28E0-48D4-A99A-6A264E58F352";
paths = (
{
nodes = (
"318 409 LINE SMOOTH",
"361 409 OFFCURVE",
"435 377 OFFCURVE",
"491 321 OFFCURVE",
"523 247 OFFCURVE",
"523 204 QCURVE SMOOTH",
"523 162 OFFCURVE",
"491 87 OFFCURVE",
"435 32 OFFCURVE",
"361 0 OFFCURVE",
"318 0 QCURVE SMOOTH",
"227 0 LINE SMOOTH",
"185 0 OFFCURVE",
"110 32 OFFCURVE",
"55 87 OFFCURVE",
"23 162 OFFCURVE",
"23 204 QCURVE",
"178 204 LINE SMOOTH",
"186 204 OFFCURVE",
"183 198 QCURVE SMOOTH",
"172 178 OFFCURVE",
"190 148 OFFCURVE",
"200 142 QCURVE",
"213 136 OFFCURVE",
"227 136 QCURVE SMOOTH",
"318 136 LINE SMOOTH",
"347 136 OFFCURVE",
"387 176 OFFCURVE",
"387 204 QCURVE SMOOTH",
"387 233 OFFCURVE",
"347 273 OFFCURVE",
"318 273 QCURVE SMOOTH",
"227 273 LINE SMOOTH",
"185 273 OFFCURVE",
"110 305 OFFCURVE",
"55 361 OFFCURVE",
"23 436 OFFCURVE",
"23 478 QCURVE SMOOTH",
"23 520 OFFCURVE",
"55 595 OFFCURVE",
"110 651 OFFCURVE",
"185 683 OFFCURVE",
"227 683 QCURVE SMOOTH",
"318 683 LINE SMOOTH",
"361 683 OFFCURVE",
"435 651 OFFCURVE",
"491 595 OFFCURVE",
"523 520 OFFCURVE",
"523 478 QCURVE",
"367 478 LINE SMOOTH",
"359 478 OFFCURVE",
"363 484 QCURVE SMOOTH",
"373 503 OFFCURVE",
"356 535 OFFCURVE",
"346 540 QCURVE SMOOTH",
"332 546 OFFCURVE",
"318 546 QCURVE SMOOTH",
"227 546 LINE SMOOTH",
"199 546 OFFCURVE",
"159 506 OFFCURVE",
"159 478 QCURVE SMOOTH",
"159 449 OFFCURVE",
"199 409 OFFCURVE",
"227 409 QCURVE SMOOTH"
);
}
);
width = 544;
}
);
unicode = 0053;
},
{
glyphname = period;
layers = (
{
layerId = "616D4D79-28E0-48D4-A99A-6A264E58F352";
paths = (
{
nodes = (
"110 133 OFFCURVE",
"150 94 OFFCURVE",
"150 67 QCURVE SMOOTH",
"150 39 OFFCURVE",
"110 0 OFFCURVE",
"83 0 QCURVE SMOOTH",
"55 0 OFFCURVE",
"16 39 OFFCURVE",
"16 67 QCURVE SMOOTH",
"16 94 OFFCURVE",
"55 133 OFFCURVE",
"83 133 QCURVE SMOOTH"
);
}
);
width = 167;
}
);
unicode = 002E;
},
{
glyphname = comma;
layers = (
{
layerId = "616D4D79-28E0-48D4-A99A-6A264E58F352";
paths = (
{
nodes = (
"87 133 OFFCURVE",
"120 123 OFFCURVE",
"144 100 OFFCURVE",
"154 67 OFFCURVE",
"150 49 QCURVE",
"143 3 OFFCURVE",
"106 -63 OFFCURVE",
"64 -86 QCURVE",
"50 -82 OFFCURVE",
"37 -72 QCURVE SMOOTH",
"33 -69 OFFCURVE",
"36 -66 QCURVE SMOOTH",
"49 -51 OFFCURVE",
"58 -13 OFFCURVE",
"36 19 QCURVE",
"23 33 OFFCURVE",
"17 68 OFFCURVE",
"26 99 OFFCURVE",
"51 124 OFFCURVE",
"69 129 QCURVE SMOOTH"
);
}
);
width = 166;
}
);
unicode = 002C;
},
{
glyphname = O;
layers = (
{
layerId = "616D4D79-28E0-48D4-A99A-6A264E58F352";
paths = (
{
nodes = (
"297 683 LINE SMOOTH",
"344 683 OFFCURVE",
"427 647 OFFCURVE",
"489 585 OFFCURVE",
"525 502 OFFCURVE",
"525 455 QCURVE SMOOTH",
"525 227 LINE SMOOTH",
"525 180 OFFCURVE",
"489 97 OFFCURVE",
"427 35 OFFCURVE",
"344 0 OFFCURVE",
"297 0 QCURVE SMOOTH",
"252 0 LINE SMOOTH",
"205 0 OFFCURVE",
"122 35 OFFCURVE",
"60 97 OFFCURVE",
"24 180 OFFCURVE",
"24 227 QCURVE SMOOTH",
"24 455 LINE SMOOTH",
"24 502 OFFCURVE",
"60 585 OFFCURVE",
"122 647 OFFCURVE",
"205 683 OFFCURVE",
"252 683 QCURVE SMOOTH"
);
},
{
nodes = (
"297 136 LINE SMOOTH",
"335 136 OFFCURVE",
"388 189 OFFCURVE",
"388 227 QCURVE SMOOTH",
"388 455 LINE SMOOTH",
"388 493 OFFCURVE",
"335 546 OFFCURVE",
"297 546 QCURVE SMOOTH",
"252 546 LINE SMOOTH",
"233 546 OFFCURVE",
"200 532 OFFCURVE",
"175 507 OFFCURVE",
"161 474 OFFCURVE",
"161 455 QCURVE SMOOTH",
"161 227 LINE SMOOTH",
"161 208 OFFCURVE",
"175 175 OFFCURVE",
"200 150 OFFCURVE",
"233 136 OFFCURVE",
"252 136 QCURVE SMOOTH"
);
}
);
width = 553;
}
);
unicode = 004F;
},
{
glyphname = colon;
layers = (
{
layerId = "616D4D79-28E0-48D4-A99A-6A264E58F352";
paths = (
{
nodes = (
"110 133 OFFCURVE",
"150 94 OFFCURVE",
"150 67 QCURVE SMOOTH",
"150 39 OFFCURVE",
"110 0 OFFCURVE",
"83 0 QCURVE SMOOTH",
"55 0 OFFCURVE",
"16 39 OFFCURVE",
"16 67 QCURVE SMOOTH",
"16 94 OFFCURVE",
"55 133 OFFCURVE",
"83 133 QCURVE SMOOTH"
);
},
{
nodes = (
"110 678 OFFCURVE",
"150 639 OFFCURVE",
"150 612 QCURVE SMOOTH",
"150 584 OFFCURVE",
"110 545 OFFCURVE",
"83 545 QCURVE SMOOTH",
"55 545 OFFCURVE",
"16 584 OFFCURVE",
"16 612 QCURVE SMOOTH",
"16 639 OFFCURVE",
"55 678 OFFCURVE",
"83 678 QCURVE SMOOTH"
);
}
);
width = 167;
}
);
unicode = 003A;
},
{
glyphname = semicolon;
layers = (
{
layerId = "616D4D79-28E0-48D4-A99A-6A264E58F352";
paths = (
{
nodes = (
"110 678 OFFCURVE",
"150 639 OFFCURVE",
"150 612 QCURVE SMOOTH",
"150 584 OFFCURVE",
"110 545 OFFCURVE",
"83 545 QCURVE SMOOTH",
"55 545 OFFCURVE",
"16 584 OFFCURVE",
"16 612 QCURVE SMOOTH",
"16 639 OFFCURVE",
"55 678 OFFCURVE",
"83 678 QCURVE SMOOTH"
);
},
{
nodes = (
"85 136 OFFCURVE",
"118 126 OFFCURVE",
"142 103 OFFCURVE",
"152 70 OFFCURVE",
"148 52 QCURVE",
"141 6 OFFCURVE",
"104 -60 OFFCURVE",
"62 -83 QCURVE",
"48 -79 OFFCURVE",
"35 -69 QCURVE SMOOTH",
"31 -66 OFFCURVE",
"34 -63 QCURVE SMOOTH",
"47 -48 OFFCURVE",
"56 -10 OFFCURVE",
"34 22 QCURVE",
"21 36 OFFCURVE",
"15 71 OFFCURVE",
"24 102 OFFCURVE",
"49 127 OFFCURVE",
"67 132 QCURVE SMOOTH"
);
}
);
width = 167;
}
);
unicode = 003B;
},
{
glyphname = a;
layers = (
{
layerId = "616D4D79-28E0-48D4-A99A-6A264E58F352";
paths = (
{
nodes = (
"520 5 OFFCURVE",
"518 0 OFFCURVE",
"514 0 QCURVE SMOOTH",
"338 0 LINE SMOOTH",
"334 0 OFFCURVE",
"332 5 OFFCURVE",
"335 8 QCURVE SMOOTH",
"358 26 OFFCURVE",
"358 91 QCURVE SMOOTH",
"358 182 LINE",
"175 182 LINE",
"175 91 LINE SMOOTH",
"175 26 OFFCURVE",
"198 8 QCURVE",
"206 0 OFFCURVE",
"195 0 QCURVE SMOOTH",
"19 0 LINE SMOOTH",
"15 0 OFFCURVE",
"13 5 OFFCURVE",
"16 8 QCURVE SMOOTH",
"39 26 OFFCURVE",
"39 91 QCURVE SMOOTH",
"39 308 LINE SMOOTH",
"39 351 OFFCURVE",
"55 430 OFFCURVE",
"72 470 QCURVE SMOOTH",
"124 591 LINE",
"137 655 OFFCURVE",
"118 675 QCURVE SMOOTH",
"115 678 OFFCURVE",
"117 683 OFFCURVE",
"121 683 QCURVE SMOOTH",
"412 683 LINE SMOOTH",
"422 683 OFFCURVE",
"416 675 QCURVE",
"397 657 OFFCURVE",
"409 591 QCURVE",
"461 470 LINE SMOOTH",
"478 430 OFFCURVE",
"494 351 OFFCURVE",
"494 308 QCURVE SMOOTH",
"494 91 LINE SMOOTH",
"494 26 OFFCURVE",
"517 8 QCURVE SMOOTH"
);
},
{
nodes = (
"358 318 LINE",
"355 369 OFFCURVE",
"336 416 QCURVE",
"267 577 LINE",
"198 416 LINE SMOOTH",
"177 369 OFFCURVE",
"176 318 QCURVE"
);
}
);
width = 539;
}
);
unicode = 0061;
},
{
glyphname = b;
layers = (
{
layerId = "616D4D79-28E0-48D4-A99A-6A264E58F352";
paths = (
{
nodes = (
"454 364 OFFCURVE",
"492 278 OFFCURVE",
"493 189 OFFCURVE",
"461 105 OFFCURVE",
"402 40 OFFCURVE",
"316 0 OFFCURVE",
"264 0 QCURVE SMOOTH",
"17 0 LINE SMOOTH",
"12 0 OFFCURVE",
"11 5 OFFCURVE",
"14 8 QCURVE SMOOTH",
"36 27 OFFCURVE",
"36 91 QCURVE SMOOTH",
"36 592 LINE SMOOTH",
"36 656 OFFCURVE",
"14 675 QCURVE SMOOTH",
"11 677 OFFCURVE",
"12 683 OFFCURVE",
"17 683 QCURVE SMOOTH",
"264 683 LINE SMOOTH",
"319 683 OFFCURVE",
"403 628 OFFCURVE",
"447 544 OFFCURVE",
"446 443 OFFCURVE",
"415 398 QCURVE"
);
},
{
nodes = (
"264 137 LINE SMOOTH",
"302 137 OFFCURVE",
"355 189 OFFCURVE",
"355 227 QCURVE SMOOTH",
"355 246 OFFCURVE",
"341 280 OFFCURVE",
"316 305 OFFCURVE",
"283 319 OFFCURVE",
"264 319 QCURVE SMOOTH",
"173 319 LINE",
"173 137 LINE"
);
},
{
nodes = (
"173 455 LINE",
"264 455 LINE SMOOTH",
"283 455 OFFCURVE",
"309 482 OFFCURVE",
"309 501 QCURVE SMOOTH",
"309 520 OFFCURVE",
"283 547 OFFCURVE",
"264 547 QCURVE SMOOTH",
"173 547 LINE"
);
}
);
width = 518;
}
);
unicode = 0062;
},
{
glyphname = c;
layers = (
{
layerId = "616D4D79-28E0-48D4-A99A-6A264E58F352";
paths = (
{
nodes = (
"515 228 LINE",
"515 181 OFFCURVE",
"479 98 OFFCURVE",
"417 36 OFFCURVE",
"334 0 OFFCURVE",
"287 0 QCURVE SMOOTH",
"241 0 LINE SMOOTH",
"194 0 OFFCURVE",
"111 36 OFFCURVE",
"49 98 OFFCURVE",
"14 181 OFFCURVE",
"14 228 QCURVE SMOOTH",
"14 456 LINE SMOOTH",
"14 503 OFFCURVE",
"49 586 OFFCURVE",
"111 648 OFFCURVE",
"194 684 OFFCURVE",
"241 684 QCURVE SMOOTH",
"287 684 LINE SMOOTH",
"334 684 OFFCURVE",
"417 648 OFFCURVE",
"479 586 OFFCURVE",
"515 503 OFFCURVE",
"515 456 QCURVE",
"353 456 LINE SMOOTH",
"345 456 OFFCURVE",
"350 463 QCURVE SMOOTH",
"367 486 OFFCURVE",
"348 519 QCURVE",
"344 524 OFFCURVE",
"336 533 OFFCURVE",
"330 536 QCURVE SMOOTH",
"311 547 OFFCURVE",
"287 547 QCURVE SMOOTH",
"241 547 LINE SMOOTH",
"203 547 OFFCURVE",
"150 494 OFFCURVE",
"150 456 QCURVE SMOOTH",
"150 228 LINE SMOOTH",
"150 190 OFFCURVE",
"203 137 OFFCURVE",
"241 137 QCURVE SMOOTH",
"287 137 LINE SMOOTH",
"299 137 OFFCURVE",
"319 143 OFFCURVE",
"330 148 QCURVE SMOOTH",
"340 153 OFFCURVE",
"348 166 QCURVE SMOOTH",
"367 198 OFFCURVE",
"350 221 QCURVE SMOOTH",
"345 228 OFFCURVE",
"353 228 QCURVE SMOOTH"
);
}
);
width = 533;
}
);
unicode = 0063;
},
{
glyphname = d;
layers = (
{
layerId = "616D4D79-28E0-48D4-A99A-6A264E58F352";
paths = (
{
nodes = (
"275 684 LINE SMOOTH",
"322 684 OFFCURVE",
"405 648 OFFCURVE",
"466 586 OFFCURVE",
"502 503 OFFCURVE",
"502 456 QCURVE SMOOTH",
"502 228 LINE SMOOTH",
"502 181 OFFCURVE",
"466 98 OFFCURVE",
"405 36 OFFCURVE",
"322 0 OFFCURVE",
"275 0 QCURVE SMOOTH",
"27 0 LINE SMOOTH",
"23 0 OFFCURVE",
"21 6 OFFCURVE",
"25 9 QCURVE SMOOTH",
"47 28 OFFCURVE",
"47 92 QCURVE SMOOTH",
"47 593 LINE SMOOTH",
"47 656 OFFCURVE",
"25 676 QCURVE",
"21 678 OFFCURVE",
"23 684 OFFCURVE",
"27 684 QCURVE SMOOTH"
);
},
{
nodes = (
"275 137 LINE SMOOTH",
"313 137 OFFCURVE",
"366 190 OFFCURVE",
"366 228 QCURVE SMOOTH",
"366 456 LINE SMOOTH",
"366 494 OFFCURVE",
"313 547 OFFCURVE",
"275 547 QCURVE SMOOTH",
"184 547 LINE",
"184 137 LINE"
);
}
);
width = 534;
}
);
unicode = 0064;
},
{
glyphname = e;
layers = (
{
layerId = "616D4D79-28E0-48D4-A99A-6A264E58F352";
paths = (
{
nodes = (
"500 91 LINE SMOOTH",
"500 26 OFFCURVE",
"522 7 QCURVE SMOOTH",
"525 5 OFFCURVE",
"524 0 OFFCURVE",
"519 0 QCURVE SMOOTH",
"25 0 LINE SMOOTH",
"20 0 OFFCURVE",
"19 5 OFFCURVE",
"22 7 QCURVE SMOOTH",
"44 26 OFFCURVE",
"44 91 QCURVE SMOOTH",
"44 592 LINE SMOOTH",
"44 678 OFFCURVE",
"3 683 QCURVE",
"519 683 LINE SMOOTH",
"524 683 OFFCURVE",
"525 677 OFFCURVE",
"522 675 QCURVE SMOOTH",
"500 656 OFFCURVE",
"500 592 QCURVE SMOOTH",
"500 526 LINE SMOOTH",
"500 522 OFFCURVE",
"494 520 OFFCURVE",
"492 524 QCURVE",
"473 546 OFFCURVE",
"409 546 QCURVE SMOOTH",
"181 546 LINE",
"181 410 LINE",
"318 410 LINE SMOOTH",
"382 410 OFFCURVE",
"401 432 QCURVE SMOOTH",
"403 435 OFFCURVE",
"409 433 OFFCURVE",
"409 429 QCURVE SMOOTH",
"409 253 LINE SMOOTH",
"409 249 OFFCURVE",
"403 247 OFFCURVE",
"401 250 QCURVE SMOOTH",
"381 273 OFFCURVE",
"318 273 QCURVE SMOOTH",
"181 273 LINE",
"181 136 LINE",
"409 136 LINE SMOOTH",
"472 136 OFFCURVE",
"492 159 QCURVE SMOOTH",
"494 162 OFFCURVE",
"500 160 OFFCURVE",
"500 156 QCURVE SMOOTH"
);
}
);
width = 545;
}
);
unicode = 0065;
},
{
glyphname = f;
layers = (
{
layerId = "616D4D79-28E0-48D4-A99A-6A264E58F352";
paths = (
{
nodes = (
"510 683 LINE SMOOTH",
"515 683 OFFCURVE",
"516 677 OFFCURVE",
"513 675 QCURVE SMOOTH",
"491 656 OFFCURVE",
"491 592 QCURVE SMOOTH",
"491 527 LINE SMOOTH",
"491 522 OFFCURVE",
"485 521 OFFCURVE",
"483 524 QCURVE SMOOTH",
"463 546 OFFCURVE",
"400 546 QCURVE SMOOTH",
"172 546 LINE",
"172 410 LINE",
"308 410 LINE SMOOTH",
"373 410 OFFCURVE",
"391 432 QCURVE SMOOTH",
"394 435 OFFCURVE",
"400 433 OFFCURVE",
"400 429 QCURVE SMOOTH",
"400 253 LINE SMOOTH",
"400 249 OFFCURVE",
"394 247 OFFCURVE",
"391 250 QCURVE SMOOTH",
"373 273 OFFCURVE",
"308 273 QCURVE SMOOTH",
"172 273 LINE",
"172 91 LINE SMOOTH",
"172 27 OFFCURVE",
"194 7 QCURVE SMOOTH",
"197 5 OFFCURVE",
"196 0 OFFCURVE",
"191 0 QCURVE SMOOTH",
"16 0 LINE SMOOTH",
"11 0 OFFCURVE",
"9 5 OFFCURVE",
"13 7 QCURVE",
"35 26 OFFCURVE",
"35 91 QCURVE SMOOTH",
"35 592 LINE SMOOTH",
"35 656 OFFCURVE",
"13 675 QCURVE",
"9 677 OFFCURVE",
"11 683 OFFCURVE",
"16 683 QCURVE SMOOTH"
);
}
);
width = 516;
}
);
unicode = 0066;
},
{
glyphname = g;
layers = (
{
layerId = "616D4D79-28E0-48D4-A99A-6A264E58F352";
paths = (
{
nodes = (
"514 364 LINE",
"514 228 LINE SMOOTH",
"514 181 OFFCURVE",
"478 98 OFFCURVE",
"416 36 OFFCURVE",
"333 0 OFFCURVE",
"286 0 QCURVE SMOOTH",
"240 0 LINE SMOOTH",
"193 0 OFFCURVE",
"110 36 OFFCURVE",
"49 98 OFFCURVE",
"13 181 OFFCURVE",
"13 228 QCURVE SMOOTH",
"13 456 LINE SMOOTH",
"13 503 OFFCURVE",
"49 586 OFFCURVE",
"110 647 OFFCURVE",
"193 683 OFFCURVE",
"240 683 QCURVE SMOOTH",
"286 683 LINE SMOOTH",
"333 683 OFFCURVE",
"416 647 OFFCURVE",
"478 586 OFFCURVE",
"514 503 OFFCURVE",
"514 456 QCURVE",
"352 456 LINE SMOOTH",
"344 456 OFFCURVE",
"349 463 QCURVE SMOOTH",
"367 485 OFFCURVE",
"347 518 QCURVE",
"341 530 OFFCURVE",
"329 536 QCURVE SMOOTH",
"309 547 OFFCURVE",
"286 547 QCURVE SMOOTH",
"240 547 LINE SMOOTH",
"202 547 OFFCURVE",
"149 494 OFFCURVE",
"149 456 QCURVE SMOOTH",
"149 228 LINE SMOOTH",
"149 190 OFFCURVE",
"202 137 OFFCURVE",
"240 137 QCURVE SMOOTH",
"286 137 LINE SMOOTH",
"311 137 OFFCURVE",
"329 148 QCURVE",
"352 160 OFFCURVE",
"377 202 OFFCURVE",
"377 228 QCURVE",
"214 228 LINE",
"214 274 LINE SMOOTH",
"214 338 OFFCURVE",
"192 357 QCURVE SMOOTH",
"189 359 OFFCURVE",
"190 364 OFFCURVE",
"195 364 QCURVE SMOOTH"
);
}
);
width = 529;
}
);
unicode = 0067;
},
{
glyphname = h;
layers = (
{
layerId = "616D4D79-28E0-48D4-A99A-6A264E58F352";
paths = (
{
nodes = (
"497 91 LINE SMOOTH",
"497 27 OFFCURVE",
"519 8 QCURVE SMOOTH",
"522 6 OFFCURVE",
"521 0 OFFCURVE",
"516 0 QCURVE SMOOTH",
"340 0 LINE SMOOTH",
"336 0 OFFCURVE",
"334 6 OFFCURVE",
"338 8 QCURVE",
"360 28 OFFCURVE",
"360 91 QCURVE SMOOTH",
"360 273 LINE",
"178 273 LINE",
"178 91 LINE SMOOTH",
"178 27 OFFCURVE",
"200 8 QCURVE SMOOTH",
"203 6 OFFCURVE",
"201 0 OFFCURVE",
"197 0 QCURVE SMOOTH",
"22 0 LINE SMOOTH",
"17 0 OFFCURVE",
"15 6 OFFCURVE",
"19 8 QCURVE",
"41 27 OFFCURVE",
"41 91 QCURVE SMOOTH",
"41 592 LINE SMOOTH",
"41 657 OFFCURVE",
"19 675 QCURVE SMOOTH",
"15 678 OFFCURVE",
"17 683 OFFCURVE",
"22 683 QCURVE SMOOTH",
"197 683 LINE SMOOTH",
"201 683 OFFCURVE",
"203 678 OFFCURVE",
"200 675 QCURVE SMOOTH",
"178 657 OFFCURVE",
"178 592 QCURVE SMOOTH",
"178 410 LINE",
"360 410 LINE",
"360 592 LINE SMOOTH",
"360 656 OFFCURVE",
"338 675 QCURVE SMOOTH",
"334 678 OFFCURVE",
"336 683 OFFCURVE",
"340 683 QCURVE SMOOTH",
"516 683 LINE SMOOTH",
"527 683 OFFCURVE",
"519 675 QCURVE",
"497 657 OFFCURVE",
"497 592 QCURVE SMOOTH"
);
}
);
width = 541;
}
);
unicode = 0068;
},
{
glyphname = i;
layers = (
{
layerId = "616D4D79-28E0-48D4-A99A-6A264E58F352";
paths = (
{
nodes = (
"186 91 LINE SMOOTH",
"186 27 OFFCURVE",
"209 8 QCURVE SMOOTH",
"211 6 OFFCURVE",
"210 0 OFFCURVE",
"205 0 QCURVE SMOOTH",
"30 0 LINE SMOOTH",
"25 0 OFFCURVE",
"24 6 OFFCURVE",
"27 8 QCURVE SMOOTH",
"49 27 OFFCURVE",
"49 91 QCURVE SMOOTH",
"49 592 LINE SMOOTH",
"49 657 OFFCURVE",
"27 675 QCURVE",
"19 683 OFFCURVE",
"30 683 QCURVE SMOOTH",
"205 683 LINE SMOOTH",
"215 683 OFFCURVE",
"209 675 QCURVE",
"186 658 OFFCURVE",
"186 592 QCURVE SMOOTH"
);
}
);
width = 231;
}
);
unicode = 0069;
},
{
glyphname = j;
layers = (
{
layerId = "616D4D79-28E0-48D4-A99A-6A264E58F352";
paths = (
{
nodes = (
"515 683 LINE SMOOTH",
"519 683 OFFCURVE",
"521 677 OFFCURVE",
"518 675 QCURVE SMOOTH",
"495 655 OFFCURVE",
"495 592 QCURVE SMOOTH",
"495 227 LINE SMOOTH",
"495 180 OFFCURVE",
"459 97 OFFCURVE",
"397 36 OFFCURVE",
"314 0 OFFCURVE",
"267 0 QCURVE SMOOTH",
"220 0 OFFCURVE",
"137 36 OFFCURVE",
"75 97 OFFCURVE",
"39 180 OFFCURVE",
"39 227 QCURVE SMOOTH",
"39 292 OFFCURVE",
"17 310 QCURVE SMOOTH",
"14 313 OFFCURVE",
"16 319 OFFCURVE",
"20 319 QCURVE SMOOTH",
"196 319 LINE SMOOTH",
"200 319 OFFCURVE",
"202 313 OFFCURVE",
"199 310 QCURVE SMOOTH",
"176 292 OFFCURVE",
"176 227 QCURVE SMOOTH",
"176 189 OFFCURVE",
"229 136 OFFCURVE",
"267 136 QCURVE SMOOTH",
"286 136 OFFCURVE",
"320 150 OFFCURVE",
"345 175 OFFCURVE",
"359 208 OFFCURVE",
"359 227 QCURVE SMOOTH",
"359 546 LINE",
"131 546 LINE SMOOTH",
"66 546 OFFCURVE",
"48 524 QCURVE SMOOTH",
"45 521 OFFCURVE",
"39 522 OFFCURVE",
"39 527 QCURVE SMOOTH",
"39 592 LINE SMOOTH",
"39 656 OFFCURVE",
"17 675 QCURVE SMOOTH",
"14 677 OFFCURVE",
"16 683 OFFCURVE",
"20 683 QCURVE SMOOTH"
);
}
);
width = 521;
}
);
unicode = 006A;
},
{
glyphname = k;
layers = (
{
layerId = "616D4D79-28E0-48D4-A99A-6A264E58F352";
paths = (
{
nodes = (
"465 91 LINE SMOOTH",
"465 28 OFFCURVE",
"488 8 QCURVE SMOOTH",
"491 6 OFFCURVE",
"489 0 OFFCURVE",
"485 0 QCURVE SMOOTH",
"309 0 LINE SMOOTH",
"304 0 OFFCURVE",
"303 6 OFFCURVE",
"306 8 QCURVE SMOOTH",
"329 28 OFFCURVE",
"329 91 QCURVE SMOOTH",
"329 159 LINE SMOOTH",
"329 187 OFFCURVE",
"307 237 OFFCURVE",
"270 275 OFFCURVE",
"220 296 OFFCURVE",
"192 296 QCURVE SMOOTH",
"169 296 LINE",
"169 91 LINE SMOOTH",
"169 28 OFFCURVE",
"191 8 QCURVE",
"195 6 OFFCURVE",
"193 0 OFFCURVE",
"189 0 QCURVE SMOOTH",
"13 0 LINE SMOOTH",
"8 0 OFFCURVE",
"7 6 OFFCURVE",
"10 8 QCURVE SMOOTH",
"32 27 OFFCURVE",
"32 91 QCURVE SMOOTH",
"32 592 LINE SMOOTH",
"32 657 OFFCURVE",
"10 675 QCURVE",
"2 683 OFFCURVE",
"13 683 QCURVE SMOOTH",
"189 683 LINE SMOOTH",
"193 683 OFFCURVE",
"195 678 OFFCURVE",
"191 675 QCURVE SMOOTH",
"169 656 OFFCURVE",
"169 592 QCURVE SMOOTH",
"169 433 LINE",
"192 433 LINE SMOOTH",
"220 433 OFFCURVE",
"270 454 OFFCURVE",
"307 491 OFFCURVE",
"329 541 OFFCURVE",
"329 569 QCURVE SMOOTH",
"329 592 LINE SMOOTH",
"329 657 OFFCURVE",
"306 675 QCURVE",
"298 683 OFFCURVE",
"309 683 QCURVE SMOOTH",
"485 683 LINE SMOOTH",
"489 683 OFFCURVE",
"491 678 OFFCURVE",
"488 675 QCURVE SMOOTH",
"465 657 OFFCURVE",
"465 592 QCURVE SMOOTH",
"465 569 LINE SMOOTH",
"465 510 OFFCURVE",
"417 403 OFFCURVE",
"372 365 QCURVE",
"417 325 OFFCURVE",
"465 219 OFFCURVE",
"465 159 QCURVE SMOOTH"
);
}
);
width = 500;
}
);
unicode = 006B;
},
{
glyphname = l;
layers = (
{
layerId = "616D4D79-28E0-48D4-A99A-6A264E58F352";
paths = (
{
nodes = (
"429 6 OFFCURVE",
"428 0 OFFCURVE",
"423 0 QCURVE SMOOTH",
"19 0 LINE",
"9 2 OFFCURVE",
"17 8 QCURVE SMOOTH",
"39 27 OFFCURVE",
"39 91 QCURVE SMOOTH",
"39 592 LINE SMOOTH",
"39 656 OFFCURVE",
"17 675 QCURVE SMOOTH",
"9 683 OFFCURVE",
"20 683 QCURVE SMOOTH",
"195 683 LINE SMOOTH",
"200 683 OFFCURVE",
"202 678 OFFCURVE",
"198 675 QCURVE SMOOTH",
"176 656 OFFCURVE",
"176 592 QCURVE SMOOTH",
"176 137 LINE",
"312 137 LINE SMOOTH",
"377 137 OFFCURVE",
"395 159 QCURVE SMOOTH",
"398 162 OFFCURVE",
"404 161 OFFCURVE",
"404 156 QCURVE SMOOTH",
"404 91 LINE SMOOTH",
"404 27 OFFCURVE",
"426 8 QCURVE SMOOTH"
);
}
);
width = 445;
}
);
unicode = 006C;
},
{
glyphname = m;
layers = (
{
layerId = "616D4D79-28E0-48D4-A99A-6A264E58F352";
paths = (
{
nodes = (
"628 91 LINE SMOOTH",
"628 28 OFFCURVE",
"651 8 QCURVE SMOOTH",
"659 0 OFFCURVE",
"648 0 QCURVE SMOOTH",
"472 0 LINE SMOOTH",
"468 0 OFFCURVE",
"466 5 OFFCURVE",
"469 8 QCURVE SMOOTH",
"492 28 OFFCURVE",
"492 91 QCURVE SMOOTH",
"492 268 LINE",
"413 76 LINE SMOOTH",
"394 31 OFFCURVE",
"405 7 QCURVE SMOOTH",
"408 0 OFFCURVE",
"401 0 QCURVE SMOOTH",
"265 0 LINE SMOOTH",
"257 0 OFFCURVE",
"261 7 QCURVE SMOOTH",
"273 29 OFFCURVE",
"253 76 QCURVE SMOOTH",
"173 270 LINE",
"173 91 LINE SMOOTH",
"173 27 OFFCURVE",
"196 8 QCURVE SMOOTH",
"199 5 OFFCURVE",
"197 0 OFFCURVE",
"193 0 QCURVE SMOOTH",
"17 0 LINE SMOOTH",
"13 0 OFFCURVE",
"11 5 OFFCURVE",
"14 8 QCURVE SMOOTH",
"36 27 OFFCURVE",
"36 91 QCURVE SMOOTH",
"36 592 LINE SMOOTH",
"36 656 OFFCURVE",
"14 675 QCURVE SMOOTH",
"11 677 OFFCURVE",
"13 683 OFFCURVE",
"17 683 QCURVE SMOOTH",
"193 683 LINE SMOOTH",
"197 683 OFFCURVE",
"199 677 OFFCURVE",
"196 675 QCURVE SMOOTH",
"183 665 OFFCURVE",
"177 640 QCURVE SMOOTH",
"174 626 OFFCURVE",
"180 613 QCURVE",
"332 242 LINE",
"485 613 LINE SMOOTH",
"491 627 OFFCURVE",
"487 640 QCURVE",
"483 664 OFFCURVE",
"469 675 QCURVE SMOOTH",
"466 677 OFFCURVE",
"468 683 OFFCURVE",
"472 683 QCURVE SMOOTH",
"648 683 LINE SMOOTH",
"653 683 OFFCURVE",
"654 677 OFFCURVE",
"651 675 QCURVE SMOOTH",
"628 655 OFFCURVE",
"628 592 QCURVE SMOOTH"
);
}
);
width = 665;
}
);
unicode = 006D;
},
{
glyphname = n;
layers = (
{
layerId = "616D4D79-28E0-48D4-A99A-6A264E58F352";
paths = (
{
nodes = (
"493 91 LINE SMOOTH",
"493 28 OFFCURVE",
"516 8 QCURVE SMOOTH",
"519 6 OFFCURVE",
"517 0 OFFCURVE",
"513 0 QCURVE SMOOTH",
"337 0 LINE SMOOTH",
"333 0 OFFCURVE",
"331 6 OFFCURVE",
"334 8 QCURVE SMOOTH",
"352 23 OFFCURVE",
"355 66 QCURVE",
"357 84 OFFCURVE",
"350 113 OFFCURVE",
"339 127 QCURVE",
"174 357 LINE",
"174 91 LINE SMOOTH",
"174 28 OFFCURVE",
"197 8 QCURVE SMOOTH",
"200 6 OFFCURVE",
"198 0 OFFCURVE",
"194 0 QCURVE SMOOTH",
"18 0 LINE SMOOTH",
"14 0 OFFCURVE",
"12 6 OFFCURVE",
"15 8 QCURVE SMOOTH",
"38 28 OFFCURVE",
"38 91 QCURVE SMOOTH",
"38 592 LINE SMOOTH",
"38 657 OFFCURVE",
"15 675 QCURVE SMOOTH",
"12 678 OFFCURVE",
"14 683 OFFCURVE",
"18 683 QCURVE SMOOTH",
"194 683 LINE SMOOTH",
"198 683 OFFCURVE",
"200 678 OFFCURVE",
"197 675 QCURVE SMOOTH",
"184 665 OFFCURVE",
"178 637 QCURVE SMOOTH",
"174 616 OFFCURVE",
"181 583 OFFCURVE",
"193 566 QCURVE SMOOTH",
"357 337 LINE",
"357 592 LINE SMOOTH",
"357 657 OFFCURVE",
"334 675 QCURVE SMOOTH",
"331 678 OFFCURVE",
"333 683 OFFCURVE",
"337 683 QCURVE SMOOTH",
"513 683 LINE SMOOTH",
"517 683 OFFCURVE",
"519 678 OFFCURVE",
"516 675 QCURVE SMOOTH",
"493 657 OFFCURVE",
"493 592 QCURVE SMOOTH"
);
}
);
width = 538;
}
);
unicode = 006E;
},
{
glyphname = p;
layers = (
{
layerId = "616D4D79-28E0-48D4-A99A-6A264E58F352";
paths = (
{
nodes = (
"268 683 LINE SMOOTH",
"320 683 OFFCURVE",
"406 643 OFFCURVE",
"465 578 OFFCURVE",
"497 494 OFFCURVE",
"496 405 OFFCURVE",
"458 319 OFFCURVE",
"419 285 QCURVE SMOOTH",
"385 255 OFFCURVE",
"314 228 OFFCURVE",
"268 228 QCURVE SMOOTH",
"177 228 LINE",
"177 91 LINE SMOOTH",
"177 28 OFFCURVE",
"200 8 QCURVE SMOOTH",
"203 6 OFFCURVE",
"201 0 OFFCURVE",
"197 0 QCURVE SMOOTH",
"21 0 LINE SMOOTH",
"17 0 OFFCURVE",
"15 6 OFFCURVE",
"18 8 QCURVE SMOOTH",
"41 28 OFFCURVE",
"41 91 QCURVE SMOOTH",
"41 592 LINE SMOOTH",
"41 657 OFFCURVE",
"18 675 QCURVE SMOOTH",
"15 678 OFFCURVE",
"17 683 OFFCURVE",
"21 683 QCURVE SMOOTH"
);
},
{
nodes = (
"268 365 LINE SMOOTH",
"306 365 OFFCURVE",
"359 418 OFFCURVE",
"359 456 QCURVE SMOOTH",
"359 475 OFFCURVE",
"345 508 OFFCURVE",
"320 533 OFFCURVE",
"287 547 OFFCURVE",
"268 547 QCURVE SMOOTH",
"177 547 LINE",
"177 365 LINE"
);
}
);
width = 510;
}
);
unicode = 0070;
},
{
glyphname = q;
layers = (
{
layerId = "616D4D79-28E0-48D4-A99A-6A264E58F352";
paths = (
{
nodes = (
"515 228 LINE SMOOTH",
"515 180 OFFCURVE",
"477 93 OFFCURVE",
"442 61 QCURVE",
"469 23 OFFCURVE",
"495 9 QCURVE SMOOTH",
"498 7 OFFCURVE",
"497 0 OFFCURVE",
"492 0 QCURVE SMOOTH",
"333 0 LINE",
"330 5 LINE",
"325 12 LINE",
"236 137 LINE",
"176 223 LINE",
"346 223 LINE SMOOTH",
"353 223 OFFCURVE",
"350 217 QCURVE",
"346 198 OFFCURVE",
"354 185 QCURVE",
"361 175 LINE",
"378 199 OFFCURVE",
"378 228 QCURVE SMOOTH",
"378 456 LINE SMOOTH",
"378 494 OFFCURVE",
"325 547 OFFCURVE",
"287 547 QCURVE SMOOTH",
"242 547 LINE SMOOTH",
"223 547 OFFCURVE",
"190 533 OFFCURVE",
"165 508 OFFCURVE",
"151 475 OFFCURVE",
"151 456 QCURVE SMOOTH",
"151 223 LINE",
"153 196 OFFCURVE",
"184 152 OFFCURVE",
"210 143 QCURVE",
"310 2 LINE",
"305 1 OFFCURVE",
"293 0 OFFCURVE",
"287 0 QCURVE SMOOTH",
"242 0 LINE SMOOTH",
"195 0 OFFCURVE",
"112 36 OFFCURVE",
"50 98 OFFCURVE",
"14 181 OFFCURVE",
"14 228 QCURVE SMOOTH",
"14 456 LINE SMOOTH",
"14 503 OFFCURVE",
"50 586 OFFCURVE",
"112 648 OFFCURVE",
"195 684 OFFCURVE",
"242 684 QCURVE SMOOTH",
"287 684 LINE SMOOTH",
"334 684 OFFCURVE",
"417 648 OFFCURVE",
"479 586 OFFCURVE",
"515 503 OFFCURVE",
"515 456 QCURVE SMOOTH"
);
}
);
width = 531;
}
);
unicode = 0071;
},
{
glyphname = s;
layers = (
{
layerId = "616D4D79-28E0-48D4-A99A-6A264E58F352";
paths = (
{
nodes = (
"318 409 LINE SMOOTH",
"361 409 OFFCURVE",
"435 377 OFFCURVE",
"491 321 OFFCURVE",
"523 247 OFFCURVE",
"523 204 QCURVE SMOOTH",
"523 162 OFFCURVE",
"491 87 OFFCURVE",
"435 32 OFFCURVE",
"361 0 OFFCURVE",
"318 0 QCURVE SMOOTH",
"227 0 LINE SMOOTH",
"185 0 OFFCURVE",
"110 32 OFFCURVE",
"55 87 OFFCURVE",
"23 162 OFFCURVE",
"23 204 QCURVE",
"178 204 LINE SMOOTH",
"186 204 OFFCURVE",
"183 198 QCURVE SMOOTH",
"172 178 OFFCURVE",
"190 148 OFFCURVE",
"200 142 QCURVE",
"213 136 OFFCURVE",
"227 136 QCURVE SMOOTH",
"318 136 LINE SMOOTH",
"347 136 OFFCURVE",
"387 176 OFFCURVE",
"387 204 QCURVE SMOOTH",
"387 233 OFFCURVE",
"347 273 OFFCURVE",
"318 273 QCURVE SMOOTH",
"227 273 LINE SMOOTH",
"185 273 OFFCURVE",
"110 305 OFFCURVE",
"55 361 OFFCURVE",
"23 436 OFFCURVE",
"23 478 QCURVE SMOOTH",
"23 520 OFFCURVE",
"55 595 OFFCURVE",
"110 651 OFFCURVE",
"185 683 OFFCURVE",
"227 683 QCURVE SMOOTH",
"318 683 LINE SMOOTH",
"361 683 OFFCURVE",
"435 651 OFFCURVE",
"491 595 OFFCURVE",
"523 520 OFFCURVE",
"523 478 QCURVE",
"367 478 LINE SMOOTH",
"359 478 OFFCURVE",
"363 484 QCURVE SMOOTH",
"373 503 OFFCURVE",
"356 535 OFFCURVE",
"346 540 QCURVE SMOOTH",
"332 546 OFFCURVE",
"318 546 QCURVE SMOOTH",
"227 546 LINE SMOOTH",
"199 546 OFFCURVE",
"159 506 OFFCURVE",
"159 478 QCURVE SMOOTH",
"159 449 OFFCURVE",
"199 409 OFFCURVE",
"227 409 QCURVE SMOOTH"
);
}
);
width = 544;
}
);
unicode = 0073;
},
{
glyphname = t;
layers = (
{
layerId = "616D4D79-28E0-48D4-A99A-6A264E58F352";
paths = (
{
nodes = (
"512 683 LINE SMOOTH",
"516 683 OFFCURVE",
"518 678 OFFCURVE",
"514 675 QCURVE SMOOTH",
"509 670 OFFCURVE",
"501 654 OFFCURVE",
"495 625 OFFCURVE",
"492 580 OFFCURVE",
"492 547 QCURVE SMOOTH",
"492 527 LINE SMOOTH",
"492 523 OFFCURVE",
"486 521 OFFCURVE",
"484 524 QCURVE SMOOTH",
"464 547 OFFCURVE",
"401 547 QCURVE SMOOTH",
"332 547 LINE",
"332 91 LINE SMOOTH",
"332 27 OFFCURVE",
"354 8 QCURVE SMOOTH",
"357 6 OFFCURVE",
"356 0 OFFCURVE",
"351 0 QCURVE SMOOTH",
"175 0 LINE SMOOTH",
"171 0 OFFCURVE",
"169 6 OFFCURVE",
"173 8 QCURVE",
"195 28 OFFCURVE",
"195 91 QCURVE SMOOTH",
"195 547 LINE",
"126 547 LINE SMOOTH",
"61 547 OFFCURVE",
"43 524 QCURVE SMOOTH",
"40 521 OFFCURVE",
"35 523 OFFCURVE",
"35 527 QCURVE SMOOTH",
"35 592 LINE SMOOTH",
"35 655 OFFCURVE",
"12 675 QCURVE SMOOTH",
"9 678 OFFCURVE",
"11 683 OFFCURVE",
"15 683 QCURVE SMOOTH"
);
}
);
width = 530;
}
);
unicode = 0074;
},
{
glyphname = u;
layers = (
{
layerId = "616D4D79-28E0-48D4-A99A-6A264E58F352";
paths = (
{
nodes = (
"512 683 LINE SMOOTH",
"516 683 OFFCURVE",
"518 678 OFFCURVE",
"514 675 QCURVE SMOOTH",
"492 656 OFFCURVE",
"492 592 QCURVE SMOOTH",
"492 228 LINE SMOOTH",
"492 181 OFFCURVE",
"456 98 OFFCURVE",
"394 36 OFFCURVE",
"311 0 OFFCURVE",
"264 0 QCURVE SMOOTH",
"217 0 OFFCURVE",
"134 36 OFFCURVE",
"72 98 OFFCURVE",
"37 181 OFFCURVE",
"37 228 QCURVE SMOOTH",
"37 592 LINE SMOOTH",
"37 657 OFFCURVE",
"14 675 QCURVE SMOOTH",
"11 678 OFFCURVE",
"13 683 OFFCURVE",
"17 683 QCURVE SMOOTH",
"193 683 LINE SMOOTH",
"197 683 OFFCURVE",
"199 678 OFFCURVE",
"196 675 QCURVE SMOOTH",
"173 657 OFFCURVE",
"173 592 QCURVE SMOOTH",
"173 228 LINE SMOOTH",
"173 209 OFFCURVE",
"187 176 OFFCURVE",
"212 151 OFFCURVE",
"245 137 OFFCURVE",
"264 137 QCURVE SMOOTH",
"302 137 OFFCURVE",
"355 190 OFFCURVE",
"355 228 QCURVE SMOOTH",
"355 592 LINE SMOOTH",
"355 657 OFFCURVE",
"333 675 QCURVE",
"325 683 OFFCURVE",
"336 683 QCURVE SMOOTH"
);
}
);
width = 529;
}
);
unicode = 0075;
},
{
glyphname = v;
layers = (
{
layerId = "616D4D79-28E0-48D4-A99A-6A264E58F352";
paths = (
{
nodes = (
"516 684 LINE SMOOTH",
"520 684 OFFCURVE",
"522 678 OFFCURVE",
"519 676 QCURVE SMOOTH",
"496 657 OFFCURVE",
"496 593 QCURVE SMOOTH",
"496 375 LINE SMOOTH",
"496 292 OFFCURVE",
"463 214 QCURVE SMOOTH",
"411 92 LINE",
"397 27 OFFCURVE",
"417 8 QCURVE SMOOTH",
"420 6 OFFCURVE",
"419 0 OFFCURVE",
"414 0 QCURVE SMOOTH",
"122 0 LINE SMOOTH",
"118 0 OFFCURVE",
"117 6 OFFCURVE",
"119 8 QCURVE SMOOTH",
"138 27 OFFCURVE",
"126 92 QCURVE",
"74 214 LINE SMOOTH",
"57 253 OFFCURVE",
"41 332 OFFCURVE",
"41 375 QCURVE SMOOTH",
"41 593 LINE SMOOTH",
"41 656 OFFCURVE",
"18 676 QCURVE SMOOTH",
"15 678 OFFCURVE",
"17 684 OFFCURVE",
"21 684 QCURVE SMOOTH",
"197 684 LINE SMOOTH",
"201 684 OFFCURVE",
"203 678 OFFCURVE",
"200 676 QCURVE SMOOTH",
"177 656 OFFCURVE",
"177 593 QCURVE SMOOTH",
"177 375 LINE SMOOTH",
"177 320 OFFCURVE",
"199 267 QCURVE SMOOTH",
"268 107 LINE",
"337 267 LINE SMOOTH",
"359 320 OFFCURVE",
"359 375 QCURVE SMOOTH",
"359 593 LINE SMOOTH",
"359 657 OFFCURVE",
"337 676 QCURVE SMOOTH",
"334 678 OFFCURVE",
"335 684 OFFCURVE",
"340 684 QCURVE SMOOTH"
);
}
);
width = 531;
}
);
unicode = 0076;
},
{
glyphname = w;
layers = (
{
layerId = "616D4D79-28E0-48D4-A99A-6A264E58F352";
paths = (
{
nodes = (
"830 683 LINE SMOOTH",
"834 683 OFFCURVE",
"836 677 OFFCURVE",
"833 675 QCURVE SMOOTH",
"811 656 OFFCURVE",
"811 592 QCURVE SMOOTH",
"811 375 LINE SMOOTH",
"811 291 OFFCURVE",
"777 213 QCURVE SMOOTH",
"725 92 LINE",
"713 26 OFFCURVE",
"732 8 QCURVE SMOOTH",
"735 5 OFFCURVE",
"733 0 OFFCURVE",
"729 0 QCURVE SMOOTH",
"454 0 LINE SMOOTH",
"447 0 OFFCURVE",
"449 6 QCURVE SMOOTH",
"461 40 OFFCURVE",
"440 92 QCURVE",
"423 131 LINE",
"407 92 LINE SMOOTH",
"386 40 OFFCURVE",
"398 6 QCURVE",
"399 0 OFFCURVE",
"394 0 QCURVE SMOOTH",
"118 0 LINE SMOOTH",
"114 0 OFFCURVE",
"112 5 OFFCURVE",
"115 8 QCURVE SMOOTH",
"134 26 OFFCURVE",
"121 92 QCURVE",
"103 135 OFFCURVE",
"76 196 OFFCURVE",
"57 245 OFFCURVE",
"45 288 OFFCURVE",
"38 340 OFFCURVE",
"36 407 OFFCURVE",
"36 455 QCURVE SMOOTH",
"36 592 LINE SMOOTH",
"36 656 OFFCURVE",
"14 675 QCURVE SMOOTH",
"11 677 OFFCURVE",
"12 683 OFFCURVE",
"17 683 QCURVE SMOOTH",
"193 683 LINE SMOOTH",
"197 683 OFFCURVE",
"198 677 OFFCURVE",
"195 675 QCURVE SMOOTH",
"173 655 OFFCURVE",
"173 592 QCURVE SMOOTH",
"173 375 LINE SMOOTH",
"173 318 OFFCURVE",
"195 267 QCURVE SMOOTH",
"264 106 LINE",
"333 267 LINE SMOOTH",
"355 318 OFFCURVE",
"355 375 QCURVE SMOOTH",
"355 592 LINE SMOOTH",
"355 656 OFFCURVE",
"333 675 QCURVE SMOOTH",
"330 677 OFFCURVE",
"331 683 OFFCURVE",
"336 683 QCURVE SMOOTH",
"512 683 LINE SMOOTH",
"516 683 OFFCURVE",
"518 677 OFFCURVE",
"514 675 QCURVE",
"492 656 OFFCURVE",
"492 592 QCURVE SMOOTH",
"492 375 LINE SMOOTH",
"492 318 OFFCURVE",
"514 267 QCURVE SMOOTH",
"583 106 LINE",
"652 267 LINE SMOOTH",
"674 318 OFFCURVE",
"674 375 QCURVE SMOOTH",
"674 592 LINE SMOOTH",
"674 656 OFFCURVE",
"651 675 QCURVE SMOOTH",
"648 677 OFFCURVE",
"650 683 OFFCURVE",
"654 683 QCURVE SMOOTH"
);
}
);
width = 842;
}
);
unicode = 0077;
},
{
glyphname = x;
layers = (
{
layerId = "616D4D79-28E0-48D4-A99A-6A264E58F352";
paths = (
{
nodes = (
"480 91 LINE SMOOTH",
"480 27 OFFCURVE",
"502 8 QCURVE SMOOTH",
"505 6 OFFCURVE",
"504 0 OFFCURVE",
"499 0 QCURVE SMOOTH",
"323 0 LINE SMOOTH",
"319 0 OFFCURVE",
"317 6 OFFCURVE",
"321 8 QCURVE",
"343 27 OFFCURVE",
"343 91 QCURVE SMOOTH",
"343 159 LINE SMOOTH",
"343 201 OFFCURVE",
"298 269 OFFCURVE",
"260 285 QCURVE",
"222 269 OFFCURVE",
"177 201 OFFCURVE",
"177 159 QCURVE SMOOTH",
"177 91 LINE SMOOTH",
"177 27 OFFCURVE",
"199 8 QCURVE SMOOTH",
"202 6 OFFCURVE",
"201 0 OFFCURVE",
"196 0 QCURVE SMOOTH",
"20 0 LINE SMOOTH",
"16 0 OFFCURVE",
"14 6 OFFCURVE",
"18 8 QCURVE",
"40 28 OFFCURVE",
"40 91 QCURVE SMOOTH",
"40 159 LINE SMOOTH",
"40 219 OFFCURVE",
"88 326 OFFCURVE",
"132 364 QCURVE",
"88 403 OFFCURVE",
"40 510 OFFCURVE",
"40 569 QCURVE SMOOTH",
"40 592 LINE SMOOTH",
"40 655 OFFCURVE",
"18 675 QCURVE",
"14 677 OFFCURVE",
"16 683 OFFCURVE",
"20 683 QCURVE SMOOTH",
"196 683 LINE SMOOTH",
"201 683 OFFCURVE",
"202 677 OFFCURVE",
"199 675 QCURVE SMOOTH",
"177 656 OFFCURVE",
"177 592 QCURVE SMOOTH",
"177 569 LINE SMOOTH",
"177 527 OFFCURVE",
"222 460 OFFCURVE",
"260 443 QCURVE",
"298 460 OFFCURVE",
"343 527 OFFCURVE",
"343 569 QCURVE SMOOTH",
"343 592 LINE SMOOTH",
"343 656 OFFCURVE",
"321 675 QCURVE",
"317 677 OFFCURVE",
"319 683 OFFCURVE",
"323 683 QCURVE SMOOTH",
"499 683 LINE SMOOTH",
"504 683 OFFCURVE",
"505 677 OFFCURVE",
"502 675 QCURVE SMOOTH",
"480 656 OFFCURVE",
"480 592 QCURVE SMOOTH",
"480 569 LINE SMOOTH",
"480 510 OFFCURVE",
"432 403 OFFCURVE",
"387 364 QCURVE",
"432 326 OFFCURVE",
"480 219 OFFCURVE",
"480 159 QCURVE SMOOTH"
);
}
);
width = 526;
}
);
unicode = 0078;
},
{
glyphname = y;
layers = (
{
layerId = "616D4D79-28E0-48D4-A99A-6A264E58F352";
paths = (
{
nodes = (
"510 684 LINE SMOOTH",
"514 684 OFFCURVE",
"516 678 OFFCURVE",
"513 675 QCURVE SMOOTH",
"490 658 OFFCURVE",
"490 592 QCURVE SMOOTH",
"490 502 LINE SMOOTH",
"490 464 OFFCURVE",
"467 395 OFFCURVE",
"425 338 OFFCURVE",
"366 295 OFFCURVE",
"331 284 QCURVE",
"331 91 LINE SMOOTH",
"331 27 OFFCURVE",
"353 8 QCURVE SMOOTH",
"356 6 OFFCURVE",
"355 0 OFFCURVE",
"350 0 QCURVE SMOOTH",
"174 0 LINE SMOOTH",
"170 0 OFFCURVE",
"169 6 OFFCURVE",
"172 8 QCURVE SMOOTH",
"194 27 OFFCURVE",
"194 91 QCURVE SMOOTH",
"194 284 LINE",
"158 295 OFFCURVE",
"100 338 OFFCURVE",
"58 395 OFFCURVE",
"35 464 OFFCURVE",
"35 502 QCURVE SMOOTH",
"35 592 LINE SMOOTH",
"35 657 OFFCURVE",
"12 675 QCURVE SMOOTH",
"9 678 OFFCURVE",
"11 684 OFFCURVE",
"15 684 QCURVE SMOOTH",
"191 684 LINE SMOOTH",
"195 684 OFFCURVE",
"197 678 OFFCURVE",
"194 675 QCURVE SMOOTH",
"171 657 OFFCURVE",
"171 592 QCURVE SMOOTH",
"171 502 LINE SMOOTH",
"171 483 OFFCURVE",
"185 449 OFFCURVE",
"210 424 OFFCURVE",
"244 410 OFFCURVE",
"263 410 QCURVE SMOOTH",
"282 410 OFFCURVE",
"315 424 OFFCURVE",
"339 449 OFFCURVE",
"353 483 OFFCURVE",
"353 502 QCURVE SMOOTH",
"353 592 LINE SMOOTH",
"353 657 OFFCURVE",
"331 675 QCURVE SMOOTH",
"328 678 OFFCURVE",
"330 684 OFFCURVE",
"334 684 QCURVE SMOOTH"
);
}
);
width = 526;
}
);
unicode = 0079;
},
{
glyphname = z;
layers = (
{
layerId = "616D4D79-28E0-48D4-A99A-6A264E58F352";
paths = (
{
nodes = (
"510 91 LINE SMOOTH",
"510 26 OFFCURVE",
"533 8 QCURVE SMOOTH",
"536 5 OFFCURVE",
"534 0 OFFCURVE",
"530 0 QCURVE SMOOTH",
"9 0 LINE",
"321 546 LINE",
"146 546 LINE SMOOTH",
"83 546 OFFCURVE",
"63 524 QCURVE SMOOTH",
"60 521 OFFCURVE",
"55 522 OFFCURVE",
"55 527 QCURVE SMOOTH",
"55 592 LINE SMOOTH",
"55 655 OFFCURVE",
"32 675 QCURVE SMOOTH",
"29 677 OFFCURVE",
"31 683 OFFCURVE",
"35 683 QCURVE SMOOTH",
"556 683 LINE",
"244 136 LINE",
"419 136 LINE SMOOTH",
"482 136 OFFCURVE",
"502 159 QCURVE SMOOTH",
"505 162 OFFCURVE",
"510 160 OFFCURVE",
"510 156 QCURVE SMOOTH"
);
}
);
width = 563;
}
);
unicode = 007A;
},
{
glyphname = six;
layers = (
{
layerId = "616D4D79-28E0-48D4-A99A-6A264E58F352";
paths = (
{
nodes = (
"485 364 OFFCURVE",
"523 278 OFFCURVE",
"524 189 OFFCURVE",
"492 105 OFFCURVE",
"433 40 OFFCURVE",
"347 0 OFFCURVE",
"295 0 QCURVE SMOOTH",
"250 0 LINE SMOOTH",
"203 0 OFFCURVE",
"120 36 OFFCURVE",
"58 97 OFFCURVE",
"22 180 OFFCURVE",
"22 227 QCURVE SMOOTH",
"22 455 LINE SMOOTH",
"22 502 OFFCURVE",
"58 585 OFFCURVE",
"120 647 OFFCURVE",
"203 683 OFFCURVE",
"250 683 QCURVE SMOOTH",
"298 683 LINE SMOOTH",
"340 683 OFFCURVE",
"416 654 OFFCURVE",
"476 603 OFFCURVE",
"516 533 OFFCURVE",
"523 492 QCURVE",
"362 492 LINE SMOOTH",
"356 492 OFFCURVE",
"358 498 QCURVE SMOOTH",
"361 506 OFFCURVE",
"350 524 OFFCURVE",
"341 531 QCURVE SMOOTH",
"323 546 OFFCURVE",
"298 546 QCURVE SMOOTH",
"250 546 LINE SMOOTH",
"212 546 OFFCURVE",
"159 493 OFFCURVE",
"159 455 QCURVE",
"295 455 LINE SMOOTH",
"341 455 OFFCURVE",
"412 428 OFFCURVE",
"446 398 QCURVE SMOOTH"
);
},
{
nodes = (
"295 136 LINE SMOOTH",
"314 136 OFFCURVE",
"347 150 OFFCURVE",
"372 175 OFFCURVE",
"386 208 OFFCURVE",
"386 227 QCURVE SMOOTH",
"386 246 OFFCURVE",
"372 280 OFFCURVE",
"347 305 OFFCURVE",
"314 319 OFFCURVE",
"295 319 QCURVE SMOOTH",
"159 319 LINE",
"159 227 LINE SMOOTH",
"159 208 OFFCURVE",
"173 175 OFFCURVE",
"198 150 OFFCURVE",
"231 136 OFFCURVE",
"250 136 QCURVE SMOOTH"
);
}
);
width = 546;
}
);
unicode = 0036;
},
{
glyphname = seven;
layers = (
{
layerId = "616D4D79-28E0-48D4-A99A-6A264E58F352";
paths = (
{
nodes = (
"318 118 LINE",
"286 31 OFFCURVE",
"310 8 QCURVE SMOOTH",
"313 6 OFFCURVE",
"311 0 OFFCURVE",
"307 0 QCURVE SMOOTH",
"127 0 LINE",
"336 547 LINE",
"145 547 LINE SMOOTH",
"89 547 OFFCURVE",
"64 516 QCURVE SMOOTH",
"62 513 OFFCURVE",
"57 514 OFFCURVE",
"56 517 QCURVE SMOOTH",
"7 683 LINE",
"535 683 LINE"
);
}
);
width = 543;
}
);
unicode = 0037;
},
{
glyphname = N;
layers = (
{
layerId = "616D4D79-28E0-48D4-A99A-6A264E58F352";
paths = (
{
nodes = (
"493 91 LINE SMOOTH",
"493 28 OFFCURVE",
"516 8 QCURVE SMOOTH",
"519 6 OFFCURVE",
"517 0 OFFCURVE",
"513 0 QCURVE SMOOTH",
"337 0 LINE SMOOTH",
"333 0 OFFCURVE",
"331 6 OFFCURVE",
"334 8 QCURVE SMOOTH",
"352 23 OFFCURVE",
"355 66 QCURVE",
"357 84 OFFCURVE",
"350 113 OFFCURVE",
"339 127 QCURVE",
"174 357 LINE",
"174 91 LINE SMOOTH",
"174 28 OFFCURVE",
"197 8 QCURVE SMOOTH",
"200 6 OFFCURVE",
"198 0 OFFCURVE",
"194 0 QCURVE SMOOTH",
"18 0 LINE SMOOTH",
"14 0 OFFCURVE",
"12 6 OFFCURVE",
"15 8 QCURVE SMOOTH",
"38 28 OFFCURVE",
"38 91 QCURVE SMOOTH",
"38 592 LINE SMOOTH",
"38 657 OFFCURVE",
"15 675 QCURVE SMOOTH",
"12 678 OFFCURVE",
"14 683 OFFCURVE",
"18 683 QCURVE SMOOTH",
"194 683 LINE SMOOTH",
"198 683 OFFCURVE",
"200 678 OFFCURVE",
"197 675 QCURVE SMOOTH",
"184 665 OFFCURVE",
"178 637 QCURVE SMOOTH",
"174 616 OFFCURVE",
"181 583 OFFCURVE",
"193 566 QCURVE SMOOTH",
"357 337 LINE",
"357 592 LINE SMOOTH",
"357 657 OFFCURVE",
"334 675 QCURVE SMOOTH",
"331 678 OFFCURVE",
"333 683 OFFCURVE",
"337 683 QCURVE SMOOTH",
"513 683 LINE SMOOTH",
"517 683 OFFCURVE",
"519 678 OFFCURVE",
"516 675 QCURVE SMOOTH",
"493 657 OFFCURVE",
"493 592 QCURVE SMOOTH"
);
}
);
width = 538;
}
);
unicode = 004E;
},
{
glyphname = bracketleft;
layers = (
{
layerId = "616D4D79-28E0-48D4-A99A-6A264E58F352";
paths = (
{
nodes = (
"302 866 OFFCURVE",
"302 802 QCURVE SMOOTH",
"302 737 LINE SMOOTH",
"302 732 OFFCURVE",
"296 731 OFFCURVE",
"293 734 QCURVE SMOOTH",
"275 756 OFFCURVE",
"210 756 QCURVE SMOOTH",
"176 756 LINE",
"176 -65 LINE",
"210 -65 LINE SMOOTH",
"275 -65 OFFCURVE",
"293 -43 QCURVE SMOOTH",
"296 -40 OFFCURVE",
"302 -41 OFFCURVE",
"302 -46 QCURVE SMOOTH",
"302 -111 LINE SMOOTH",
"302 -175 OFFCURVE",
"324 -194 QCURVE SMOOTH",
"327 -196 OFFCURVE",
"326 -202 OFFCURVE",
"321 -202 QCURVE SMOOTH",
"19 -202 LINE",
"9 -200 OFFCURVE",
"17 -194 QCURVE SMOOTH",
"39 -175 OFFCURVE",
"39 -111 QCURVE SMOOTH",
"39 802 LINE SMOOTH",
"39 866 OFFCURVE",
"17 885 QCURVE SMOOTH",
"9 891 OFFCURVE",
"19 893 QCURVE",
"321 893 LINE SMOOTH",
"326 893 OFFCURVE",
"327 887 OFFCURVE",
"324 885 QCURVE SMOOTH"
);
}
);
width = 229;
}
);
unicode = 005B;
},
{
glyphname = bracketright;
layers = (
{
layerId = "616D4D79-28E0-48D4-A99A-6A264E58F352";
paths = (
{
nodes = (
"-104 887 OFFCURVE",
"-103 893 OFFCURVE",
"-98 893 QCURVE SMOOTH",
"204 893 LINE",
"214 891 OFFCURVE",
"206 885 QCURVE SMOOTH",
"184 866 OFFCURVE",
"184 802 QCURVE SMOOTH",
"184 -111 LINE SMOOTH",
"184 -175 OFFCURVE",
"206 -194 QCURVE SMOOTH",
"214 -200 OFFCURVE",
"204 -202 QCURVE",
"-98 -202 LINE SMOOTH",
"-103 -202 OFFCURVE",
"-104 -196 OFFCURVE",
"-101 -194 QCURVE SMOOTH",
"-79 -175 OFFCURVE",
"-79 -111 QCURVE SMOOTH",
"-79 -46 LINE SMOOTH",
"-79 -41 OFFCURVE",
"-73 -40 OFFCURVE",
"-70 -43 QCURVE SMOOTH",
"-52 -65 OFFCURVE",
"13 -65 QCURVE SMOOTH",
"47 -65 LINE",
"47 756 LINE",
"13 756 LINE SMOOTH",
"-52 756 OFFCURVE",
"-70 734 QCURVE SMOOTH",
"-73 731 OFFCURVE",
"-79 732 OFFCURVE",
"-79 737 QCURVE SMOOTH",
"-79 802 LINE SMOOTH",
"-79 866 OFFCURVE",
"-101 885 QCURVE SMOOTH"
);
}
);
width = 229;
}
);
unicode = 005D;
},
{
glyphname = quotedbl;
layers = (
{
layerId = "616D4D79-28E0-48D4-A99A-6A264E58F352";
paths = (
{
nodes = (
"189 683 LINE",
"128 441 LINE",
"128 439 LINE",
"32 440 LINE",
"31 683 LINE"
);
},
{
nodes = (
"366 683 LINE",
"305 441 LINE",
"305 439 LINE",
"210 440 LINE",
"208 683 LINE"
);
}
);
width = 395;
}
);
unicode = 0022;
},
{
glyphname = quotesingle;
layers = (
{
layerId = "616D4D79-28E0-48D4-A99A-6A264E58F352";
paths = (
{
nodes = (
"186 683 LINE",
"125 441 LINE",
"125 439 LINE",
"29 440 LINE",
"28 683 LINE"
);
}
);
width = 205;
}
);
unicode = 0027;
},
{
glyphname = dollar;
layers = (
{
layerId = "616D4D79-28E0-48D4-A99A-6A264E58F352";
paths = (
{
nodes = (
"326 -58 LINE",
"222 -58 LINE",
"222 0 LINE",
"183 1 OFFCURVE",
"147 16 QCURVE SMOOTH",
"110 32 OFFCURVE",
"55 87 OFFCURVE",
"23 162 OFFCURVE",
"23 204 QCURVE",
"178 204 LINE SMOOTH",
"186 204 OFFCURVE",
"183 198 QCURVE SMOOTH",
"172 178 OFFCURVE",
"190 148 OFFCURVE",
"200 142 QCURVE",
"213 136 OFFCURVE",
"227 136 QCURVE SMOOTH",
"318 136 LINE SMOOTH",
"347 136 OFFCURVE",
"387 176 OFFCURVE",
"387 204 QCURVE SMOOTH",
"387 233 OFFCURVE",
"347 273 OFFCURVE",
"318 273 QCURVE SMOOTH",
"227 273 LINE SMOOTH",
"185 273 OFFCURVE",
"110 305 OFFCURVE",
"55 361 OFFCURVE",
"23 436 OFFCURVE",
"23 478 QCURVE SMOOTH",
"23 520 OFFCURVE",
"55 595 OFFCURVE",
"110 651 OFFCURVE",
"147 667 QCURVE SMOOTH",
"183 682 OFFCURVE",
"222 683 QCURVE",
"222 745 LINE",
"326 745 LINE",
"326 683 LINE",
"364 681 OFFCURVE",
"398 667 QCURVE SMOOTH",
"435 651 OFFCURVE",
"491 595 OFFCURVE",
"523 520 OFFCURVE",
"523 478 QCURVE",
"367 478 LINE SMOOTH",
"359 478 OFFCURVE",
"363 484 QCURVE SMOOTH",
"373 503 OFFCURVE",
"356 535 OFFCURVE",
"346 540 QCURVE SMOOTH",
"332 546 OFFCURVE",
"318 546 QCURVE SMOOTH",
"227 546 LINE SMOOTH",
"199 546 OFFCURVE",
"159 506 OFFCURVE",
"159 478 QCURVE SMOOTH",
"159 449 OFFCURVE",
"199 409 OFFCURVE",
"227 409 QCURVE SMOOTH",
"318 409 LINE SMOOTH",
"361 409 OFFCURVE",
"435 377 OFFCURVE",
"491 321 OFFCURVE",
"523 247 OFFCURVE",
"523 204 QCURVE SMOOTH",
"523 162 OFFCURVE",
"491 87 OFFCURVE",
"435 32 OFFCURVE",
"398 16 QCURVE SMOOTH",
"364 1 OFFCURVE",
"326 0 QCURVE"
);
}
);
width = 544;
}
);
unicode = 0024;
},
{
glyphname = ampersand;
layers = (
{
layerId = "616D4D79-28E0-48D4-A99A-6A264E58F352";
paths = (
{
nodes = (
"347 410 LINE",
"347 414 LINE SMOOTH",
"347 461 OFFCURVE",
"325 479 QCURVE",
"317 487 OFFCURVE",
"328 487 QCURVE SMOOTH",
"503 487 LINE SMOOTH",
"513 487 OFFCURVE",
"507 479 QCURVE",
"484 462 OFFCURVE",
"484 414 QCURVE SMOOTH",
"484 92 LINE SMOOTH",
"484 28 OFFCURVE",
"507 9 QCURVE SMOOTH",
"509 7 OFFCURVE",
"508 1 OFFCURVE",
"503 1 QCURVE SMOOTH",
"223 1 LINE SMOOTH",
"181 1 OFFCURVE",
"106 33 OFFCURVE",
"51 89 OFFCURVE",
"19 164 OFFCURVE",
"19 206 QCURVE SMOOTH",
"19 248 OFFCURVE",
"35 285 QCURVE SMOOTH",
"49 319 OFFCURVE",
"72 344 QCURVE",
"52 369 OFFCURVE",
"39 399 QCURVE SMOOTH",
"23 437 OFFCURVE",
"23 479 QCURVE SMOOTH",
"23 521 OFFCURVE",
"55 596 OFFCURVE",
"110 652 OFFCURVE",
"185 684 OFFCURVE",
"227 684 QCURVE SMOOTH",
"401 684 LINE",
"400 528 LINE",
"400 518 OFFCURVE",
"392 524 QCURVE",
"375 547 OFFCURVE",
"343 547 QCURVE SMOOTH",
"227 547 LINE SMOOTH",
"199 547 OFFCURVE",
"159 507 OFFCURVE",
"159 479 QCURVE SMOOTH",
"159 450 OFFCURVE",
"179 430 QCURVE SMOOTH",
"194 415 OFFCURVE",
"213 411 QCURVE"
);
},
{
nodes = (
"206 140 OFFCURVE",
"213 138 QCURVE",
"258 138 LINE",
"258 137 LINE",
"278 137 LINE SMOOTH",
"307 137 OFFCURVE",
"327 157 QCURVE SMOOTH",
"345 175 OFFCURVE",
"347 199 QCURVE",
"347 274 LINE",
"212 274 LINE",
"191 271 OFFCURVE",
"175 255 QCURVE SMOOTH",
"155 235 OFFCURVE",
"155 206 QCURVE SMOOTH",
"155 181 OFFCURVE",
"171 162 QCURVE",
"190 148 OFFCURVE",
"200 143 QCURVE SMOOTH"
);
}
);
width = 533;
}
);
unicode = 0026;
},
{
glyphname = percent;
layers = (
{
layerId = "616D4D79-28E0-48D4-A99A-6A264E58F352";
paths = (
{
nodes = (
"150 0 LINE",
"31 0 LINE",
"419 683 LINE",
"538 683 LINE"
);
},
{
nodes = (
"151 683 LINE SMOOTH",
"175 683 OFFCURVE",
"218 664 OFFCURVE",
"250 631 OFFCURVE",
"268 587 OFFCURVE",
"268 562 QCURVE SMOOTH",
"268 507 LINE SMOOTH",
"268 481 OFFCURVE",
"250 438 OFFCURVE",
"218 405 OFFCURVE",
"175 387 OFFCURVE",
"151 387 QCURVE SMOOTH",
"137 387 LINE SMOOTH",
"113 387 OFFCURVE",
"70 405 OFFCURVE",
"38 438 OFFCURVE",
"20 481 OFFCURVE",
"20 507 QCURVE SMOOTH",
"20 562 LINE SMOOTH",
"20 587 OFFCURVE",
"38 631 OFFCURVE",
"70 664 OFFCURVE",
"113 683 OFFCURVE",
"137 683 QCURVE SMOOTH"
);
},
{
nodes = (
"151 476 LINE SMOOTH",
"164 476 OFFCURVE",
"182 493 OFFCURVE",
"182 507 QCURVE SMOOTH",
"182 562 LINE SMOOTH",
"182 575 OFFCURVE",
"164 592 OFFCURVE",
"151 592 QCURVE SMOOTH",
"137 592 LINE SMOOTH",
"124 592 OFFCURVE",
"106 574 OFFCURVE",
"106 562 QCURVE SMOOTH",
"106 507 LINE SMOOTH",
"106 493 OFFCURVE",
"124 476 OFFCURVE",
"137 476 QCURVE SMOOTH"
);
},
{
nodes = (
"420 296 LINE SMOOTH",
"444 296 OFFCURVE",
"487 277 OFFCURVE",
"519 244 OFFCURVE",
"537 200 OFFCURVE",
"537 175 QCURVE SMOOTH",
"537 120 LINE SMOOTH",
"537 94 OFFCURVE",
"519 51 OFFCURVE",
"487 18 OFFCURVE",
"444 0 OFFCURVE",
"420 0 QCURVE SMOOTH",
"406 0 LINE SMOOTH",
"382 0 OFFCURVE",
"339 18 OFFCURVE",
"307 51 OFFCURVE",
"289 94 OFFCURVE",
"289 120 QCURVE SMOOTH",
"289 175 LINE SMOOTH",
"289 200 OFFCURVE",
"307 244 OFFCURVE",
"339 277 OFFCURVE",
"382 296 OFFCURVE",
"406 296 QCURVE SMOOTH"
);
},
{
nodes = (
"420 89 LINE SMOOTH",
"433 89 OFFCURVE",
"451 106 OFFCURVE",
"451 120 QCURVE SMOOTH",
"451 175 LINE SMOOTH",
"451 188 OFFCURVE",
"433 205 OFFCURVE",
"420 205 QCURVE SMOOTH",
"406 205 LINE SMOOTH",
"393 205 OFFCURVE",
"375 187 OFFCURVE",
"375 175 QCURVE SMOOTH",
"375 120 LINE SMOOTH",
"375 106 OFFCURVE",
"393 89 OFFCURVE",
"406 89 QCURVE SMOOTH"
);
}
);
width = 563;
}
);
unicode = 0025;
},
{
glyphname = hyphen;
layers = (
{
layerId = "616D4D79-28E0-48D4-A99A-6A264E58F352";
paths = (
{
nodes = (
"32 288 LINE",
"32 392 LINE",
"353 392 LINE",
"353 288 LINE"
);
}
);
width = 379;
}
);
unicode = 002D;
},
{
glyphname = parenleft;
layers = (
{
layerId = "616D4D79-28E0-48D4-A99A-6A264E58F352";
paths = (
{
nodes = (
"20 667 LINE SMOOTH",
"20 710 OFFCURVE",
"52 784 OFFCURVE",
"108 840 OFFCURVE",
"183 872 OFFCURVE",
"225 872 QCURVE",
"225 716 LINE SMOOTH",
"225 708 OFFCURVE",
"219 712 QCURVE SMOOTH",
"200 722 OFFCURVE",
"168 705 OFFCURVE",
"163 695 QCURVE SMOOTH",
"157 681 OFFCURVE",
"157 667 QCURVE SMOOTH",
"157 18 LINE SMOOTH",
"157 4 OFFCURVE",
"163 -10 QCURVE SMOOTH",
"168 -20 OFFCURVE",
"200 -37 OFFCURVE",
"219 -27 QCURVE SMOOTH",
"225 -23 OFFCURVE",
"225 -31 QCURVE SMOOTH",
"225 -187 LINE",
"183 -187 OFFCURVE",
"108 -155 OFFCURVE",
"52 -99 OFFCURVE",
"20 -25 OFFCURVE",
"20 18 QCURVE SMOOTH"
);
}
);
width = 183;
}
);
unicode = 0028;
},
{
glyphname = parenright;
layers = (
{
layerId = "616D4D79-28E0-48D4-A99A-6A264E58F352";
paths = (
{
nodes = (
"159 18 LINE SMOOTH",
"159 -25 OFFCURVE",
"127 -99 OFFCURVE",
"71 -155 OFFCURVE",
"-4 -187 OFFCURVE",
"-46 -187 QCURVE",
"-46 -31 LINE SMOOTH",
"-46 -23 OFFCURVE",
"-40 -27 QCURVE SMOOTH",
"-21 -37 OFFCURVE",
"11 -20 OFFCURVE",
"16 -10 QCURVE SMOOTH",
"22 4 OFFCURVE",
"22 18 QCURVE SMOOTH",
"22 667 LINE SMOOTH",
"22 681 OFFCURVE",
"16 695 QCURVE SMOOTH",
"11 705 OFFCURVE",
"-21 722 OFFCURVE",
"-40 712 QCURVE SMOOTH",
"-46 708 OFFCURVE",
"-46 716 QCURVE SMOOTH",
"-46 872 LINE",
"-4 872 OFFCURVE",
"71 840 OFFCURVE",
"127 784 OFFCURVE",
"159 710 OFFCURVE",
"159 667 QCURVE SMOOTH"
);
}
);
width = 183;
}
);
unicode = 0029;
},
{
glyphname = plus;
layers = (
{
layerId = "616D4D79-28E0-48D4-A99A-6A264E58F352";
paths = (
{
nodes = (
"128 503 LINE",
"232 503 LINE",
"232 392 LINE",
"347 392 LINE",
"347 288 LINE",
"232 288 LINE",
"232 182 LINE",
"128 182 LINE",
"128 288 LINE",
"26 288 LINE",
"26 392 LINE",
"128 392 LINE"
);
}
);
width = 377;
}
);
unicode = 002B;
},
{
glyphname = slash;
layers = (
{
layerId = "616D4D79-28E0-48D4-A99A-6A264E58F352";
paths = (
{
nodes = (
"150 0 LINE",
"31 0 LINE",
"252 683 LINE",
"371 683 LINE"
);
}
);
width = 385;
}
);
unicode = 002F;
},
{
glyphname = equal;
layers = (
{
layerId = "616D4D79-28E0-48D4-A99A-6A264E58F352";
paths = (
{
nodes = (
"32 204 LINE",
"32 308 LINE",
"353 308 LINE",
"353 204 LINE"
);
},
{
nodes = (
"32 374 LINE",
"32 478 LINE",
"353 478 LINE",
"353 374 LINE"
);
}
);
width = 385;
}
);
unicode = 003D;
},
{
glyphname = Euro;
layers = (
{
layerId = "616D4D79-28E0-48D4-A99A-6A264E58F352";
paths = (
{
nodes = (
"24 219 LINE",
"24 323 LINE",
"75 323 LINE",
"75 353 LINE",
"24 353 LINE",
"24 457 LINE",
"75 457 LINE",
"75 503 OFFCURVE",
"110 586 OFFCURVE",
"172 648 OFFCURVE",
"255 684 OFFCURVE",
"302 684 QCURVE SMOOTH",
"348 684 LINE SMOOTH",
"395 684 OFFCURVE",
"478 648 OFFCURVE",
"540 586 OFFCURVE",
"576 503 OFFCURVE",
"576 456 QCURVE",
"414 456 LINE SMOOTH",
"406 456 OFFCURVE",
"411 463 QCURVE SMOOTH",
"428 486 OFFCURVE",
"409 519 QCURVE",
"405 524 OFFCURVE",
"397 533 OFFCURVE",
"391 536 QCURVE SMOOTH",
"372 547 OFFCURVE",
"348 547 QCURVE SMOOTH",
"302 547 LINE SMOOTH",
"264 547 OFFCURVE",
"211 494 OFFCURVE",
"211 457 QCURVE",
"317 457 LINE",
"317 353 LINE",
"211 353 LINE",
"211 323 LINE",
"317 323 LINE",
"317 219 LINE",
"211 219 LINE",
"214 186 OFFCURVE",
"237 163 QCURVE SMOOTH",
"264 137 OFFCURVE",
"302 137 QCURVE SMOOTH",
"348 137 LINE SMOOTH",
"360 137 OFFCURVE",
"380 143 OFFCURVE",
"391 148 QCURVE SMOOTH",
"401 153 OFFCURVE",
"409 166 QCURVE SMOOTH",
"428 198 OFFCURVE",
"411 221 QCURVE SMOOTH",
"406 228 OFFCURVE",
"414 228 QCURVE SMOOTH",
"576 228 LINE",
"576 181 OFFCURVE",
"540 98 OFFCURVE",
"478 36 OFFCURVE",
"395 0 OFFCURVE",
"348 0 QCURVE SMOOTH",
"302 0 LINE SMOOTH",
"255 0 OFFCURVE",
"172 36 OFFCURVE",
"110 98 OFFCURVE",
"92 139 QCURVE SMOOTH",
"76 177 OFFCURVE",
"75 219 QCURVE"
);
}
);
width = 597;
}
);
unicode = 20AC;
},
{
glyphname = backslash;
layers = (
{
layerId = "616D4D79-28E0-48D4-A99A-6A264E58F352";
paths = (
{
nodes = (
"31 683 LINE",
"150 683 LINE",
"371 0 LINE",
"252 0 LINE"
);
}
);
width = 385;
}
);
unicode = 005C;
},
{
glyphname = trademark;
layers = (
{
layerId = "616D4D79-28E0-48D4-A99A-6A264E58F352";
paths = (
{
nodes = (
"488 442 LINE SMOOTH",
"488 416 OFFCURVE",
"498 408 QCURVE",
"501 404 OFFCURVE",
"496 404 QCURVE SMOOTH",
"424 404 LINE",
"423 404 OFFCURVE",
"422 406 OFFCURVE",
"423 408 QCURVE",
"433 416 OFFCURVE",
"433 442 QCURVE SMOOTH",
"433 514 LINE",
"400 435 LINE SMOOTH",
"393 417 OFFCURVE",
"397 407 QCURVE SMOOTH",
"398 404 OFFCURVE",
"396 404 QCURVE",
"340 404 LINE SMOOTH",
"337 404 OFFCURVE",
"338 407 QCURVE SMOOTH",
"343 416 OFFCURVE",
"335 435 QCURVE SMOOTH",
"302 515 LINE",
"302 442 LINE SMOOTH",
"302 415 OFFCURVE",
"312 408 QCURVE",
"313 406 OFFCURVE",
"312 404 OFFCURVE",
"311 404 QCURVE",
"239 404 LINE",
"237 404 OFFCURVE",
"236 406 OFFCURVE",
"238 408 QCURVE SMOOTH",
"247 415 OFFCURVE",
"247 442 QCURVE SMOOTH",
"247 646 LINE SMOOTH",
"247 672 OFFCURVE",
"238 680 QCURVE SMOOTH",
"236 681 OFFCURVE",
"237 683 OFFCURVE",
"239 683 QCURVE",
"311 683 LINE",
"312 683 OFFCURVE",
"313 681 OFFCURVE",
"312 680 QCURVE",
"307 676 OFFCURVE",
"304 665 QCURVE SMOOTH",
"303 660 OFFCURVE",
"305 654 QCURVE SMOOTH",
"367 503 LINE",
"430 654 LINE SMOOTH",
"432 660 OFFCURVE",
"431 665 QCURVE SMOOTH",
"429 675 OFFCURVE",
"423 680 QCURVE",
"422 681 OFFCURVE",
"423 683 OFFCURVE",
"424 683 QCURVE",
"496 683 LINE",
"498 683 OFFCURVE",
"499 681 OFFCURVE",
"498 680 QCURVE",
"488 672 OFFCURVE",
"488 646 QCURVE SMOOTH"
);
},
{
nodes = (
"225 683 LINE",
"226 683 OFFCURVE",
"227 681 OFFCURVE",
"225 680 QCURVE SMOOTH",
"223 678 OFFCURVE",
"220 671 OFFCURVE",
"218 659 OFFCURVE",
"216 641 OFFCURVE",
"216 628 QCURVE SMOOTH",
"216 619 LINE",
"216 618 OFFCURVE",
"214 617 OFFCURVE",
"213 618 QCURVE",
"205 628 OFFCURVE",
"179 628 QCURVE SMOOTH",
"151 628 LINE",
"151 442 LINE SMOOTH",
"151 415 OFFCURVE",
"160 408 QCURVE",
"161 407 OFFCURVE",
"161 404 OFFCURVE",
"159 404 QCURVE",
"87 404 LINE",
"85 404 OFFCURVE",
"85 407 OFFCURVE",
"86 408 QCURVE",
"95 416 OFFCURVE",
"95 442 QCURVE SMOOTH",
"95 628 LINE",
"67 628 LINE SMOOTH",
"41 628 OFFCURVE",
"33 618 QCURVE",
"32 617 OFFCURVE",
"30 618 OFFCURVE",
"30 619 QCURVE",
"30 646 LINE SMOOTH",
"30 672 OFFCURVE",
"21 680 QCURVE SMOOTH",
"19 681 OFFCURVE",
"20 683 OFFCURVE",
"22 683 QCURVE"
);
}
);
width = 537;
}
);
unicode = 2122;
},
{
glyphname = bar;
layers = (
{
layerId = "616D4D79-28E0-48D4-A99A-6A264E58F352";
paths = (
{
nodes = (
"132 -132 LINE",
"28 -132 LINE",
"28 796 LINE",
"132 796 LINE"
);
}
);
width = 163;
}
);
unicode = 007C;
},
{
glyphname = dagger;
layers = (
{
layerId = "616D4D79-28E0-48D4-A99A-6A264E58F352";
paths = (
{
nodes = (
"13 288 LINE",
"13 392 LINE",
"152 392 LINE",
"152 796 LINE",
"256 796 LINE",
"256 392 LINE",
"399 392 LINE",
"399 288 LINE",
"256 288 LINE",
"256 -132 LINE",
"152 -132 LINE",
"152 288 LINE"
);
}
);
width = 418;
}
);
unicode = 2020;
},
{
glyphname = daggerdbl;
layers = (
{
layerId = "616D4D79-28E0-48D4-A99A-6A264E58F352";
paths = (
{
nodes = (
"20 204 LINE",
"20 308 LINE",
"128 308 LINE",
"128 374 LINE",
"20 374 LINE",
"20 478 LINE",
"128 478 LINE",
"128 796 LINE",
"232 796 LINE",
"232 478 LINE",
"341 478 LINE",
"341 374 LINE",
"232 374 LINE",
"232 308 LINE",
"341 308 LINE",
"341 204 LINE",
"232 204 LINE",
"232 -132 LINE",
"128 -132 LINE",
"128 204 LINE"
);
}
);
width = 364;
}
);
unicode = 2021;
},
{
glyphname = quotedblright;
layers = (
{
layerId = "616D4D79-28E0-48D4-A99A-6A264E58F352";
paths = (
{
nodes = (
"85 685 OFFCURVE",
"118 675 OFFCURVE",
"142 652 OFFCURVE",
"152 619 OFFCURVE",
"148 601 QCURVE",
"141 555 OFFCURVE",
"104 489 OFFCURVE",
"62 466 QCURVE",
"48 470 OFFCURVE",
"35 480 QCURVE SMOOTH",
"31 483 OFFCURVE",
"34 486 QCURVE SMOOTH",
"47 501 OFFCURVE",
"56 539 OFFCURVE",
"34 571 QCURVE",
"21 585 OFFCURVE",
"15 620 OFFCURVE",
"24 651 OFFCURVE",
"49 676 OFFCURVE",
"67 681 QCURVE SMOOTH"
);
},
{
nodes = (
"244 685 OFFCURVE",
"277 675 OFFCURVE",
"301 652 OFFCURVE",
"311 619 OFFCURVE",
"307 601 QCURVE",
"300 555 OFFCURVE",
"263 489 OFFCURVE",
"221 466 QCURVE",
"207 470 OFFCURVE",
"194 480 QCURVE SMOOTH",
"190 483 OFFCURVE",
"193 486 QCURVE SMOOTH",
"206 501 OFFCURVE",
"215 539 OFFCURVE",
"193 571 QCURVE",
"180 585 OFFCURVE",
"174 620 OFFCURVE",
"183 651 OFFCURVE",
"208 676 OFFCURVE",
"226 681 QCURVE SMOOTH"
);
}
);
width = 333;
}
);
unicode = 201D;
},
{
glyphname = quotedblleft;
layers = (
{
layerId = "616D4D79-28E0-48D4-A99A-6A264E58F352";
paths = (
{
nodes = (
"241 466 OFFCURVE",
"208 476 OFFCURVE",
"184 499 OFFCURVE",
"174 532 OFFCURVE",
"178 550 QCURVE",
"185 596 OFFCURVE",
"222 662 OFFCURVE",
"264 685 QCURVE",
"278 681 OFFCURVE",
"291 671 QCURVE SMOOTH",
"295 668 OFFCURVE",
"292 665 QCURVE SMOOTH",
"279 650 OFFCURVE",
"270 612 OFFCURVE",
"292 580 QCURVE",
"305 566 OFFCURVE",
"311 531 OFFCURVE",
"302 500 OFFCURVE",
"277 475 OFFCURVE",
"259 470 QCURVE SMOOTH"
);
},
{
nodes = (
"82 466 OFFCURVE",
"49 476 OFFCURVE",
"25 499 OFFCURVE",
"15 532 OFFCURVE",
"19 550 QCURVE",
"26 596 OFFCURVE",
"63 662 OFFCURVE",
"105 685 QCURVE",
"119 681 OFFCURVE",
"132 671 QCURVE SMOOTH",
"136 668 OFFCURVE",
"133 665 QCURVE SMOOTH",
"120 650 OFFCURVE",
"111 612 OFFCURVE",
"133 580 QCURVE",
"146 566 OFFCURVE",
"152 531 OFFCURVE",
"143 500 OFFCURVE",
"118 475 OFFCURVE",
"100 470 QCURVE SMOOTH"
);
}
);
width = 333;
}
);
unicode = 201C;
},
{
glyphname = quoteright;
layers = (
{
layerId = "616D4D79-28E0-48D4-A99A-6A264E58F352";
paths = (
{
nodes = (
"85 685 OFFCURVE",
"118 675 OFFCURVE",
"142 652 OFFCURVE",
"152 619 OFFCURVE",
"148 601 QCURVE",
"141 555 OFFCURVE",
"104 489 OFFCURVE",
"62 466 QCURVE",
"48 470 OFFCURVE",
"35 480 QCURVE SMOOTH",
"31 483 OFFCURVE",
"34 486 QCURVE SMOOTH",
"47 501 OFFCURVE",
"56 539 OFFCURVE",
"34 571 QCURVE",
"21 585 OFFCURVE",
"15 620 OFFCURVE",
"24 651 OFFCURVE",
"49 676 OFFCURVE",
"67 681 QCURVE SMOOTH"
);
}
);
width = 167;
}
);
unicode = 2019;
},
{
glyphname = quoteleft;
layers = (
{
layerId = "616D4D79-28E0-48D4-A99A-6A264E58F352";
paths = (
{
nodes = (
"82 466 OFFCURVE",
"49 476 OFFCURVE",
"25 499 OFFCURVE",
"15 532 OFFCURVE",
"19 550 QCURVE",
"26 596 OFFCURVE",
"63 662 OFFCURVE",
"105 685 QCURVE",
"119 681 OFFCURVE",
"132 671 QCURVE SMOOTH",
"136 668 OFFCURVE",
"133 665 QCURVE SMOOTH",
"120 650 OFFCURVE",
"111 612 OFFCURVE",
"133 580 QCURVE",
"146 566 OFFCURVE",
"152 531 OFFCURVE",
"143 500 OFFCURVE",
"118 475 OFFCURVE",
"100 470 QCURVE SMOOTH"
);
}
);
width = 167;
}
);
unicode = 2018;
},
{
glyphname = ecaron;
layers = (
{
layerId = "616D4D79-28E0-48D4-A99A-6A264E58F352";
paths = (
{
nodes = (
"375 725 LINE",
"150 725 LINE",
"83 848 LINE",
"218 848 LINE",
"263 766 LINE",
"307 848 LINE",
"442 848 LINE"
);
},
{
nodes = (
"500 91 LINE SMOOTH",
"500 26 OFFCURVE",
"522 7 QCURVE SMOOTH",
"525 5 OFFCURVE",
"524 0 OFFCURVE",
"519 0 QCURVE SMOOTH",
"25 0 LINE SMOOTH",
"20 0 OFFCURVE",
"19 5 OFFCURVE",
"22 7 QCURVE SMOOTH",
"44 26 OFFCURVE",
"44 91 QCURVE SMOOTH",
"44 592 LINE SMOOTH",
"44 678 OFFCURVE",
"3 683 QCURVE",
"519 683 LINE SMOOTH",
"524 683 OFFCURVE",
"525 677 OFFCURVE",
"522 675 QCURVE SMOOTH",
"500 656 OFFCURVE",
"500 592 QCURVE SMOOTH",
"500 526 LINE SMOOTH",
"500 522 OFFCURVE",
"494 520 OFFCURVE",
"492 524 QCURVE",
"473 546 OFFCURVE",
"409 546 QCURVE SMOOTH",
"181 546 LINE",
"181 410 LINE",
"318 410 LINE SMOOTH",
"382 410 OFFCURVE",
"401 432 QCURVE SMOOTH",
"403 435 OFFCURVE",
"409 433 OFFCURVE",
"409 429 QCURVE SMOOTH",
"409 253 LINE SMOOTH",
"409 249 OFFCURVE",
"403 247 OFFCURVE",
"401 250 QCURVE SMOOTH",
"381 273 OFFCURVE",
"318 273 QCURVE SMOOTH",
"181 273 LINE",
"181 136 LINE",
"409 136 LINE SMOOTH",
"472 136 OFFCURVE",
"492 159 QCURVE SMOOTH",
"494 162 OFFCURVE",
"500 160 OFFCURVE",
"500 156 QCURVE SMOOTH"
);
}
);
width = 545;
}
);
unicode = 011B;
},
{
glyphname = grave;
layers = (
{
layerId = "616D4D79-28E0-48D4-A99A-6A264E58F352";
paths = (
{
nodes = (
"97 729 LINE",
"30 852 LINE",
"166 852 LINE",
"230 729 LINE"
);
}
);
width = 253;
}
);
unicode = 0060;
},
{
glyphname = bullet;
layers = (
{
layerId = "616D4D79-28E0-48D4-A99A-6A264E58F352";
paths = (
{
nodes = (
"27 393 OFFCURVE",
"79 445 OFFCURVE",
"117 445 QCURVE SMOOTH",
"155 445 OFFCURVE",
"207 393 OFFCURVE",
"207 355 QCURVE SMOOTH",
"207 317 OFFCURVE",
"155 265 OFFCURVE",
"117 265 QCURVE SMOOTH",
"79 265 OFFCURVE",
"27 317 OFFCURVE",
"27 355 QCURVE SMOOTH"
);
}
);
width = 237;
}
);
unicode = 2022;
},
{
glyphname = ring;
layers = (
{
layerId = "616D4D79-28E0-48D4-A99A-6A264E58F352";
paths = (
{
nodes = (
"93 714 OFFCURVE",
"60 727 OFFCURVE",
"36 750 OFFCURVE",
"22 781 OFFCURVE",
"22 799 QCURVE SMOOTH",
"22 817 OFFCURVE",
"36 848 OFFCURVE",
"60 871 OFFCURVE",
"93 885 OFFCURVE",
"111 885 QCURVE SMOOTH",
"129 885 OFFCURVE",
"162 871 OFFCURVE",
"186 848 OFFCURVE",
"200 817 OFFCURVE",
"200 799 QCURVE SMOOTH",
"200 781 OFFCURVE",
"186 750 OFFCURVE",
"162 727 OFFCURVE",
"129 714 OFFCURVE",
"111 714 QCURVE SMOOTH"
);
},
{
nodes = (
"98 827 OFFCURVE",
"82 811 OFFCURVE",
"82 799 QCURVE SMOOTH",
"82 788 OFFCURVE",
"98 771 OFFCURVE",
"111 771 QCURVE SMOOTH",
"123 771 OFFCURVE",
"140 788 OFFCURVE",
"140 799 QCURVE SMOOTH",
"140 811 OFFCURVE",
"123 827 OFFCURVE",
"111 827 QCURVE SMOOTH"
);
}
);
width = 228;
}
);
unicode = 02DA;
},
{
glyphname = breve;
layers = (
{
layerId = "616D4D79-28E0-48D4-A99A-6A264E58F352";
paths = (
{
nodes = (
"62 733 LINE",
"43 743 OFFCURVE",
"26 784 OFFCURVE",
"23 804 QCURVE SMOOTH",
"19 828 OFFCURVE",
"20 855 QCURVE",
"101 855 LINE",
"102 823 OFFCURVE",
"110 803 OFFCURVE",
"121 800 QCURVE",
"168 800 LINE",
"180 803 OFFCURVE",
"187 823 OFFCURVE",
"188 855 QCURVE",
"270 855 LINE",
"271 828 OFFCURVE",
"267 804 QCURVE SMOOTH",
"263 784 OFFCURVE",
"245 743 OFFCURVE",
"227 733 QCURVE",
"228 733 LINE",
"212 722 OFFCURVE",
"167 715 OFFCURVE",
"145 715 QCURVE SMOOTH",
"123 715 OFFCURVE",
"78 722 OFFCURVE",
"61 733 QCURVE"
);
}
);
width = 293;
}
);
unicode = 02D8;
},
{
glyphname = tilde;
layers = (
{
layerId = "616D4D79-28E0-48D4-A99A-6A264E58F352";
paths = (
{
nodes = (
"393 869 LINE",
"393 850 LINE",
"393 849 OFFCURVE",
"389 814 OFFCURVE",
"381 794 QCURVE SMOOTH",
"370 765 OFFCURVE",
"330 732 OFFCURVE",
"302 732 QCURVE SMOOTH",
"294 732 OFFCURVE",
"280 735 OFFCURVE",
"272 737 QCURVE SMOOTH",
"250 742 OFFCURVE",
"216 752 OFFCURVE",
"186 761 OFFCURVE",
"158 771 OFFCURVE",
"142 777 QCURVE",
"140 777 OFFCURVE",
"138 778 QCURVE",
"136 778 OFFCURVE",
"133 779 OFFCURVE",
"131 779 QCURVE",
"114 779 OFFCURVE",
"114 749 QCURVE SMOOTH",
"114 731 LINE",
"30 731 LINE",
"30 749 LINE",
"30 750 OFFCURVE",
"32 785 OFFCURVE",
"40 805 QCURVE SMOOTH",
"63 867 OFFCURVE",
"120 867 QCURVE SMOOTH",
"127 867 OFFCURVE",
"141 865 OFFCURVE",
"149 863 QCURVE SMOOTH",
"172 857 OFFCURVE",
"208 846 OFFCURVE",
"238 836 OFFCURVE",
"266 827 OFFCURVE",
"281 822 QCURVE",
"282 821 OFFCURVE",
"284 821 QCURVE",
"291 821 LINE SMOOTH",
"308 821 OFFCURVE",
"308 850 QCURVE SMOOTH",
"308 869 LINE"
);
}
);
width = 406;
}
);
unicode = 02DC;
},
{
glyphname = hungarumlaut;
layers = (
{
layerId = "616D4D79-28E0-48D4-A99A-6A264E58F352";
paths = (
{
nodes = (
"48 729 LINE",
"112 852 LINE",
"247 852 LINE",
"180 729 LINE"
);
},
{
nodes = (
"247 729 LINE",
"311 852 LINE",
"447 852 LINE",
"380 729 LINE"
);
}
);
width = 480;
}
);
unicode = 02DD;
},
{
glyphname = ohungarumlaut;
layers = (
{
layerId = "616D4D79-28E0-48D4-A99A-6A264E58F352";
paths = (
{
nodes = (
"297 677 LINE SMOOTH",
"344 677 OFFCURVE",
"427 641 OFFCURVE",
"489 579 OFFCURVE",
"525 496 OFFCURVE",
"525 449 QCURVE SMOOTH",
"525 221 LINE SMOOTH",
"525 174 OFFCURVE",
"489 91 OFFCURVE",
"427 29 OFFCURVE",
"344 -6 OFFCURVE",
"297 -6 QCURVE SMOOTH",
"252 -6 LINE SMOOTH",
"205 -6 OFFCURVE",
"122 29 OFFCURVE",
"60 91 OFFCURVE",
"24 174 OFFCURVE",
"24 221 QCURVE SMOOTH",
"24 449 LINE SMOOTH",
"24 496 OFFCURVE",
"60 579 OFFCURVE",
"122 641 OFFCURVE",
"205 677 OFFCURVE",
"252 677 QCURVE SMOOTH"
);
},
{
nodes = (
"297 130 LINE SMOOTH",
"335 130 OFFCURVE",
"388 183 OFFCURVE",
"388 221 QCURVE SMOOTH",
"388 449 LINE SMOOTH",
"388 487 OFFCURVE",
"335 540 OFFCURVE",
"297 540 QCURVE SMOOTH",
"252 540 LINE SMOOTH",
"233 540 OFFCURVE",
"200 526 OFFCURVE",
"175 501 OFFCURVE",
"161 468 OFFCURVE",
"161 449 QCURVE SMOOTH",
"161 221 LINE SMOOTH",
"161 202 OFFCURVE",
"175 169 OFFCURVE",
"200 144 OFFCURVE",
"233 130 OFFCURVE",
"252 130 QCURVE SMOOTH"
);
},
{
nodes = (
"86 729 LINE",
"150 852 LINE",
"285 852 LINE",
"218 729 LINE"
);
},
{
nodes = (
"285 729 LINE",
"349 852 LINE",
"485 852 LINE",
"418 729 LINE"
);
}
);
width = 553;
}
);
unicode = 0151;
},
{
glyphname = macron;
layers = (
{
layerId = "616D4D79-28E0-48D4-A99A-6A264E58F352";
paths = (
{
nodes = (
"36 840 LINE",
"359 840 LINE",
"359 744 LINE",
"36 744 LINE"
);
}
);
width = 400;
}
);
unicode = 00AF;
},
{
glyphname = circumflex;
layers = (
{
layerId = "616D4D79-28E0-48D4-A99A-6A264E58F352";
paths = (
{
nodes = (
"105 862 LINE",
"330 862 LINE",
"397 739 LINE",
"262 739 LINE",
"217 821 LINE",
"173 739 LINE",
"38 739 LINE"
);
}
);
width = 443;
}
);
unicode = 02C6;
},
{
glyphname = questiondown;
layers = (
{
layerId = "616D4D79-28E0-48D4-A99A-6A264E58F352";
paths = (
{
nodes = (
"219 0 LINE SMOOTH",
"177 0 OFFCURVE",
"104 31 OFFCURVE",
"50 85 OFFCURVE",
"19 158 OFFCURVE",
"19 200 QCURVE SMOOTH",
"19 238 OFFCURVE",
"46 307 OFFCURVE",
"93 360 OFFCURVE",
"158 395 OFFCURVE",
"196 399 QCURVE SMOOTH",
"211 401 OFFCURVE",
"228 414 OFFCURVE",
"233 429 QCURVE SMOOTH",
"235 433 OFFCURVE",
"235 436 QCURVE",
"240 470 OFFCURVE",
"221 485 QCURVE SMOOTH",
"218 488 OFFCURVE",
"220 493 OFFCURVE",
"224 493 QCURVE SMOOTH",
"394 493 LINE SMOOTH",
"398 493 OFFCURVE",
"400 488 OFFCURVE",
"397 485 QCURVE SMOOTH",
"371 461 OFFCURVE",
"370 426 QCURVE",
"367 397 OFFCURVE",
"343 340 OFFCURVE",
"305 295 OFFCURVE",
"252 267 OFFCURVE",
"219 267 QCURVE SMOOTH",
"191 267 OFFCURVE",
"152 228 OFFCURVE",
"152 200 QCURVE SMOOTH",
"152 172 OFFCURVE",
"191 133 OFFCURVE",
"219 133 QCURVE SMOOTH",
"341 133 LINE SMOOTH",
"356 133 OFFCURVE",
"368 139 QCURVE SMOOTH",
"373 142 OFFCURVE",
"383 152 OFFCURVE",
"390 167 OFFCURVE",
"390 184 OFFCURVE",
"385 193 QCURVE SMOOTH",
"382 200 OFFCURVE",
"389 200 QCURVE SMOOTH",
"542 200 LINE",
"542 158 OFFCURVE",
"510 85 OFFCURVE",
"456 31 OFFCURVE",
"383 0 OFFCURVE",
"341 0 QCURVE SMOOTH"
);
},
{
nodes = (
"279 546 OFFCURVE",
"240 585 OFFCURVE",
"240 613 QCURVE SMOOTH",
"240 640 OFFCURVE",
"279 679 OFFCURVE",
"307 679 QCURVE SMOOTH",
"335 679 OFFCURVE",
"374 640 OFFCURVE",
"374 613 QCURVE SMOOTH",
"374 585 OFFCURVE",
"335 546 OFFCURVE",
"307 546 QCURVE SMOOTH"
);
}
);
width = 562;
}
);
unicode = 00BF;
},
{
glyphname = exclamdown;
layers = (
{
layerId = "616D4D79-28E0-48D4-A99A-6A264E58F352";
paths = (
{
nodes = (
"173 89 LINE SMOOTH",
"173 27 OFFCURVE",
"195 8 QCURVE SMOOTH",
"198 6 OFFCURVE",
"196 0 OFFCURVE",
"192 0 QCURVE SMOOTH",
"20 0 LINE SMOOTH",
"16 0 OFFCURVE",
"14 6 OFFCURVE",
"17 8 QCURVE SMOOTH",
"39 27 OFFCURVE",
"39 89 QCURVE SMOOTH",
"39 408 LINE SMOOTH",
"39 471 OFFCURVE",
"17 489 QCURVE SMOOTH",
"14 492 OFFCURVE",
"16 497 OFFCURVE",
"20 497 QCURVE SMOOTH",
"192 497 LINE SMOOTH",
"196 497 OFFCURVE",
"198 492 OFFCURVE",
"195 489 QCURVE SMOOTH",
"173 471 OFFCURVE",
"173 408 QCURVE SMOOTH"
);
},
{
nodes = (
"75 550 OFFCURVE",
"36 589 OFFCURVE",
"36 616 QCURVE SMOOTH",
"36 645 OFFCURVE",
"75 683 OFFCURVE",
"103 683 QCURVE SMOOTH",
"131 683 OFFCURVE",
"170 645 OFFCURVE",
"170 616 QCURVE SMOOTH",
"170 589 OFFCURVE",
"131 550 OFFCURVE",
"103 550 QCURVE SMOOTH"
);
}
);
width = 215;
}
);
unicode = 00A1;
},
{
glyphname = OE;
layers = (
{
layerId = "616D4D79-28E0-48D4-A99A-6A264E58F352";
paths = (
{
nodes = (
"844 91 LINE SMOOTH",
"844 26 OFFCURVE",
"866 7 QCURVE SMOOTH",
"869 5 OFFCURVE",
"868 0 OFFCURVE",
"863 0 QCURVE SMOOTH",
"252 0 LINE SMOOTH",
"205 0 OFFCURVE",
"122 35 OFFCURVE",
"60 97 OFFCURVE",
"24 180 OFFCURVE",
"24 227 QCURVE SMOOTH",
"24 455 LINE SMOOTH",
"24 502 OFFCURVE",
"60 585 OFFCURVE",
"122 647 OFFCURVE",
"205 683 OFFCURVE",
"252 683 QCURVE SMOOTH",
"863 683 LINE SMOOTH",
"868 683 OFFCURVE",
"869 677 OFFCURVE",
"866 675 QCURVE SMOOTH",
"844 656 OFFCURVE",
"844 592 QCURVE SMOOTH",
"844 526 LINE SMOOTH",
"844 522 OFFCURVE",
"838 520 OFFCURVE",
"836 524 QCURVE",
"817 546 OFFCURVE",
"753 546 QCURVE SMOOTH",
"525 546 LINE",
"525 410 LINE",
"662 410 LINE SMOOTH",
"726 410 OFFCURVE",
"745 432 QCURVE SMOOTH",
"747 435 OFFCURVE",
"753 433 OFFCURVE",
"753 429 QCURVE SMOOTH",
"753 253 LINE SMOOTH",
"753 249 OFFCURVE",
"747 247 OFFCURVE",
"745 250 QCURVE SMOOTH",
"725 273 OFFCURVE",
"662 273 QCURVE SMOOTH",
"525 273 LINE",
"525 136 LINE",
"753 136 LINE SMOOTH",
"816 136 OFFCURVE",
"836 159 QCURVE SMOOTH",
"838 162 OFFCURVE",
"844 160 OFFCURVE",
"844 156 QCURVE SMOOTH"
);
},
{
nodes = (
"297 136 LINE SMOOTH",
"335 136 OFFCURVE",
"388 189 OFFCURVE",
"388 227 QCURVE SMOOTH",
"388 455 LINE SMOOTH",
"388 493 OFFCURVE",
"335 546 OFFCURVE",
"297 546 QCURVE SMOOTH",
"252 546 LINE SMOOTH",
"233 546 OFFCURVE",
"200 532 OFFCURVE",
"175 507 OFFCURVE",
"161 474 OFFCURVE",
"161 455 QCURVE SMOOTH",
"161 227 LINE SMOOTH",
"161 208 OFFCURVE",
"175 175 OFFCURVE",
"200 150 OFFCURVE",
"233 136 OFFCURVE",
"252 136 QCURVE SMOOTH"
);
}
);
width = 886;
}
);
unicode = 0152;
},
{
glyphname = o;
layers = (
{
layerId = "616D4D79-28E0-48D4-A99A-6A264E58F352";
paths = (
{
nodes = (
"297 683 LINE SMOOTH",
"344 683 OFFCURVE",
"427 647 OFFCURVE",
"489 585 OFFCURVE",
"525 502 OFFCURVE",
"525 455 QCURVE SMOOTH",
"525 227 LINE SMOOTH",
"525 180 OFFCURVE",
"489 97 OFFCURVE",
"427 35 OFFCURVE",
"344 0 OFFCURVE",
"297 0 QCURVE SMOOTH",
"252 0 LINE SMOOTH",
"205 0 OFFCURVE",
"122 35 OFFCURVE",
"60 97 OFFCURVE",
"24 180 OFFCURVE",
"24 227 QCURVE SMOOTH",
"24 455 LINE SMOOTH",
"24 502 OFFCURVE",
"60 585 OFFCURVE",
"122 647 OFFCURVE",
"205 683 OFFCURVE",
"252 683 QCURVE SMOOTH"
);
},
{
nodes = (
"297 136 LINE SMOOTH",
"335 136 OFFCURVE",
"388 189 OFFCURVE",
"388 227 QCURVE SMOOTH",
"388 455 LINE SMOOTH",
"388 493 OFFCURVE",
"335 546 OFFCURVE",
"297 546 QCURVE SMOOTH",
"252 546 LINE SMOOTH",
"233 546 OFFCURVE",
"200 532 OFFCURVE",
"175 507 OFFCURVE",
"161 474 OFFCURVE",
"161 455 QCURVE SMOOTH",
"161 227 LINE SMOOTH",
"161 208 OFFCURVE",
"175 175 OFFCURVE",
"200 150 OFFCURVE",
"233 136 OFFCURVE",
"252 136 QCURVE SMOOTH"
);
}
);
width = 553;
}
);
unicode = 006F;
},
{
glyphname = oe;
layers = (
{
layerId = "616D4D79-28E0-48D4-A99A-6A264E58F352";
paths = (
{
nodes = (
"844 91 LINE SMOOTH",
"844 26 OFFCURVE",
"866 7 QCURVE SMOOTH",
"869 5 OFFCURVE",
"868 0 OFFCURVE",
"863 0 QCURVE SMOOTH",
"252 0 LINE SMOOTH",
"205 0 OFFCURVE",
"122 35 OFFCURVE",
"60 97 OFFCURVE",
"24 180 OFFCURVE",
"24 227 QCURVE SMOOTH",
"24 455 LINE SMOOTH",
"24 502 OFFCURVE",
"60 585 OFFCURVE",
"122 647 OFFCURVE",
"205 683 OFFCURVE",
"252 683 QCURVE SMOOTH",
"863 683 LINE SMOOTH",
"868 683 OFFCURVE",
"869 677 OFFCURVE",
"866 675 QCURVE SMOOTH",
"844 656 OFFCURVE",
"844 592 QCURVE SMOOTH",
"844 526 LINE SMOOTH",
"844 522 OFFCURVE",
"838 520 OFFCURVE",
"836 524 QCURVE",
"817 546 OFFCURVE",
"753 546 QCURVE SMOOTH",
"525 546 LINE",
"525 410 LINE",
"662 410 LINE SMOOTH",
"726 410 OFFCURVE",
"745 432 QCURVE SMOOTH",
"747 435 OFFCURVE",
"753 433 OFFCURVE",
"753 429 QCURVE SMOOTH",
"753 253 LINE SMOOTH",
"753 249 OFFCURVE",
"747 247 OFFCURVE",
"745 250 QCURVE SMOOTH",
"725 273 OFFCURVE",
"662 273 QCURVE SMOOTH",
"525 273 LINE",
"525 136 LINE",
"753 136 LINE SMOOTH",
"816 136 OFFCURVE",
"836 159 QCURVE SMOOTH",
"838 162 OFFCURVE",
"844 160 OFFCURVE",
"844 156 QCURVE SMOOTH"
);
},
{
nodes = (
"297 136 LINE SMOOTH",
"335 136 OFFCURVE",
"388 189 OFFCURVE",
"388 227 QCURVE SMOOTH",
"388 455 LINE SMOOTH",
"388 493 OFFCURVE",
"335 546 OFFCURVE",
"297 546 QCURVE SMOOTH",
"252 546 LINE SMOOTH",
"233 546 OFFCURVE",
"200 532 OFFCURVE",
"175 507 OFFCURVE",
"161 474 OFFCURVE",
"161 455 QCURVE SMOOTH",
"161 227 LINE SMOOTH",
"161 208 OFFCURVE",
"175 175 OFFCURVE",
"200 150 OFFCURVE",
"233 136 OFFCURVE",
"252 136 QCURVE SMOOTH"
);
}
);
width = 886;
}
);
unicode = 0153;
},
{
glyphname = acute;
layers = (
{
layerId = "616D4D79-28E0-48D4-A99A-6A264E58F352";
paths = (
{
nodes = (
"30 729 LINE",
"94 852 LINE",
"230 852 LINE",
"163 729 LINE"
);
}
);
width = 264;
}
);
unicode = 00B4;
},
{
glyphname = dieresis;
layers = (
{
layerId = "616D4D79-28E0-48D4-A99A-6A264E58F352";
paths = (
{
nodes = (
"30 854 LINE",
"165 854 LINE",
"165 730 LINE",
"30 730 LINE"
);
},
{
nodes = (
"207 854 LINE",
"342 854 LINE",
"342 730 LINE",
"207 730 LINE"
);
}
);
width = 379;
}
);
unicode = 00A8;
},
{
glyphname = germandbls;
layers = (
{
layerId = "616D4D79-28E0-48D4-A99A-6A264E58F352";
paths = (
{
nodes = (
"173 91 LINE SMOOTH",
"173 27 OFFCURVE",
"196 8 QCURVE SMOOTH",
"198 6 OFFCURVE",
"197 0 OFFCURVE",
"192 0 QCURVE SMOOTH",
"17 0 LINE SMOOTH",
"12 0 OFFCURVE",
"11 6 OFFCURVE",
"14 8 QCURVE SMOOTH",
"36 27 OFFCURVE",
"36 91 QCURVE SMOOTH",
"36 505 LINE",
"40 531 OFFCURVE",
"51 557 QCURVE SMOOTH",
"67 595 OFFCURVE",
"122 651 OFFCURVE",
"197 683 OFFCURVE",
"240 683 QCURVE SMOOTH",
"331 683 LINE SMOOTH",
"375 683 OFFCURVE",
"449 651 OFFCURVE",
"502 597 OFFCURVE",
"534 526 OFFCURVE",
"538 450 OFFCURVE",
"513 374 OFFCURVE",
"483 341 QCURVE",
"511 310 OFFCURVE",
"535 246 OFFCURVE",
"535 205 QCURVE SMOOTH",
"535 163 OFFCURVE",
"503 88 OFFCURVE",
"447 32 OFFCURVE",
"372 0 OFFCURVE",
"330 0 QCURVE SMOOTH",
"240 0 LINE",
"240 136 LINE",
"331 136 LINE",
"359 137 OFFCURVE",
"398 176 OFFCURVE",
"398 205 QCURVE SMOOTH",
"398 233 OFFCURVE",
"359 273 OFFCURVE",
"330 273 QCURVE SMOOTH",
"314 273 LINE SMOOTH",
"263 273 OFFCURVE",
"234 252 QCURVE",
"227 256 LINE",
"227 410 LINE",
"332 410 LINE SMOOTH",
"360 410 OFFCURVE",
"399 450 OFFCURVE",
"399 478 QCURVE SMOOTH",
"399 507 OFFCURVE",
"360 546 OFFCURVE",
"331 546 QCURVE SMOOTH",
"221 546 LINE SMOOTH",
"193 546 OFFCURVE",
"180 526 QCURVE SMOOTH",
"173 516 OFFCURVE",
"173 504 QCURVE SMOOTH"
);
}
);
width = 560;
}
);
unicode = 00DF;
},
{
glyphname = AE;
layers = (
{
layerId = "616D4D79-28E0-48D4-A99A-6A264E58F352";
paths = (
{
nodes = (
"178 91 LINE SMOOTH",
"178 26 OFFCURVE",
"201 8 QCURVE",
"209 0 OFFCURVE",
"198 0 QCURVE SMOOTH",
"22 0 LINE SMOOTH",
"18 0 OFFCURVE",
"16 5 OFFCURVE",
"19 8 QCURVE SMOOTH",
"42 26 OFFCURVE",
"42 91 QCURVE SMOOTH",
"42 308 LINE SMOOTH",
"42 351 OFFCURVE",
"53 437 OFFCURVE",
"97 492 QCURVE",
"196 591 LINE",
"231 646 OFFCURVE",
"217 675 QCURVE",
"214 678 OFFCURVE",
"216 683 OFFCURVE",
"220 683 QCURVE SMOOTH",
"771 683 LINE SMOOTH",
"776 683 OFFCURVE",
"777 677 OFFCURVE",
"774 675 QCURVE SMOOTH",
"752 656 OFFCURVE",
"752 592 QCURVE SMOOTH",
"752 526 LINE SMOOTH",
"752 522 OFFCURVE",
"746 520 OFFCURVE",
"744 524 QCURVE",
"725 546 OFFCURVE",
"661 546 QCURVE SMOOTH",
"487 546 LINE",
"487 410 LINE",
"570 410 LINE SMOOTH",
"634 410 OFFCURVE",
"653 432 QCURVE SMOOTH",
"655 435 OFFCURVE",
"661 433 OFFCURVE",
"661 429 QCURVE SMOOTH",
"661 253 LINE SMOOTH",
"661 249 OFFCURVE",
"655 247 OFFCURVE",
"653 250 QCURVE SMOOTH",
"633 273 OFFCURVE",
"570 273 QCURVE SMOOTH",
"487 273 LINE",
"487 136 LINE",
"661 136 LINE SMOOTH",
"724 136 OFFCURVE",
"744 159 QCURVE SMOOTH",
"746 162 OFFCURVE",
"752 160 OFFCURVE",
"752 156 QCURVE SMOOTH",
"752 91 LINE SMOOTH",
"752 26 OFFCURVE",
"774 7 QCURVE SMOOTH",
"777 5 OFFCURVE",
"776 0 OFFCURVE",
"771 0 QCURVE SMOOTH",
"331 0 LINE SMOOTH",
"326 0 OFFCURVE",
"325 5 OFFCURVE",
"328 7 QCURVE SMOOTH",
"350 26 OFFCURVE",
"350 91 QCURVE SMOOTH",
"350 179 LINE",
"178 179 LINE"
);
},
{
nodes = (
"179 306 LINE",
"350 306 LINE",
"350 567 LINE",
"201 402 LINE",
"181 383 OFFCURVE",
"180 351 QCURVE SMOOTH"
);
}
);
width = 792;
}
);
unicode = 00C6;
},
{
glyphname = ae;
layers = (
{
layerId = "616D4D79-28E0-48D4-A99A-6A264E58F352";
paths = (
{
nodes = (
"178 91 LINE SMOOTH",
"178 26 OFFCURVE",
"201 8 QCURVE",
"209 0 OFFCURVE",
"198 0 QCURVE SMOOTH",
"22 0 LINE SMOOTH",
"18 0 OFFCURVE",
"16 5 OFFCURVE",
"19 8 QCURVE SMOOTH",
"42 26 OFFCURVE",
"42 91 QCURVE SMOOTH",
"42 308 LINE SMOOTH",
"42 351 OFFCURVE",
"53 437 OFFCURVE",
"97 492 QCURVE",
"196 591 LINE",
"231 646 OFFCURVE",
"217 675 QCURVE",
"214 678 OFFCURVE",
"216 683 OFFCURVE",
"220 683 QCURVE SMOOTH",
"771 683 LINE SMOOTH",
"776 683 OFFCURVE",
"777 677 OFFCURVE",
"774 675 QCURVE SMOOTH",
"752 656 OFFCURVE",
"752 592 QCURVE SMOOTH",
"752 526 LINE SMOOTH",
"752 522 OFFCURVE",
"746 520 OFFCURVE",
"744 524 QCURVE",
"725 546 OFFCURVE",
"661 546 QCURVE SMOOTH",
"487 546 LINE",
"487 410 LINE",
"570 410 LINE SMOOTH",
"634 410 OFFCURVE",
"653 432 QCURVE SMOOTH",
"655 435 OFFCURVE",
"661 433 OFFCURVE",
"661 429 QCURVE SMOOTH",
"661 253 LINE SMOOTH",
"661 249 OFFCURVE",
"655 247 OFFCURVE",
"653 250 QCURVE SMOOTH",
"633 273 OFFCURVE",
"570 273 QCURVE SMOOTH",
"487 273 LINE",
"487 136 LINE",
"661 136 LINE SMOOTH",
"724 136 OFFCURVE",
"744 159 QCURVE SMOOTH",
"746 162 OFFCURVE",
"752 160 OFFCURVE",
"752 156 QCURVE SMOOTH",
"752 91 LINE SMOOTH",
"752 26 OFFCURVE",
"774 7 QCURVE SMOOTH",
"777 5 OFFCURVE",
"776 0 OFFCURVE",
"771 0 QCURVE SMOOTH",
"331 0 LINE SMOOTH",
"326 0 OFFCURVE",
"325 5 OFFCURVE",
"328 7 QCURVE SMOOTH",
"350 26 OFFCURVE",
"350 91 QCURVE SMOOTH",
"350 179 LINE",
"178 179 LINE"
);
},
{
nodes = (
"179 306 LINE",
"350 306 LINE",
"350 567 LINE",
"201 402 LINE",
"181 383 OFFCURVE",
"180 351 QCURVE SMOOTH"
);
}
);
width = 792;
}
);
unicode = 00E6;
},
{
glyphname = ccaron;
layers = (
{
layerId = "616D4D79-28E0-48D4-A99A-6A264E58F352";
paths = (
{
nodes = (
"379 725 LINE",
"154 725 LINE",
"87 848 LINE",
"222 848 LINE",
"267 766 LINE",
"311 848 LINE",
"446 848 LINE"
);
},
{
nodes = (
"515 228 LINE",
"515 181 OFFCURVE",
"479 98 OFFCURVE",
"417 36 OFFCURVE",
"334 0 OFFCURVE",
"287 0 QCURVE SMOOTH",
"241 0 LINE SMOOTH",
"194 0 OFFCURVE",
"111 36 OFFCURVE",
"49 98 OFFCURVE",
"14 181 OFFCURVE",
"14 228 QCURVE SMOOTH",
"14 456 LINE SMOOTH",
"14 503 OFFCURVE",
"49 586 OFFCURVE",
"111 648 OFFCURVE",
"194 684 OFFCURVE",
"241 684 QCURVE SMOOTH",
"287 684 LINE SMOOTH",
"334 684 OFFCURVE",
"417 648 OFFCURVE",
"479 586 OFFCURVE",
"515 503 OFFCURVE",
"515 456 QCURVE",
"353 456 LINE SMOOTH",
"345 456 OFFCURVE",
"350 463 QCURVE SMOOTH",
"367 486 OFFCURVE",
"348 519 QCURVE",
"344 524 OFFCURVE",
"336 533 OFFCURVE",
"330 536 QCURVE SMOOTH",
"311 547 OFFCURVE",
"287 547 QCURVE SMOOTH",
"241 547 LINE SMOOTH",
"203 547 OFFCURVE",
"150 494 OFFCURVE",
"150 456 QCURVE SMOOTH",
"150 228 LINE SMOOTH",
"150 190 OFFCURVE",
"203 137 OFFCURVE",
"241 137 QCURVE SMOOTH",
"287 137 LINE SMOOTH",
"299 137 OFFCURVE",
"319 143 OFFCURVE",
"330 148 QCURVE SMOOTH",
"340 153 OFFCURVE",
"348 166 QCURVE SMOOTH",
"367 198 OFFCURVE",
"350 221 QCURVE SMOOTH",
"345 228 OFFCURVE",
"353 228 QCURVE SMOOTH"
);
}
);
width = 533;
}
);
unicode = 010D;
},
{
glyphname = dotaccent;
layers = (
{
layerId = "616D4D79-28E0-48D4-A99A-6A264E58F352";
paths = (
{
nodes = (
"132 876 OFFCURVE",
"177 831 OFFCURVE",
"177 800 QCURVE SMOOTH",
"177 769 OFFCURVE",
"132 724 OFFCURVE",
"101 724 QCURVE SMOOTH",
"69 724 OFFCURVE",
"25 769 OFFCURVE",
"25 800 QCURVE SMOOTH",
"25 831 OFFCURVE",
"69 876 OFFCURVE",
"101 876 QCURVE SMOOTH"
);
}
);
width = 198;
}
);
unicode = 02D9;
},
{
glyphname = caron;
layers = (
{
layerId = "616D4D79-28E0-48D4-A99A-6A264E58F352";
paths = (
{
nodes = (
"38 862 LINE",
"173 862 LINE",
"217 780 LINE",
"262 862 LINE",
"397 862 LINE",
"330 739 LINE",
"105 739 LINE"
);
}
);
width = 443;
}
);
unicode = 02C7;
},
{
glyphname = Ccaron;
layers = (
{
layerId = "616D4D79-28E0-48D4-A99A-6A264E58F352";
paths = (
{
nodes = (
"379 725 LINE",
"154 725 LINE",
"87 848 LINE",
"222 848 LINE",
"267 766 LINE",
"311 848 LINE",
"446 848 LINE"
);
},
{
nodes = (
"515 228 LINE",
"515 181 OFFCURVE",
"479 98 OFFCURVE",
"417 36 OFFCURVE",
"334 0 OFFCURVE",
"287 0 QCURVE SMOOTH",
"241 0 LINE SMOOTH",
"194 0 OFFCURVE",
"111 36 OFFCURVE",
"49 98 OFFCURVE",
"14 181 OFFCURVE",
"14 228 QCURVE SMOOTH",
"14 456 LINE SMOOTH",
"14 503 OFFCURVE",
"49 586 OFFCURVE",
"111 648 OFFCURVE",
"194 684 OFFCURVE",
"241 684 QCURVE SMOOTH",
"287 684 LINE SMOOTH",
"334 684 OFFCURVE",
"417 648 OFFCURVE",
"479 586 OFFCURVE",
"515 503 OFFCURVE",
"515 456 QCURVE",
"353 456 LINE SMOOTH",
"345 456 OFFCURVE",
"350 463 QCURVE SMOOTH",
"367 486 OFFCURVE",
"348 519 QCURVE",
"344 524 OFFCURVE",
"336 533 OFFCURVE",
"330 536 QCURVE SMOOTH",
"311 547 OFFCURVE",
"287 547 QCURVE SMOOTH",
"241 547 LINE SMOOTH",
"203 547 OFFCURVE",
"150 494 OFFCURVE",
"150 456 QCURVE SMOOTH",
"150 228 LINE SMOOTH",
"150 190 OFFCURVE",
"203 137 OFFCURVE",
"241 137 QCURVE SMOOTH",
"287 137 LINE SMOOTH",
"299 137 OFFCURVE",
"319 143 OFFCURVE",
"330 148 QCURVE SMOOTH",
"340 153 OFFCURVE",
"348 166 QCURVE SMOOTH",
"367 198 OFFCURVE",
"350 221 QCURVE SMOOTH",
"345 228 OFFCURVE",
"353 228 QCURVE SMOOTH"
);
}
);
width = 533;
}
);
unicode = 010C;
},
{
glyphname = Ecaron;
layers = (
{
layerId = "616D4D79-28E0-48D4-A99A-6A264E58F352";
paths = (
{
nodes = (
"375 725 LINE",
"150 725 LINE",
"83 848 LINE",
"218 848 LINE",
"263 766 LINE",
"307 848 LINE",
"442 848 LINE"
);
},
{
nodes = (
"500 91 LINE SMOOTH",
"500 26 OFFCURVE",
"522 7 QCURVE SMOOTH",
"525 5 OFFCURVE",
"524 0 OFFCURVE",
"519 0 QCURVE SMOOTH",
"25 0 LINE SMOOTH",
"20 0 OFFCURVE",
"19 5 OFFCURVE",
"22 7 QCURVE SMOOTH",
"44 26 OFFCURVE",
"44 91 QCURVE SMOOTH",
"44 592 LINE SMOOTH",
"44 678 OFFCURVE",
"3 683 QCURVE",
"519 683 LINE SMOOTH",
"524 683 OFFCURVE",
"525 677 OFFCURVE",
"522 675 QCURVE SMOOTH",
"500 656 OFFCURVE",
"500 592 QCURVE SMOOTH",
"500 526 LINE SMOOTH",
"500 522 OFFCURVE",
"494 520 OFFCURVE",
"492 524 QCURVE",
"473 546 OFFCURVE",
"409 546 QCURVE SMOOTH",
"181 546 LINE",
"181 410 LINE",
"318 410 LINE SMOOTH",
"382 410 OFFCURVE",
"401 432 QCURVE SMOOTH",
"403 435 OFFCURVE",
"409 433 OFFCURVE",
"409 429 QCURVE SMOOTH",
"409 253 LINE SMOOTH",
"409 249 OFFCURVE",
"403 247 OFFCURVE",
"401 250 QCURVE SMOOTH",
"381 273 OFFCURVE",
"318 273 QCURVE SMOOTH",
"181 273 LINE",
"181 136 LINE",
"409 136 LINE SMOOTH",
"472 136 OFFCURVE",
"492 159 QCURVE SMOOTH",
"494 162 OFFCURVE",
"500 160 OFFCURVE",
"500 156 QCURVE SMOOTH"
);
}
);
width = 545;
}
);
unicode = 011A;
},
{
glyphname = ogonek;
layers = (
{
layerId = "616D4D79-28E0-48D4-A99A-6A264E58F352";
paths = (
{
nodes = (
"220 0 LINE",
"217 -8 OFFCURVE",
"211 -33 OFFCURVE",
"211 -41 QCURVE SMOOTH",
"211 -67 OFFCURVE",
"220 -92 OFFCURVE",
"238 -101 OFFCURVE",
"263 -99 OFFCURVE",
"279 -99 QCURVE SMOOTH",
"286 -99 OFFCURVE",
"298 -97 OFFCURVE",
"304 -95 QCURVE",
"316 -146 LINE",
"296 -160 OFFCURVE",
"245 -176 OFFCURVE",
"220 -176 QCURVE SMOOTH",
"178 -176 OFFCURVE",
"123 -130 OFFCURVE",
"123 -86 QCURVE SMOOTH",
"123 -63 OFFCURVE",
"140 -20 OFFCURVE",
"153 0 QCURVE"
);
}
);
width = 375;
}
);
unicode = 02DB;
},
{
glyphname = cedilla;
layers = (
{
layerId = "616D4D79-28E0-48D4-A99A-6A264E58F352";
paths = (
{
nodes = (
"55 0 LINE",
"123 0 LINE",
"125 -34 LINE",
"144 -40 OFFCURVE",
"183 -61 OFFCURVE",
"209 -89 OFFCURVE",
"217 -125 OFFCURVE",
"207 -145 QCURVE SMOOTH",
"196 -165 OFFCURVE",
"144 -188 OFFCURVE",
"117 -194 QCURVE SMOOTH",
"85 -201 OFFCURVE",
"49 -203 QCURVE",
"24 -163 LINE",
"50 -163 OFFCURVE",
"70 -159 QCURVE SMOOTH",
"87 -156 OFFCURVE",
"118 -140 OFFCURVE",
"120 -126 QCURVE SMOOTH",
"122 -112 OFFCURVE",
"103 -93 OFFCURVE",
"90 -88 QCURVE SMOOTH",
"75 -82 OFFCURVE",
"55 -78 QCURVE"
);
}
);
width = 243;
}
);
unicode = 00B8;
},
{
glyphname = oslash;
layers = (
{
layerId = "616D4D79-28E0-48D4-A99A-6A264E58F352";
paths = (
{
nodes = (
"214 -43 LINE",
"134 -43 LINE",
"339 718 LINE",
"419 718 LINE"
);
},
{
nodes = (
"297 683 LINE SMOOTH",
"344 683 OFFCURVE",
"427 647 OFFCURVE",
"489 585 OFFCURVE",
"525 502 OFFCURVE",
"525 455 QCURVE SMOOTH",
"525 227 LINE SMOOTH",
"525 180 OFFCURVE",
"489 97 OFFCURVE",
"427 35 OFFCURVE",
"344 0 OFFCURVE",
"297 0 QCURVE SMOOTH",
"252 0 LINE SMOOTH",
"205 0 OFFCURVE",
"122 35 OFFCURVE",
"60 97 OFFCURVE",
"24 180 OFFCURVE",
"24 227 QCURVE SMOOTH",
"24 455 LINE SMOOTH",
"24 502 OFFCURVE",
"60 585 OFFCURVE",
"122 647 OFFCURVE",
"205 683 OFFCURVE",
"252 683 QCURVE SMOOTH"
);
},
{
nodes = (
"297 136 LINE SMOOTH",
"335 136 OFFCURVE",
"388 189 OFFCURVE",
"388 227 QCURVE SMOOTH",
"388 455 LINE SMOOTH",
"388 493 OFFCURVE",
"335 546 OFFCURVE",
"297 546 QCURVE SMOOTH",
"252 546 LINE SMOOTH",
"233 546 OFFCURVE",
"200 532 OFFCURVE",
"175 507 OFFCURVE",
"161 474 OFFCURVE",
"161 455 QCURVE SMOOTH",
"161 227 LINE SMOOTH",
"161 208 OFFCURVE",
"175 175 OFFCURVE",
"200 150 OFFCURVE",
"233 136 OFFCURVE",
"252 136 QCURVE SMOOTH"
);
}
);
width = 553;
}
);
unicode = 00F8;
},
{
glyphname = Oslash;
layers = (
{
layerId = "616D4D79-28E0-48D4-A99A-6A264E58F352";
paths = (
{
nodes = (
"214 -43 LINE",
"134 -43 LINE",
"339 718 LINE",
"419 718 LINE"
);
},
{
nodes = (
"297 683 LINE SMOOTH",
"344 683 OFFCURVE",
"427 647 OFFCURVE",
"489 585 OFFCURVE",
"525 502 OFFCURVE",
"525 455 QCURVE SMOOTH",
"525 227 LINE SMOOTH",
"525 180 OFFCURVE",
"489 97 OFFCURVE",
"427 35 OFFCURVE",
"344 0 OFFCURVE",
"297 0 QCURVE SMOOTH",
"252 0 LINE SMOOTH",
"205 0 OFFCURVE",
"122 35 OFFCURVE",
"60 97 OFFCURVE",
"24 180 OFFCURVE",
"24 227 QCURVE SMOOTH",
"24 455 LINE SMOOTH",
"24 502 OFFCURVE",
"60 585 OFFCURVE",
"122 647 OFFCURVE",
"205 683 OFFCURVE",
"252 683 QCURVE SMOOTH"
);
},
{
nodes = (
"297 136 LINE SMOOTH",
"335 136 OFFCURVE",
"388 189 OFFCURVE",
"388 227 QCURVE SMOOTH",
"388 455 LINE SMOOTH",
"388 493 OFFCURVE",
"335 546 OFFCURVE",
"297 546 QCURVE SMOOTH",
"252 546 LINE SMOOTH",
"233 546 OFFCURVE",
"200 532 OFFCURVE",
"175 507 OFFCURVE",
"161 474 OFFCURVE",
"161 455 QCURVE SMOOTH",
"161 227 LINE SMOOTH",
"161 208 OFFCURVE",
"175 175 OFFCURVE",
"200 150 OFFCURVE",
"233 136 OFFCURVE",
"252 136 QCURVE SMOOTH"
);
}
);
width = 553;
}
);
unicode = 00D8;
},
{
glyphname = multiply;
layers = (
{
layerId = "616D4D79-28E0-48D4-A99A-6A264E58F352";
paths = (
{
nodes = (
"286 524 LINE",
"359 451 LINE",
"264 356 LINE",
"361 259 LINE",
"288 185 LINE",
"190 282 LINE",
"93 185 LINE",
"20 258 LINE",
"117 355 LINE",
"22 451 LINE",
"95 525 LINE",
"191 429 LINE"
);
}
);
width = 384;
}
);
unicode = 00D7;
},
{
glyphname = divide;
layers = (
{
layerId = "616D4D79-28E0-48D4-A99A-6A264E58F352";
paths = (
{
nodes = (
"32 288 LINE",
"32 392 LINE",
"378 392 LINE",
"378 288 LINE"
);
},
{
nodes = (
"234 253 OFFCURVE",
"274 214 OFFCURVE",
"274 187 QCURVE SMOOTH",
"274 159 OFFCURVE",
"234 120 OFFCURVE",
"207 120 QCURVE SMOOTH",
"179 120 OFFCURVE",
"140 159 OFFCURVE",
"140 187 QCURVE SMOOTH",
"140 214 OFFCURVE",
"179 253 OFFCURVE",
"207 253 QCURVE SMOOTH"
);
},
{
nodes = (
"234 563 OFFCURVE",
"274 524 OFFCURVE",
"274 497 QCURVE SMOOTH",
"274 469 OFFCURVE",
"234 430 OFFCURVE",
"207 430 QCURVE SMOOTH",
"179 430 OFFCURVE",
"140 469 OFFCURVE",
"140 497 QCURVE SMOOTH",
"140 524 OFFCURVE",
"179 563 OFFCURVE",
"207 563 QCURVE SMOOTH"
);
}
);
width = 410;
}
);
unicode = 00F7;
},
{
glyphname = yen;
layers = (
{
layerId = "616D4D79-28E0-48D4-A99A-6A264E58F352";
paths = (
{
nodes = (
"36 80 LINE",
"36 184 LINE",
"194 184 LINE",
"194 250 LINE",
"36 250 LINE",
"36 354 LINE",
"88 354 LINE",
"83 360 OFFCURVE",
"79 366 QCURVE SMOOTH",
"58 395 OFFCURVE",
"35 464 OFFCURVE",
"35 502 QCURVE SMOOTH",
"35 592 LINE SMOOTH",
"35 657 OFFCURVE",
"12 675 QCURVE SMOOTH",
"9 678 OFFCURVE",
"11 684 OFFCURVE",
"15 684 QCURVE SMOOTH",
"191 684 LINE SMOOTH",
"195 684 OFFCURVE",
"197 678 OFFCURVE",
"194 675 QCURVE SMOOTH",
"171 657 OFFCURVE",
"171 592 QCURVE SMOOTH",
"171 502 LINE SMOOTH",
"171 483 OFFCURVE",
"185 449 OFFCURVE",
"210 424 OFFCURVE",
"244 410 OFFCURVE",
"263 410 QCURVE SMOOTH",
"282 410 OFFCURVE",
"315 424 OFFCURVE",
"339 449 OFFCURVE",
"353 483 OFFCURVE",
"353 502 QCURVE SMOOTH",
"353 592 LINE SMOOTH",
"353 657 OFFCURVE",
"331 675 QCURVE SMOOTH",
"328 678 OFFCURVE",
"330 684 OFFCURVE",
"334 684 QCURVE SMOOTH",
"510 684 LINE SMOOTH",
"514 684 OFFCURVE",
"516 678 OFFCURVE",
"513 675 QCURVE SMOOTH",
"490 658 OFFCURVE",
"490 592 QCURVE SMOOTH",
"490 502 LINE SMOOTH",
"490 464 OFFCURVE",
"467 395 OFFCURVE",
"446 366 QCURVE SMOOTH",
"441 360 OFFCURVE",
"436 354 QCURVE",
"482 354 LINE",
"482 250 LINE",
"331 250 LINE",
"331 184 LINE",
"482 184 LINE",
"482 80 LINE",
"331 80 LINE",
"333 25 OFFCURVE",
"353 8 QCURVE SMOOTH",
"356 6 OFFCURVE",
"355 0 OFFCURVE",
"350 0 QCURVE SMOOTH",
"174 0 LINE SMOOTH",
"170 0 OFFCURVE",
"169 6 OFFCURVE",
"172 8 QCURVE SMOOTH",
"192 25 OFFCURVE",
"194 80 QCURVE"
);
}
);
width = 526;
}
);
unicode = 00A5;
},
{
glyphname = cent;
layers = (
{
layerId = "616D4D79-28E0-48D4-A99A-6A264E58F352";
paths = (
{
nodes = (
"239 0 LINE",
"156 0 LINE",
"156 144 LINE",
"135 147 OFFCURVE",
"116 156 QCURVE SMOOTH",
"87 169 OFFCURVE",
"43 213 OFFCURVE",
"19 271 OFFCURVE",
"19 305 QCURVE SMOOTH",
"19 392 LINE SMOOTH",
"19 425 OFFCURVE",
"43 484 OFFCURVE",
"87 528 OFFCURVE",
"116 541 QCURVE SMOOTH",
"135 549 OFFCURVE",
"156 552 QCURVE",
"156 700 LINE",
"239 700 LINE",
"239 552 LINE",
"257 548 OFFCURVE",
"274 541 QCURVE SMOOTH",
"304 528 OFFCURVE",
"348 484 OFFCURVE",
"373 425 OFFCURVE",
"373 392 QCURVE",
"259 392 LINE SMOOTH",
"253 392 OFFCURVE",
"256 397 QCURVE SMOOTH",
"268 413 OFFCURVE",
"255 437 QCURVE",
"252 440 OFFCURVE",
"247 447 OFFCURVE",
"242 449 QCURVE",
"229 457 OFFCURVE",
"212 457 QCURVE SMOOTH",
"179 457 LINE SMOOTH",
"152 457 OFFCURVE",
"115 419 OFFCURVE",
"115 392 QCURVE SMOOTH",
"115 305 LINE SMOOTH",
"115 278 OFFCURVE",
"152 240 OFFCURVE",
"179 240 QCURVE SMOOTH",
"212 240 LINE SMOOTH",
"220 240 OFFCURVE",
"234 245 OFFCURVE",
"242 248 QCURVE",
"249 252 OFFCURVE",
"255 261 QCURVE SMOOTH",
"268 283 OFFCURVE",
"256 300 QCURVE SMOOTH",
"253 305 OFFCURVE",
"259 305 QCURVE SMOOTH",
"373 305 LINE",
"373 271 OFFCURVE",
"348 213 OFFCURVE",
"304 169 OFFCURVE",
"274 156 QCURVE SMOOTH",
"257 148 OFFCURVE",
"239 145 QCURVE"
);
}
);
width = 394;
}
);
unicode = 00A2;
},
{
glyphname = Ohungarumlaut;
layers = (
{
layerId = "616D4D79-28E0-48D4-A99A-6A264E58F352";
paths = (
{
nodes = (
"297 677 LINE SMOOTH",
"344 677 OFFCURVE",
"427 641 OFFCURVE",
"489 579 OFFCURVE",
"525 496 OFFCURVE",
"525 449 QCURVE SMOOTH",
"525 221 LINE SMOOTH",
"525 174 OFFCURVE",
"489 91 OFFCURVE",
"427 29 OFFCURVE",
"344 -6 OFFCURVE",
"297 -6 QCURVE SMOOTH",
"252 -6 LINE SMOOTH",
"205 -6 OFFCURVE",
"122 29 OFFCURVE",
"60 91 OFFCURVE",
"24 174 OFFCURVE",
"24 221 QCURVE SMOOTH",
"24 449 LINE SMOOTH",
"24 496 OFFCURVE",
"60 579 OFFCURVE",
"122 641 OFFCURVE",
"205 677 OFFCURVE",
"252 677 QCURVE SMOOTH"
);
},
{
nodes = (
"297 130 LINE SMOOTH",
"335 130 OFFCURVE",
"388 183 OFFCURVE",
"388 221 QCURVE SMOOTH",
"388 449 LINE SMOOTH",
"388 487 OFFCURVE",
"335 540 OFFCURVE",
"297 540 QCURVE SMOOTH",
"252 540 LINE SMOOTH",
"233 540 OFFCURVE",
"200 526 OFFCURVE",
"175 501 OFFCURVE",
"161 468 OFFCURVE",
"161 449 QCURVE SMOOTH",
"161 221 LINE SMOOTH",
"161 202 OFFCURVE",
"175 169 OFFCURVE",
"200 144 OFFCURVE",
"233 130 OFFCURVE",
"252 130 QCURVE SMOOTH"
);
},
{
nodes = (
"86 729 LINE",
"150 852 LINE",
"285 852 LINE",
"218 729 LINE"
);
},
{
nodes = (
"285 729 LINE",
"349 852 LINE",
"485 852 LINE",
"418 729 LINE"
);
}
);
width = 553;
}
);
unicode = 0150;
},
{
glyphname = racute;
layers = (
{
layerId = "616D4D79-28E0-48D4-A99A-6A264E58F352";
paths = (
{
nodes = (
"492 6 OFFCURVE",
"490 0 OFFCURVE",
"486 0 QCURVE SMOOTH",
"310 0 LINE SMOOTH",
"306 0 OFFCURVE",
"304 6 OFFCURVE",
"307 8 QCURVE SMOOTH",
"330 27 OFFCURVE",
"330 91 QCURVE SMOOTH",
"330 160 LINE SMOOTH",
"330 188 OFFCURVE",
"309 238 OFFCURVE",
"271 275 OFFCURVE",
"221 296 OFFCURVE",
"193 296 QCURVE SMOOTH",
"171 296 LINE",
"171 91 LINE SMOOTH",
"171 27 OFFCURVE",
"193 8 QCURVE SMOOTH",
"196 6 OFFCURVE",
"195 0 OFFCURVE",
"190 0 QCURVE SMOOTH",
"14 0 LINE SMOOTH",
"10 0 OFFCURVE",
"8 6 OFFCURVE",
"12 8 QCURVE",
"34 28 OFFCURVE",
"34 91 QCURVE SMOOTH",
"34 592 LINE SMOOTH",
"34 656 OFFCURVE",
"12 675 QCURVE SMOOTH",
"8 678 OFFCURVE",
"10 684 OFFCURVE",
"14 684 QCURVE SMOOTH",
"272 684 LINE SMOOTH",
"312 684 OFFCURVE",
"383 653 OFFCURVE",
"436 600 OFFCURVE",
"467 529 OFFCURVE",
"467 489 QCURVE SMOOTH",
"467 446 OFFCURVE",
"431 368 OFFCURVE",
"398 341 QCURVE",
"434 299 OFFCURVE",
"467 214 OFFCURVE",
"467 160 QCURVE SMOOTH",
"467 91 LINE SMOOTH",
"467 27 OFFCURVE",
"489 8 QCURVE SMOOTH"
);
},
{
nodes = (
"272 431 LINE SMOOTH",
"296 431 OFFCURVE",
"330 464 OFFCURVE",
"330 489 QCURVE SMOOTH",
"330 513 OFFCURVE",
"296 547 OFFCURVE",
"272 547 QCURVE SMOOTH",
"171 547 LINE",
"171 431 LINE"
);
},
{
nodes = (
"151 729 LINE",
"215 852 LINE",
"351 852 LINE",
"284 729 LINE"
);
}
);
width = 502;
}
);
unicode = 0155;
},
{
glyphname = Racute;
layers = (
{
layerId = "616D4D79-28E0-48D4-A99A-6A264E58F352";
paths = (
{
nodes = (
"492 6 OFFCURVE",
"490 0 OFFCURVE",
"486 0 QCURVE SMOOTH",
"310 0 LINE SMOOTH",
"306 0 OFFCURVE",
"304 6 OFFCURVE",
"307 8 QCURVE SMOOTH",
"330 27 OFFCURVE",
"330 91 QCURVE SMOOTH",
"330 160 LINE SMOOTH",
"330 188 OFFCURVE",
"309 238 OFFCURVE",
"271 275 OFFCURVE",
"221 296 OFFCURVE",
"193 296 QCURVE SMOOTH",
"171 296 LINE",
"171 91 LINE SMOOTH",
"171 27 OFFCURVE",
"193 8 QCURVE SMOOTH",
"196 6 OFFCURVE",
"195 0 OFFCURVE",
"190 0 QCURVE SMOOTH",
"14 0 LINE SMOOTH",
"10 0 OFFCURVE",
"8 6 OFFCURVE",
"12 8 QCURVE",
"34 28 OFFCURVE",
"34 91 QCURVE SMOOTH",
"34 592 LINE SMOOTH",
"34 656 OFFCURVE",
"12 675 QCURVE SMOOTH",
"8 678 OFFCURVE",
"10 684 OFFCURVE",
"14 684 QCURVE SMOOTH",
"272 684 LINE SMOOTH",
"312 684 OFFCURVE",
"383 653 OFFCURVE",
"436 600 OFFCURVE",
"467 529 OFFCURVE",
"467 489 QCURVE SMOOTH",
"467 446 OFFCURVE",
"431 368 OFFCURVE",
"398 341 QCURVE",
"434 299 OFFCURVE",
"467 214 OFFCURVE",
"467 160 QCURVE SMOOTH",
"467 91 LINE SMOOTH",
"467 27 OFFCURVE",
"489 8 QCURVE SMOOTH"
);
},
{
nodes = (
"272 431 LINE SMOOTH",
"296 431 OFFCURVE",
"330 464 OFFCURVE",
"330 489 QCURVE SMOOTH",
"330 513 OFFCURVE",
"296 547 OFFCURVE",
"272 547 QCURVE SMOOTH",
"171 547 LINE",
"171 431 LINE"
);
},
{
nodes = (
"151 729 LINE",
"215 852 LINE",
"351 852 LINE",
"284 729 LINE"
);
}
);
width = 502;
}
);
unicode = 0154;
},
{
glyphname = rcaron;
layers = (
{
layerId = "616D4D79-28E0-48D4-A99A-6A264E58F352";
paths = (
{
nodes = (
"492 6 OFFCURVE",
"490 0 OFFCURVE",
"486 0 QCURVE SMOOTH",
"310 0 LINE SMOOTH",
"306 0 OFFCURVE",
"304 6 OFFCURVE",
"307 8 QCURVE SMOOTH",
"330 27 OFFCURVE",
"330 91 QCURVE SMOOTH",
"330 160 LINE SMOOTH",
"330 188 OFFCURVE",
"309 238 OFFCURVE",
"271 275 OFFCURVE",
"221 296 OFFCURVE",
"193 296 QCURVE SMOOTH",
"171 296 LINE",
"171 91 LINE SMOOTH",
"171 27 OFFCURVE",
"193 8 QCURVE SMOOTH",
"196 6 OFFCURVE",
"195 0 OFFCURVE",
"190 0 QCURVE SMOOTH",
"14 0 LINE SMOOTH",
"10 0 OFFCURVE",
"8 6 OFFCURVE",
"12 8 QCURVE",
"34 28 OFFCURVE",
"34 91 QCURVE SMOOTH",
"34 591 LINE SMOOTH",
"34 655 OFFCURVE",
"12 674 QCURVE SMOOTH",
"8 677 OFFCURVE",
"10 683 OFFCURVE",
"14 683 QCURVE SMOOTH",
"272 683 LINE SMOOTH",
"312 683 OFFCURVE",
"383 652 OFFCURVE",
"436 599 OFFCURVE",
"467 529 OFFCURVE",
"467 489 QCURVE SMOOTH",
"467 446 OFFCURVE",
"431 368 OFFCURVE",
"398 341 QCURVE",
"434 299 OFFCURVE",
"467 214 OFFCURVE",
"467 160 QCURVE SMOOTH",
"467 91 LINE SMOOTH",
"467 27 OFFCURVE",
"489 8 QCURVE SMOOTH"
);
},
{
nodes = (
"272 431 LINE SMOOTH",
"296 431 OFFCURVE",
"330 464 OFFCURVE",
"330 489 QCURVE SMOOTH",
"330 513 OFFCURVE",
"296 547 OFFCURVE",
"272 547 QCURVE SMOOTH",
"171 547 LINE",
"171 431 LINE"
);
},
{
nodes = (
"71 862 LINE",
"206 862 LINE",
"250 780 LINE",
"295 862 LINE",
"430 862 LINE",
"363 739 LINE",
"138 739 LINE"
);
}
);
width = 502;
}
);
unicode = 0159;
},
{
glyphname = periodcentered;
layers = (
{
layerId = "616D4D79-28E0-48D4-A99A-6A264E58F352";
paths = (
{
nodes = (
"17 359 OFFCURVE",
"56 398 OFFCURVE",
"83 398 QCURVE SMOOTH",
"110 398 OFFCURVE",
"149 359 OFFCURVE",
"149 332 QCURVE SMOOTH",
"149 305 OFFCURVE",
"110 266 OFFCURVE",
"83 266 QCURVE SMOOTH",
"56 266 OFFCURVE",
"17 305 OFFCURVE",
"17 332 QCURVE SMOOTH"
);
}
);
width = 163;
}
);
unicode = 00B7;
},
{
glyphname = Dcaron;
layers = (
{
layerId = "616D4D79-28E0-48D4-A99A-6A264E58F352";
paths = (
{
nodes = (
"275 684 LINE SMOOTH",
"322 684 OFFCURVE",
"405 648 OFFCURVE",
"466 586 OFFCURVE",
"502 503 OFFCURVE",
"502 456 QCURVE SMOOTH",
"502 228 LINE SMOOTH",
"502 181 OFFCURVE",
"466 98 OFFCURVE",
"405 36 OFFCURVE",
"322 0 OFFCURVE",
"275 0 QCURVE SMOOTH",
"27 0 LINE SMOOTH",
"23 0 OFFCURVE",
"21 6 OFFCURVE",
"25 9 QCURVE SMOOTH",
"47 28 OFFCURVE",
"47 92 QCURVE SMOOTH",
"47 593 LINE SMOOTH",
"47 656 OFFCURVE",
"25 676 QCURVE",
"21 678 OFFCURVE",
"23 684 OFFCURVE",
"27 684 QCURVE SMOOTH"
);
},
{
nodes = (
"275 137 LINE SMOOTH",
"313 137 OFFCURVE",
"366 190 OFFCURVE",
"366 228 QCURVE SMOOTH",
"366 456 LINE SMOOTH",
"366 494 OFFCURVE",
"313 547 OFFCURVE",
"275 547 QCURVE SMOOTH",
"184 547 LINE",
"184 137 LINE"
);
},
{
nodes = (
"51 862 LINE",
"186 862 LINE",
"230 780 LINE",
"275 862 LINE",
"410 862 LINE",
"343 739 LINE",
"118 739 LINE"
);
}
);
width = 534;
}
);
unicode = 010E;
},
{
glyphname = Eth;
layers = (
{
layerId = "616D4D79-28E0-48D4-A99A-6A264E58F352";
paths = (
{
nodes = (
"24 294 LINE",
"24 398 LINE",
"68 398 LINE",
"68 593 LINE SMOOTH",
"68 656 OFFCURVE",
"46 676 QCURVE",
"42 678 OFFCURVE",
"44 684 OFFCURVE",
"48 684 QCURVE SMOOTH",
"296 684 LINE SMOOTH",
"343 684 OFFCURVE",
"426 648 OFFCURVE",
"487 586 OFFCURVE",
"523 503 OFFCURVE",
"523 456 QCURVE SMOOTH",
"523 228 LINE SMOOTH",
"523 181 OFFCURVE",
"487 98 OFFCURVE",
"426 36 OFFCURVE",
"343 0 OFFCURVE",
"296 0 QCURVE SMOOTH",
"48 0 LINE SMOOTH",
"44 0 OFFCURVE",
"42 6 OFFCURVE",
"46 9 QCURVE SMOOTH",
"68 28 OFFCURVE",
"68 92 QCURVE SMOOTH",
"68 294 LINE"
);
},
{
nodes = (
"296 137 LINE SMOOTH",
"334 137 OFFCURVE",
"387 190 OFFCURVE",
"387 228 QCURVE SMOOTH",
"387 456 LINE SMOOTH",
"387 494 OFFCURVE",
"334 547 OFFCURVE",
"296 547 QCURVE SMOOTH",
"205 547 LINE",
"205 398 LINE",
"345 398 LINE",
"345 294 LINE",
"205 294 LINE",
"205 137 LINE"
);
}
);
width = 544;
}
);
unicode = 00D0;
},
{
glyphname = eth;
layers = (
{
layerId = "616D4D79-28E0-48D4-A99A-6A264E58F352";
paths = (
{
nodes = (
"24 294 LINE",
"24 398 LINE",
"68 398 LINE",
"68 593 LINE SMOOTH",
"68 656 OFFCURVE",
"46 676 QCURVE",
"42 678 OFFCURVE",
"44 684 OFFCURVE",
"48 684 QCURVE SMOOTH",
"296 684 LINE SMOOTH",
"343 684 OFFCURVE",
"426 648 OFFCURVE",
"487 586 OFFCURVE",
"523 503 OFFCURVE",
"523 456 QCURVE SMOOTH",
"523 228 LINE SMOOTH",
"523 181 OFFCURVE",
"487 98 OFFCURVE",
"426 36 OFFCURVE",
"343 0 OFFCURVE",
"296 0 QCURVE SMOOTH",
"48 0 LINE SMOOTH",
"44 0 OFFCURVE",
"42 6 OFFCURVE",
"46 9 QCURVE SMOOTH",
"68 28 OFFCURVE",
"68 92 QCURVE SMOOTH",
"68 294 LINE"
);
},
{
nodes = (
"296 137 LINE SMOOTH",
"334 137 OFFCURVE",
"387 190 OFFCURVE",
"387 228 QCURVE SMOOTH",
"387 456 LINE SMOOTH",
"387 494 OFFCURVE",
"334 547 OFFCURVE",
"296 547 QCURVE SMOOTH",
"205 547 LINE",
"205 398 LINE",
"345 398 LINE",
"345 294 LINE",
"205 294 LINE",
"205 137 LINE"
);
}
);
width = 544;
}
);
unicode = 00F0;
},
{
glyphname = Dcroat;
layers = (
{
layerId = "616D4D79-28E0-48D4-A99A-6A264E58F352";
paths = (
{
nodes = (
"24 294 LINE",
"24 398 LINE",
"68 398 LINE",
"68 593 LINE SMOOTH",
"68 656 OFFCURVE",
"46 676 QCURVE",
"42 678 OFFCURVE",
"44 684 OFFCURVE",
"48 684 QCURVE SMOOTH",
"296 684 LINE SMOOTH",
"343 684 OFFCURVE",
"426 648 OFFCURVE",
"487 586 OFFCURVE",
"523 503 OFFCURVE",
"523 456 QCURVE SMOOTH",
"523 228 LINE SMOOTH",
"523 181 OFFCURVE",
"487 98 OFFCURVE",
"426 36 OFFCURVE",
"343 0 OFFCURVE",
"296 0 QCURVE SMOOTH",
"48 0 LINE SMOOTH",
"44 0 OFFCURVE",
"42 6 OFFCURVE",
"46 9 QCURVE SMOOTH",
"68 28 OFFCURVE",
"68 92 QCURVE SMOOTH",
"68 294 LINE"
);
},
{
nodes = (
"296 137 LINE SMOOTH",
"334 137 OFFCURVE",
"387 190 OFFCURVE",
"387 228 QCURVE SMOOTH",
"387 456 LINE SMOOTH",
"387 494 OFFCURVE",
"334 547 OFFCURVE",
"296 547 QCURVE SMOOTH",
"205 547 LINE",
"205 398 LINE",
"345 398 LINE",
"345 294 LINE",
"205 294 LINE",
"205 137 LINE"
);
}
);
width = 544;
}
);
unicode = 0110;
},
{
glyphname = dcroat;
layers = (
{
layerId = "616D4D79-28E0-48D4-A99A-6A264E58F352";
paths = (
{
nodes = (
"24 294 LINE",
"24 398 LINE",
"68 398 LINE",
"68 593 LINE SMOOTH",
"68 656 OFFCURVE",
"46 676 QCURVE",
"42 678 OFFCURVE",
"44 684 OFFCURVE",
"48 684 QCURVE SMOOTH",
"296 684 LINE SMOOTH",
"343 684 OFFCURVE",
"426 648 OFFCURVE",
"487 586 OFFCURVE",
"523 503 OFFCURVE",
"523 456 QCURVE SMOOTH",
"523 228 LINE SMOOTH",
"523 181 OFFCURVE",
"487 98 OFFCURVE",
"426 36 OFFCURVE",
"343 0 OFFCURVE",
"296 0 QCURVE SMOOTH",
"48 0 LINE SMOOTH",
"44 0 OFFCURVE",
"42 6 OFFCURVE",
"46 9 QCURVE SMOOTH",
"68 28 OFFCURVE",
"68 92 QCURVE SMOOTH",
"68 294 LINE"
);
},
{
nodes = (
"296 137 LINE SMOOTH",
"334 137 OFFCURVE",
"387 190 OFFCURVE",
"387 228 QCURVE SMOOTH",
"387 456 LINE SMOOTH",
"387 494 OFFCURVE",
"334 547 OFFCURVE",
"296 547 QCURVE SMOOTH",
"205 547 LINE",
"205 398 LINE",
"345 398 LINE",
"345 294 LINE",
"205 294 LINE",
"205 137 LINE"
);
}
);
width = 544;
}
);
unicode = 0111;
},
{
glyphname = Lcaron;
layers = (
{
layerId = "616D4D79-28E0-48D4-A99A-6A264E58F352";
paths = (
{
nodes = (
"429 6 OFFCURVE",
"428 0 OFFCURVE",
"423 0 QCURVE SMOOTH",
"19 0 LINE",
"9 2 OFFCURVE",
"17 8 QCURVE SMOOTH",
"39 27 OFFCURVE",
"39 91 QCURVE SMOOTH",
"39 592 LINE SMOOTH",
"39 656 OFFCURVE",
"17 675 QCURVE SMOOTH",
"9 683 OFFCURVE",
"20 683 QCURVE SMOOTH",
"195 683 LINE SMOOTH",
"200 683 OFFCURVE",
"202 678 OFFCURVE",
"198 675 QCURVE SMOOTH",
"176 656 OFFCURVE",
"176 592 QCURVE SMOOTH",
"176 137 LINE",
"312 137 LINE SMOOTH",
"377 137 OFFCURVE",
"395 159 QCURVE SMOOTH",
"398 162 OFFCURVE",
"404 161 OFFCURVE",
"404 156 QCURVE SMOOTH",
"404 91 LINE SMOOTH",
"404 27 OFFCURVE",
"426 8 QCURVE SMOOTH"
);
},
{
nodes = (
"38 862 LINE",
"173 862 LINE",
"217 780 LINE",
"262 862 LINE",
"397 862 LINE",
"330 739 LINE",
"105 739 LINE"
);
}
);
width = 445;
}
);
unicode = 013D;
},
{
glyphname = Lslash;
layers = (
{
layerId = "616D4D79-28E0-48D4-A99A-6A264E58F352";
paths = (
{
nodes = (
"21 273 LINE",
"21 392 LINE",
"65 411 LINE",
"65 592 LINE SMOOTH",
"65 656 OFFCURVE",
"43 675 QCURVE SMOOTH",
"35 683 OFFCURVE",
"46 683 QCURVE SMOOTH",
"221 683 LINE SMOOTH",
"226 683 OFFCURVE",
"228 678 OFFCURVE",
"224 675 QCURVE SMOOTH",
"202 656 OFFCURVE",
"202 592 QCURVE SMOOTH",
"202 469 LINE",
"320 520 LINE",
"320 401 LINE",
"202 350 LINE",
"202 137 LINE",
"338 137 LINE SMOOTH",
"403 137 OFFCURVE",
"421 159 QCURVE SMOOTH",
"424 162 OFFCURVE",
"430 161 OFFCURVE",
"430 156 QCURVE SMOOTH",
"430 91 LINE SMOOTH",
"430 27 OFFCURVE",
"452 8 QCURVE SMOOTH",
"455 6 OFFCURVE",
"454 0 OFFCURVE",
"449 0 QCURVE SMOOTH",
"45 0 LINE",
"35 2 OFFCURVE",
"43 8 QCURVE SMOOTH",
"65 27 OFFCURVE",
"65 91 QCURVE SMOOTH",
"65 292 LINE"
);
}
);
width = 464;
}
);
unicode = 0141;
},
{
glyphname = lslash;
layers = (
{
layerId = "616D4D79-28E0-48D4-A99A-6A264E58F352";
paths = (
{
nodes = (
"21 273 LINE",
"21 392 LINE",
"65 411 LINE",
"65 592 LINE SMOOTH",
"65 656 OFFCURVE",
"43 675 QCURVE SMOOTH",
"35 683 OFFCURVE",
"46 683 QCURVE SMOOTH",
"221 683 LINE SMOOTH",
"226 683 OFFCURVE",
"228 678 OFFCURVE",
"224 675 QCURVE SMOOTH",
"202 656 OFFCURVE",
"202 592 QCURVE SMOOTH",
"202 469 LINE",
"320 520 LINE",
"320 401 LINE",
"202 350 LINE",
"202 137 LINE",
"338 137 LINE SMOOTH",
"403 137 OFFCURVE",
"421 159 QCURVE SMOOTH",
"424 162 OFFCURVE",
"430 161 OFFCURVE",
"430 156 QCURVE SMOOTH",
"430 91 LINE SMOOTH",
"430 27 OFFCURVE",
"452 8 QCURVE SMOOTH",
"455 6 OFFCURVE",
"454 0 OFFCURVE",
"449 0 QCURVE SMOOTH",
"45 0 LINE",
"35 2 OFFCURVE",
"43 8 QCURVE SMOOTH",
"65 27 OFFCURVE",
"65 91 QCURVE SMOOTH",
"65 292 LINE"
);
}
);
width = 464;
}
);
unicode = 0142;
},
{
glyphname = Tcaron;
layers = (
{
layerId = "616D4D79-28E0-48D4-A99A-6A264E58F352";
paths = (
{
nodes = (
"512 683 LINE SMOOTH",
"516 683 OFFCURVE",
"518 678 OFFCURVE",
"514 675 QCURVE SMOOTH",
"509 670 OFFCURVE",
"501 654 OFFCURVE",
"495 625 OFFCURVE",
"492 580 OFFCURVE",
"492 547 QCURVE SMOOTH",
"492 527 LINE SMOOTH",
"492 523 OFFCURVE",
"486 521 OFFCURVE",
"484 524 QCURVE SMOOTH",
"464 547 OFFCURVE",
"401 547 QCURVE SMOOTH",
"332 547 LINE",
"332 91 LINE SMOOTH",
"332 27 OFFCURVE",
"354 8 QCURVE SMOOTH",
"357 6 OFFCURVE",
"356 0 OFFCURVE",
"351 0 QCURVE SMOOTH",
"175 0 LINE SMOOTH",
"171 0 OFFCURVE",
"169 6 OFFCURVE",
"173 8 QCURVE",
"195 28 OFFCURVE",
"195 91 QCURVE SMOOTH",
"195 547 LINE",
"126 547 LINE SMOOTH",
"61 547 OFFCURVE",
"43 524 QCURVE SMOOTH",
"40 521 OFFCURVE",
"35 523 OFFCURVE",
"35 527 QCURVE SMOOTH",
"35 592 LINE SMOOTH",
"35 655 OFFCURVE",
"12 675 QCURVE SMOOTH",
"9 678 OFFCURVE",
"11 683 OFFCURVE",
"15 683 QCURVE SMOOTH"
);
},
{
nodes = (
"71 862 LINE",
"206 862 LINE",
"250 780 LINE",
"295 862 LINE",
"430 862 LINE",
"363 739 LINE",
"138 739 LINE"
);
}
);
width = 530;
}
);
unicode = 0164;
},
{
glyphname = Thorn;
layers = (
{
layerId = "616D4D79-28E0-48D4-A99A-6A264E58F352";
paths = (
{
nodes = (
"296 236 LINE SMOOTH",
"334 236 OFFCURVE",
"387 289 OFFCURVE",
"387 327 QCURVE SMOOTH",
"387 356 LINE SMOOTH",
"387 394 OFFCURVE",
"334 447 OFFCURVE",
"296 447 QCURVE SMOOTH",
"165 447 LINE",
"165 584 LINE",
"296 584 LINE SMOOTH",
"343 584 OFFCURVE",
"426 548 OFFCURVE",
"488 486 OFFCURVE",
"524 403 OFFCURVE",
"524 356 QCURVE SMOOTH",
"524 327 LINE SMOOTH",
"524 280 OFFCURVE",
"488 197 OFFCURVE",
"426 135 OFFCURVE",
"343 100 OFFCURVE",
"296 100 QCURVE SMOOTH",
"165 100 LINE",
"165 236 LINE"
);
},
{
nodes = (
"186 91 LINE SMOOTH",
"186 27 OFFCURVE",
"209 8 QCURVE SMOOTH",
"211 6 OFFCURVE",
"210 0 OFFCURVE",
"205 0 QCURVE SMOOTH",
"30 0 LINE SMOOTH",
"25 0 OFFCURVE",
"24 6 OFFCURVE",
"27 8 QCURVE SMOOTH",
"49 27 OFFCURVE",
"49 91 QCURVE SMOOTH",
"49 592 LINE SMOOTH",
"49 657 OFFCURVE",
"27 675 QCURVE",
"19 683 OFFCURVE",
"30 683 QCURVE SMOOTH",
"205 683 LINE SMOOTH",
"215 683 OFFCURVE",
"209 675 QCURVE",
"186 658 OFFCURVE",
"186 592 QCURVE SMOOTH"
);
}
);
width = 550;
}
);
unicode = 00DE;
},
{
glyphname = zero;
layers = (
{
layerId = "616D4D79-28E0-48D4-A99A-6A264E58F352";
paths = (
{
nodes = (
"297 683 LINE SMOOTH",
"344 683 OFFCURVE",
"427 647 OFFCURVE",
"489 585 OFFCURVE",
"525 502 OFFCURVE",
"525 455 QCURVE SMOOTH",
"525 227 LINE SMOOTH",
"525 180 OFFCURVE",
"489 97 OFFCURVE",
"427 35 OFFCURVE",
"344 0 OFFCURVE",
"297 0 QCURVE SMOOTH",
"252 0 LINE SMOOTH",
"205 0 OFFCURVE",
"122 35 OFFCURVE",
"60 97 OFFCURVE",
"24 180 OFFCURVE",
"24 227 QCURVE SMOOTH",
"24 455 LINE SMOOTH",
"24 502 OFFCURVE",
"60 585 OFFCURVE",
"122 647 OFFCURVE",
"205 683 OFFCURVE",
"252 683 QCURVE SMOOTH"
);
},
{
nodes = (
"297 136 LINE SMOOTH",
"335 136 OFFCURVE",
"388 189 OFFCURVE",
"388 227 QCURVE SMOOTH",
"388 455 LINE SMOOTH",
"388 493 OFFCURVE",
"335 546 OFFCURVE",
"297 546 QCURVE SMOOTH",
"252 546 LINE SMOOTH",
"233 546 OFFCURVE",
"200 532 OFFCURVE",
"175 507 OFFCURVE",
"161 474 OFFCURVE",
"161 455 QCURVE SMOOTH",
"161 227 LINE SMOOTH",
"161 208 OFFCURVE",
"175 175 OFFCURVE",
"200 150 OFFCURVE",
"233 136 OFFCURVE",
"252 136 QCURVE SMOOTH"
);
}
);
width = 553;
}
);
unicode = 0030;
},
{
glyphname = thorn;
layers = (
{
layerId = "616D4D79-28E0-48D4-A99A-6A264E58F352";
paths = (
{
nodes = (
"296 236 LINE SMOOTH",
"334 236 OFFCURVE",
"387 289 OFFCURVE",
"387 327 QCURVE SMOOTH",
"387 356 LINE SMOOTH",
"387 394 OFFCURVE",
"334 447 OFFCURVE",
"296 447 QCURVE SMOOTH",
"165 447 LINE",
"165 584 LINE",
"296 584 LINE SMOOTH",
"343 584 OFFCURVE",
"426 548 OFFCURVE",
"488 486 OFFCURVE",
"524 403 OFFCURVE",
"524 356 QCURVE SMOOTH",
"524 327 LINE SMOOTH",
"524 280 OFFCURVE",
"488 197 OFFCURVE",
"426 135 OFFCURVE",
"343 100 OFFCURVE",
"296 100 QCURVE SMOOTH",
"165 100 LINE",
"165 236 LINE"
);
},
{
nodes = (
"186 91 LINE SMOOTH",
"186 27 OFFCURVE",
"209 8 QCURVE SMOOTH",
"211 6 OFFCURVE",
"210 0 OFFCURVE",
"205 0 QCURVE SMOOTH",
"30 0 LINE SMOOTH",
"25 0 OFFCURVE",
"24 6 OFFCURVE",
"27 8 QCURVE SMOOTH",
"49 27 OFFCURVE",
"49 91 QCURVE SMOOTH",
"49 592 LINE SMOOTH",
"49 657 OFFCURVE",
"27 675 QCURVE",
"19 683 OFFCURVE",
"30 683 QCURVE SMOOTH",
"205 683 LINE SMOOTH",
"215 683 OFFCURVE",
"209 675 QCURVE",
"186 658 OFFCURVE",
"186 592 QCURVE SMOOTH"
);
}
);
width = 550;
}
);
unicode = 00FE;
},
{
glyphname = r;
layers = (
{
layerId = "616D4D79-28E0-48D4-A99A-6A264E58F352";
paths = (
{
nodes = (
"492 6 OFFCURVE",
"490 0 OFFCURVE",
"486 0 QCURVE SMOOTH",
"310 0 LINE SMOOTH",
"306 0 OFFCURVE",
"304 6 OFFCURVE",
"307 8 QCURVE SMOOTH",
"330 27 OFFCURVE",
"330 91 QCURVE SMOOTH",
"330 160 LINE SMOOTH",
"330 188 OFFCURVE",
"309 238 OFFCURVE",
"271 275 OFFCURVE",
"221 296 OFFCURVE",
"193 296 QCURVE SMOOTH",
"171 296 LINE",
"171 91 LINE SMOOTH",
"171 27 OFFCURVE",
"193 8 QCURVE SMOOTH",
"196 6 OFFCURVE",
"195 0 OFFCURVE",
"190 0 QCURVE SMOOTH",
"14 0 LINE SMOOTH",
"10 0 OFFCURVE",
"8 6 OFFCURVE",
"12 8 QCURVE",
"34 28 OFFCURVE",
"34 91 QCURVE SMOOTH",
"34 592 LINE SMOOTH",
"34 655 OFFCURVE",
"12 674 QCURVE SMOOTH",
"8 677 OFFCURVE",
"10 683 OFFCURVE",
"14 683 QCURVE SMOOTH",
"272 683 LINE SMOOTH",
"312 683 OFFCURVE",
"383 652 OFFCURVE",
"436 600 OFFCURVE",
"467 529 OFFCURVE",
"467 489 QCURVE SMOOTH",
"467 446 OFFCURVE",
"431 368 OFFCURVE",
"398 341 QCURVE",
"434 299 OFFCURVE",
"467 214 OFFCURVE",
"467 160 QCURVE SMOOTH",
"467 91 LINE SMOOTH",
"467 27 OFFCURVE",
"489 8 QCURVE SMOOTH"
);
},
{
nodes = (
"272 431 LINE SMOOTH",
"296 431 OFFCURVE",
"330 464 OFFCURVE",
"330 489 QCURVE SMOOTH",
"330 513 OFFCURVE",
"296 547 OFFCURVE",
"272 547 QCURVE SMOOTH",
"171 547 LINE",
"171 431 LINE"
);
}
);
width = 502;
}
);
unicode = 0072;
},
{
glyphname = Rcaron;
layers = (
{
layerId = "616D4D79-28E0-48D4-A99A-6A264E58F352";
paths = (
{
nodes = (
"492 6 OFFCURVE",
"490 0 OFFCURVE",
"486 0 QCURVE SMOOTH",
"310 0 LINE SMOOTH",
"306 0 OFFCURVE",
"304 6 OFFCURVE",
"307 8 QCURVE SMOOTH",
"330 27 OFFCURVE",
"330 91 QCURVE SMOOTH",
"330 160 LINE SMOOTH",
"330 188 OFFCURVE",
"309 238 OFFCURVE",
"271 275 OFFCURVE",
"221 296 OFFCURVE",
"193 296 QCURVE SMOOTH",
"171 296 LINE",
"171 91 LINE SMOOTH",
"171 27 OFFCURVE",
"193 8 QCURVE SMOOTH",
"196 6 OFFCURVE",
"195 0 OFFCURVE",
"190 0 QCURVE SMOOTH",
"14 0 LINE SMOOTH",
"10 0 OFFCURVE",
"8 6 OFFCURVE",
"12 8 QCURVE",
"34 28 OFFCURVE",
"34 91 QCURVE SMOOTH",
"34 591 LINE SMOOTH",
"34 655 OFFCURVE",
"12 674 QCURVE SMOOTH",
"8 677 OFFCURVE",
"10 683 OFFCURVE",
"14 683 QCURVE SMOOTH",
"272 683 LINE SMOOTH",
"312 683 OFFCURVE",
"383 652 OFFCURVE",
"436 599 OFFCURVE",
"467 529 OFFCURVE",
"467 489 QCURVE SMOOTH",
"467 446 OFFCURVE",
"431 368 OFFCURVE",
"398 341 QCURVE",
"434 299 OFFCURVE",
"467 214 OFFCURVE",
"467 160 QCURVE SMOOTH",
"467 91 LINE SMOOTH",
"467 27 OFFCURVE",
"489 8 QCURVE SMOOTH"
);
},
{
nodes = (
"272 431 LINE SMOOTH",
"296 431 OFFCURVE",
"330 464 OFFCURVE",
"330 489 QCURVE SMOOTH",
"330 513 OFFCURVE",
"296 547 OFFCURVE",
"272 547 QCURVE SMOOTH",
"171 547 LINE",
"171 431 LINE"
);
},
{
nodes = (
"71 862 LINE",
"206 862 LINE",
"250 780 LINE",
"295 862 LINE",
"430 862 LINE",
"363 739 LINE",
"138 739 LINE"
);
}
);
width = 502;
}
);
unicode = 0158;
},
{
glyphname = sterling;
layers = (
{
layerId = "616D4D79-28E0-48D4-A99A-6A264E58F352";
paths = (
{
nodes = (
"434 136 LINE SMOOTH",
"443 136 OFFCURVE",
"467 137 OFFCURVE",
"490 141 OFFCURVE",
"511 151 OFFCURVE",
"517 159 QCURVE",
"526 156 LINE",
"526 0 LINE",
"25 0 LINE",
"25 136 LINE",
"29 139 OFFCURVE",
"47 160 OFFCURVE",
"71 188 OFFCURVE",
"98 219 OFFCURVE",
"109 233 QCURVE",
"34 233 LINE",
"34 336 LINE",
"84 336 LINE",
"62 362 OFFCURVE",
"26 432 OFFCURVE",
"26 478 QCURVE SMOOTH",
"26 520 OFFCURVE",
"59 595 OFFCURVE",
"115 651 OFFCURVE",
"190 683 OFFCURVE",
"232 683 QCURVE SMOOTH",
"324 683 LINE SMOOTH",
"366 683 OFFCURVE",
"440 650 OFFCURVE",
"495 595 OFFCURVE",
"527 520 OFFCURVE",
"527 478 QCURVE",
"372 478 LINE",
"368 485 LINE",
"373 493 OFFCURVE",
"373 503 QCURVE SMOOTH",
"373 523 OFFCURVE",
"342 546 OFFCURVE",
"324 546 QCURVE SMOOTH",
"232 546 LINE SMOOTH",
"204 546 OFFCURVE",
"163 507 OFFCURVE",
"163 478 QCURVE SMOOTH",
"163 463 OFFCURVE",
"182 428 OFFCURVE",
"210 391 OFFCURVE",
"241 354 OFFCURVE",
"254 336 QCURVE",
"356 336 LINE",
"356 233 LINE",
"266 233 LINE",
"254 205 OFFCURVE",
"214 154 OFFCURVE",
"197 136 QCURVE"
);
}
);
width = 549;
}
);
unicode = 00A3;
},
{
glyphname = f_f;
layers = (
{
layerId = "616D4D79-28E0-48D4-A99A-6A264E58F352";
paths = (
{
nodes = (
"186 91 LINE SMOOTH",
"186 27 OFFCURVE",
"209 8 QCURVE SMOOTH",
"211 6 OFFCURVE",
"210 0 OFFCURVE",
"205 0 QCURVE SMOOTH",
"30 0 LINE SMOOTH",
"25 0 OFFCURVE",
"24 6 OFFCURVE",
"27 8 QCURVE SMOOTH",
"49 27 OFFCURVE",
"49 91 QCURVE SMOOTH",
"49 592 LINE SMOOTH",
"49 657 OFFCURVE",
"27 675 QCURVE",
"19 683 OFFCURVE",
"30 683 QCURVE SMOOTH",
"536 683 LINE",
"536 517 LINE",
"538 450 OFFCURVE",
"513 374 OFFCURVE",
"483 341 QCURVE",
"511 310 OFFCURVE",
"535 246 OFFCURVE",
"535 205 QCURVE SMOOTH",
"535 163 OFFCURVE",
"503 88 OFFCURVE",
"447 32 OFFCURVE",
"372 0 OFFCURVE",
"330 0 QCURVE SMOOTH",
"240 0 LINE",
"240 136 LINE",
"331 136 LINE",
"359 137 OFFCURVE",
"398 176 OFFCURVE",
"398 205 QCURVE SMOOTH",
"398 233 OFFCURVE",
"359 273 OFFCURVE",
"330 273 QCURVE SMOOTH",
"314 273 LINE SMOOTH",
"263 273 OFFCURVE",
"234 252 QCURVE",
"227 256 LINE",
"227 410 LINE",
"332 410 LINE SMOOTH",
"360 410 OFFCURVE",
"399 450 OFFCURVE",
"399 478 QCURVE SMOOTH",
"399 546 LINE",
"186 546 LINE"
);
}
);
width = 561;
}
);
unicode = FB00;
},
{
glyphname = copyright;
layers = (
{
layerId = "616D4D79-28E0-48D4-A99A-6A264E58F352";
paths = (
{
nodes = (
"246 125 OFFCURVE",
"145 167 OFFCURVE",
"105 207 QCURVE SMOOTH",
"65 246 OFFCURVE",
"23 347 OFFCURVE",
"23 404 QCURVE SMOOTH",
"23 461 OFFCURVE",
"65 562 OFFCURVE",
"105 601 QCURVE SMOOTH",
"145 641 OFFCURVE",
"246 683 OFFCURVE",
"302 683 QCURVE SMOOTH",
"359 683 OFFCURVE",
"460 641 OFFCURVE",
"500 601 QCURVE SMOOTH",
"539 562 OFFCURVE",
"581 461 OFFCURVE",
"581 404 QCURVE SMOOTH",
"581 347 OFFCURVE",
"539 246 OFFCURVE",
"500 207 QCURVE SMOOTH",
"460 167 OFFCURVE",
"359 125 OFFCURVE",
"302 125 QCURVE SMOOTH"
);
},
{
nodes = (
"254 635 OFFCURVE",
"170 599 OFFCURVE",
"107 536 OFFCURVE",
"71 452 OFFCURVE",
"71 404 QCURVE SMOOTH",
"71 356 OFFCURVE",
"107 272 OFFCURVE",
"170 209 OFFCURVE",
"254 173 OFFCURVE",
"302 173 QCURVE SMOOTH",
"350 173 OFFCURVE",
"434 209 OFFCURVE",
"497 272 OFFCURVE",
"533 356 OFFCURVE",
"533 404 QCURVE SMOOTH",
"533 452 OFFCURVE",
"497 536 OFFCURVE",
"434 599 OFFCURVE",
"350 635 OFFCURVE",
"302 635 QCURVE SMOOTH"
);
},
{
nodes = (
"431 343 LINE",
"431 318 OFFCURVE",
"413 275 OFFCURVE",
"380 243 OFFCURVE",
"337 224 OFFCURVE",
"313 224 QCURVE SMOOTH",
"289 224 LINE SMOOTH",
"264 224 OFFCURVE",
"221 243 OFFCURVE",
"189 275 OFFCURVE",
"171 318 OFFCURVE",
"171 343 QCURVE SMOOTH",
"171 461 LINE SMOOTH",
"171 486 OFFCURVE",
"189 529 OFFCURVE",
"221 561 OFFCURVE",
"264 580 OFFCURVE",
"289 580 QCURVE SMOOTH",
"313 580 LINE SMOOTH",
"337 580 OFFCURVE",
"380 561 OFFCURVE",
"413 529 OFFCURVE",
"431 486 OFFCURVE",
"431 461 QCURVE",
"347 461 LINE SMOOTH",
"343 461 OFFCURVE",
"346 465 QCURVE SMOOTH",
"354 477 OFFCURVE",
"345 494 QCURVE",
"342 497 OFFCURVE",
"338 501 OFFCURVE",
"335 503 QCURVE SMOOTH",
"325 509 OFFCURVE",
"313 509 QCURVE SMOOTH",
"289 509 LINE SMOOTH",
"269 509 OFFCURVE",
"242 481 OFFCURVE",
"242 461 QCURVE SMOOTH",
"242 343 LINE SMOOTH",
"242 323 OFFCURVE",
"269 296 OFFCURVE",
"289 296 QCURVE SMOOTH",
"313 296 LINE SMOOTH",
"319 296 OFFCURVE",
"329 299 OFFCURVE",
"335 301 QCURVE",
"340 304 OFFCURVE",
"345 311 QCURVE",
"354 327 OFFCURVE",
"346 339 QCURVE SMOOTH",
"343 343 OFFCURVE",
"347 343 QCURVE SMOOTH"
);
}
);
width = 615;
}
);
unicode = 00A9;
},
{
glyphname = asterisk;
layers = (
{
layerId = "616D4D79-28E0-48D4-A99A-6A264E58F352";
paths = (
{
nodes = (
"356 582 LINE",
"265 517 LINE",
"356 451 LINE",
"312 389 LINE",
"237 442 LINE",
"237 349 LINE",
"160 349 LINE",
"160 442 LINE",
"85 389 LINE",
"40 451 LINE",
"132 517 LINE",
"40 582 LINE",
"85 645 LINE",
"160 591 LINE",
"160 683 LINE",
"237 683 LINE",
"237 591 LINE",
"312 645 LINE"
);
}
);
width = 398;
}
);
unicode = 002A;
},
{
glyphname = numbersign;
layers = (
{
layerId = "616D4D79-28E0-48D4-A99A-6A264E58F352";
paths = (
{
nodes = (
"286 651 LINE",
"384 651 LINE",
"173 0 LINE",
"75 0 LINE"
);
},
{
nodes = (
"498 651 LINE",
"596 651 LINE",
"385 0 LINE",
"287 0 LINE"
);
},
{
nodes = (
"22 161 LINE",
"53 259 LINE",
"582 259 LINE",
"550 161 LINE"
);
},
{
nodes = (
"90 373 LINE",
"122 471 LINE",
"651 471 LINE",
"619 373 LINE"
);
}
);
width = 664;
}
);
unicode = 0023;
},
{
glyphname = degree;
layers = (
{
layerId = "616D4D79-28E0-48D4-A99A-6A264E58F352";
paths = (
{
nodes = (
"123 427 OFFCURVE",
"76 447 OFFCURVE",
"41 482 OFFCURVE",
"21 528 OFFCURVE",
"21 555 QCURVE SMOOTH",
"21 582 OFFCURVE",
"41 628 OFFCURVE",
"76 663 OFFCURVE",
"123 683 OFFCURVE",
"150 683 QCURVE SMOOTH",
"177 683 OFFCURVE",
"224 663 OFFCURVE",
"259 628 OFFCURVE",
"279 582 OFFCURVE",
"279 555 QCURVE SMOOTH",
"279 528 OFFCURVE",
"259 482 OFFCURVE",
"224 447 OFFCURVE",
"177 427 OFFCURVE",
"150 427 QCURVE SMOOTH"
);
},
{
nodes = (
"121 624 OFFCURVE",
"80 584 OFFCURVE",
"80 555 QCURVE SMOOTH",
"80 526 OFFCURVE",
"121 486 OFFCURVE",
"150 486 QCURVE SMOOTH",
"179 486 OFFCURVE",
"220 526 OFFCURVE",
"220 555 QCURVE SMOOTH",
"220 584 OFFCURVE",
"179 624 OFFCURVE",
"150 624 QCURVE SMOOTH"
);
}
);
width = 302;
}
);
unicode = 00B0;
},
{
glyphname = registered;
layers = (
{
layerId = "616D4D79-28E0-48D4-A99A-6A264E58F352";
paths = (
{
nodes = (
"199 257 OFFCURVE",
"121 291 OFFCURVE",
"63 349 OFFCURVE",
"30 426 OFFCURVE",
"30 470 QCURVE SMOOTH",
"30 514 OFFCURVE",
"63 592 OFFCURVE",
"121 650 OFFCURVE",
"199 683 OFFCURVE",
"243 683 QCURVE SMOOTH",
"287 683 OFFCURVE",
"364 650 OFFCURVE",
"422 592 OFFCURVE",
"456 514 OFFCURVE",
"456 470 QCURVE SMOOTH",
"456 426 OFFCURVE",
"422 349 OFFCURVE",
"364 291 OFFCURVE",
"287 257 OFFCURVE",
"243 257 QCURVE SMOOTH"
);
},
{
nodes = (
"211 624 OFFCURVE",
"155 600 OFFCURVE",
"113 558 OFFCURVE",
"89 502 OFFCURVE",
"89 470 QCURVE SMOOTH",
"89 438 OFFCURVE",
"113 382 OFFCURVE",
"155 340 OFFCURVE",
"211 316 OFFCURVE",
"243 316 QCURVE SMOOTH",
"275 316 OFFCURVE",
"331 340 OFFCURVE",
"373 382 OFFCURVE",
"397 438 OFFCURVE",
"397 470 QCURVE SMOOTH",
"397 502 OFFCURVE",
"373 558 OFFCURVE",
"331 600 OFFCURVE",
"275 624 OFFCURVE",
"243 624 QCURVE SMOOTH"
);
},
{
nodes = (
"326 360 OFFCURVE",
"326 358 OFFCURVE",
"324 358 QCURVE",
"264 358 LINE",
"263 358 OFFCURVE",
"262 360 OFFCURVE",
"263 361 QCURVE",
"271 368 OFFCURVE",
"271 389 QCURVE SMOOTH",
"271 413 LINE SMOOTH",
"271 422 OFFCURVE",
"264 439 OFFCURVE",
"251 452 OFFCURVE",
"234 459 OFFCURVE",
"225 459 QCURVE SMOOTH",
"217 459 LINE",
"217 389 LINE SMOOTH",
"217 368 OFFCURVE",
"225 361 QCURVE",
"226 360 OFFCURVE",
"225 358 OFFCURVE",
"224 358 QCURVE",
"164 358 LINE",
"162 358 OFFCURVE",
"162 360 OFFCURVE",
"163 361 QCURVE",
"171 368 OFFCURVE",
"171 389 QCURVE SMOOTH",
"171 560 LINE SMOOTH",
"171 581 OFFCURVE",
"163 588 QCURVE",
"162 589 OFFCURVE",
"162 591 OFFCURVE",
"164 591 QCURVE",
"251 591 LINE SMOOTH",
"265 591 OFFCURVE",
"289 580 OFFCURVE",
"307 562 OFFCURVE",
"318 538 OFFCURVE",
"318 525 QCURVE SMOOTH",
"318 510 OFFCURVE",
"306 484 OFFCURVE",
"294 474 QCURVE",
"307 460 OFFCURVE",
"318 431 OFFCURVE",
"318 413 QCURVE SMOOTH",
"318 389 LINE SMOOTH",
"318 368 OFFCURVE",
"325 361 QCURVE"
);
},
{
nodes = (
"251 505 LINE SMOOTH",
"260 505 OFFCURVE",
"271 516 OFFCURVE",
"271 525 QCURVE SMOOTH",
"271 533 OFFCURVE",
"260 544 OFFCURVE",
"251 544 QCURVE SMOOTH",
"217 544 LINE",
"217 505 LINE"
);
}
);
width = 496;
}
);
unicode = 00AE;
},
{
glyphname = less;
layers = (
{
layerId = "616D4D79-28E0-48D4-A99A-6A264E58F352";
paths = (
{
nodes = (
"313 507 LINE",
"170 387 LINE",
"313 268 LINE",
"313 148 LINE",
"27 387 LINE",
"313 627 LINE"
);
}
);
width = 338;
}
);
unicode = 003C;
},
{
glyphname = minus;
layers = (
{
layerId = "616D4D79-28E0-48D4-A99A-6A264E58F352";
paths = (
{
nodes = (
"32 288 LINE",
"32 392 LINE",
"353 392 LINE",
"353 288 LINE"
);
}
);
width = 378;
}
);
unicode = 2212;
},
{
glyphname = lessequal;
layers = (
{
layerId = "616D4D79-28E0-48D4-A99A-6A264E58F352";
paths = (
{
nodes = (
"335 544 LINE",
"192 424 LINE",
"335 305 LINE",
"335 185 LINE",
"49 424 LINE",
"335 664 LINE"
);
},
{
nodes = (
"31 42 LINE",
"31 146 LINE",
"352 146 LINE",
"352 42 LINE"
);
}
);
width = 358;
}
);
unicode = 2264;
},
{
glyphname = greaterequal;
layers = (
{
layerId = "616D4D79-28E0-48D4-A99A-6A264E58F352";
paths = (
{
nodes = (
"31 42 LINE",
"31 146 LINE",
"352 146 LINE",
"352 42 LINE"
);
},
{
nodes = (
"48 664 LINE",
"334 424 LINE",
"48 185 LINE",
"48 305 LINE",
"191 424 LINE",
"48 544 LINE"
);
}
);
width = 358;
}
);
unicode = 2265;
},
{
glyphname = greater;
layers = (
{
layerId = "616D4D79-28E0-48D4-A99A-6A264E58F352";
paths = (
{
nodes = (
"27 627 LINE",
"313 387 LINE",
"27 148 LINE",
"27 268 LINE",
"170 387 LINE",
"27 507 LINE"
);
}
);
width = 338;
}
);
unicode = 003E;
},
{
glyphname = underscore;
layers = (
{
layerId = "616D4D79-28E0-48D4-A99A-6A264E58F352";
paths = (
{
nodes = (
"26 -33 LINE",
"451 -33 LINE",
"451 -138 LINE",
"26 -138 LINE"
);
}
);
width = 480;
}
);
unicode = 005F;
},
{
glyphname = paragraph;
layers = (
{
layerId = "616D4D79-28E0-48D4-A99A-6A264E58F352";
paths = (
{
nodes = (
"550 -89 LINE",
"446 -89 LINE",
"446 579 LINE",
"354 579 LINE",
"354 -89 LINE",
"250 -89 LINE",
"250 341 LINE",
"207 341 LINE SMOOTH",
"172 341 OFFCURVE",
"119 361 OFFCURVE",
"93 384 QCURVE SMOOTH",
"64 410 OFFCURVE",
"35 474 OFFCURVE",
"34 541 OFFCURVE",
"58 604 OFFCURVE",
"103 653 OFFCURVE",
"135 668 QCURVE SMOOTH",
"167 683 OFFCURVE",
"250 683 QCURVE SMOOTH",
"611 683 LINE",
"611 579 LINE",
"550 579 LINE"
);
}
);
width = 641;
}
);
unicode = 00B6;
},
{
glyphname = at;
layers = (
{
layerId = "616D4D79-28E0-48D4-A99A-6A264E58F352";
paths = (
{
nodes = (
"705 364 OFFCURVE",
"681 271 OFFCURVE",
"632 195 OFFCURVE",
"557 145 OFFCURVE",
"507 145 QCURVE SMOOTH",
"471 145 OFFCURVE",
"429 170 OFFCURVE",
"417 205 QCURVE",
"398 176 OFFCURVE",
"334 145 OFFCURVE",
"300 145 QCURVE SMOOTH",
"270 145 OFFCURVE",
"224 167 OFFCURVE",
"193 204 OFFCURVE",
"177 254 OFFCURVE",
"177 283 QCURVE SMOOTH",
"177 327 OFFCURVE",
"203 416 OFFCURVE",
"255 488 OFFCURVE",
"330 534 OFFCURVE",
"380 534 QCURVE SMOOTH",
"396 534 OFFCURVE",
"427 526 OFFCURVE",
"440 516 QCURVE",
"447 508 LINE",
"453 528 LINE",
"533 528 LINE",
"527 510 OFFCURVE",
"513 442 OFFCURVE",
"501 365 OFFCURVE",
"493 293 OFFCURVE",
"493 270 QCURVE SMOOTH",
"493 264 OFFCURVE",
"494 247 OFFCURVE",
"500 231 OFFCURVE",
"510 220 OFFCURVE",
"519 220 QCURVE SMOOTH",
"547 220 OFFCURVE",
"585 259 OFFCURVE",
"609 314 OFFCURVE",
"619 375 OFFCURVE",
"619 396 QCURVE SMOOTH",
"619 449 OFFCURVE",
"585 528 OFFCURVE",
"523 581 OFFCURVE",
"439 607 OFFCURVE",
"388 607 QCURVE SMOOTH",
"324 607 OFFCURVE",
"219 557 OFFCURVE",
"145 473 OFFCURVE",
"105 362 OFFCURVE",
"105 301 QCURVE SMOOTH",
"105 246 OFFCURVE",
"140 162 OFFCURVE",
"203 105 OFFCURVE",
"290 75 OFFCURVE",
"343 75 QCURVE SMOOTH",
"406 75 OFFCURVE",
"526 102 OFFCURVE",
"583 125 QCURVE",
"583 56 LINE",
"550 42 OFFCURVE",
"490 21 OFFCURVE",
"431 6 OFFCURVE",
"369 -1 OFFCURVE",
"332 -1 QCURVE SMOOTH",
"264 -1 OFFCURVE",
"149 39 OFFCURVE",
"65 114 OFFCURVE",
"18 224 OFFCURVE",
"18 294 QCURVE SMOOTH",
"18 375 OFFCURVE",
"76 516 OFFCURVE",
"178 622 OFFCURVE",
"317 683 OFFCURVE",
"399 683 QCURVE SMOOTH",
"461 683 OFFCURVE",
"572 646 OFFCURVE",
"656 576 OFFCURVE",
"705 473 OFFCURVE",
"705 407 QCURVE SMOOTH"
);
},
{
nodes = (
"425 388 OFFCURVE",
"418 417 OFFCURVE",
"403 441 OFFCURVE",
"380 457 OFFCURVE",
"364 457 QCURVE SMOOTH",
"338 457 OFFCURVE",
"298 425 OFFCURVE",
"270 378 OFFCURVE",
"255 325 OFFCURVE",
"255 303 QCURVE SMOOTH",
"255 289 OFFCURVE",
"262 261 OFFCURVE",
"277 237 OFFCURVE",
"300 222 OFFCURVE",
"316 222 QCURVE SMOOTH",
"341 222 OFFCURVE",
"382 253 OFFCURVE",
"410 300 OFFCURVE",
"425 353 OFFCURVE",
"425 375 QCURVE SMOOTH"
);
}
);
width = 730;
}
);
unicode = 0040;
},
{
glyphname = ordfeminine;
layers = (
{
layerId = "616D4D79-28E0-48D4-A99A-6A264E58F352";
paths = (
{
nodes = (
"248 353 LINE",
"118 353 LINE SMOOTH",
"97 353 OFFCURVE",
"61 368 OFFCURVE",
"34 395 OFFCURVE",
"19 431 OFFCURVE",
"19 452 QCURVE SMOOTH",
"19 472 OFFCURVE",
"34 508 OFFCURVE",
"61 535 OFFCURVE",
"97 551 OFFCURVE",
"118 551 QCURVE SMOOTH",
"182 551 LINE",
"182 584 LINE SMOOTH",
"182 598 OFFCURVE",
"162 617 OFFCURVE",
"149 617 QCURVE SMOOTH",
"118 617 LINE SMOOTH",
"111 617 OFFCURVE",
"104 614 QCURVE SMOOTH",
"99 612 OFFCURVE",
"91 596 OFFCURVE",
"96 587 QCURVE SMOOTH",
"98 584 OFFCURVE",
"94 584 QCURVE SMOOTH",
"19 584 LINE",
"19 605 OFFCURVE",
"34 641 OFFCURVE",
"61 668 OFFCURVE",
"97 683 OFFCURVE",
"118 683 QCURVE SMOOTH",
"149 683 LINE SMOOTH",
"169 683 OFFCURVE",
"206 668 OFFCURVE",
"232 641 OFFCURVE",
"248 605 OFFCURVE",
"248 584 QCURVE SMOOTH"
);
},
{
nodes = (
"182 485 LINE",
"118 485 LINE SMOOTH",
"104 485 OFFCURVE",
"84 466 OFFCURVE",
"84 452 QCURVE SMOOTH",
"84 438 OFFCURVE",
"104 419 OFFCURVE",
"118 419 QCURVE SMOOTH",
"182 419 LINE"
);
}
);
width = 272;
}
);
unicode = 00AA;
},
{
glyphname = ordmasculine;
layers = (
{
layerId = "616D4D79-28E0-48D4-A99A-6A264E58F352";
paths = (
{
nodes = (
"143 683 LINE SMOOTH",
"163 683 OFFCURVE",
"200 668 OFFCURVE",
"226 641 OFFCURVE",
"242 605 OFFCURVE",
"242 584 QCURVE SMOOTH",
"242 452 LINE SMOOTH",
"242 431 OFFCURVE",
"226 395 OFFCURVE",
"200 368 OFFCURVE",
"163 353 OFFCURVE",
"143 353 QCURVE SMOOTH",
"115 353 LINE SMOOTH",
"95 353 OFFCURVE",
"58 368 OFFCURVE",
"32 395 OFFCURVE",
"16 431 OFFCURVE",
"16 452 QCURVE SMOOTH",
"16 584 LINE SMOOTH",
"16 605 OFFCURVE",
"32 641 OFFCURVE",
"58 668 OFFCURVE",
"95 683 OFFCURVE",
"115 683 QCURVE SMOOTH"
);
},
{
nodes = (
"82 452 LINE SMOOTH",
"82 438 OFFCURVE",
"102 419 OFFCURVE",
"115 419 QCURVE SMOOTH",
"143 419 LINE SMOOTH",
"156 419 OFFCURVE",
"176 438 OFFCURVE",
"176 452 QCURVE SMOOTH",
"176 584 LINE SMOOTH",
"176 598 OFFCURVE",
"156 617 OFFCURVE",
"143 617 QCURVE SMOOTH",
"115 617 LINE SMOOTH",
"102 617 OFFCURVE",
"82 598 OFFCURVE",
"82 584 QCURVE SMOOTH"
);
}
);
width = 262;
}
);
unicode = 00BA;
},
{
glyphname = guillemotleft;
layers = (
{
layerId = "616D4D79-28E0-48D4-A99A-6A264E58F352";
paths = (
{
nodes = (
"12 384 LINE",
"244 573 LINE",
"308 495 LINE",
"98 320 LINE",
"308 146 LINE",
"244 68 LINE",
"12 257 LINE"
);
},
{
nodes = (
"243 384 LINE",
"475 573 LINE",
"539 495 LINE",
"329 320 LINE",
"539 146 LINE",
"475 68 LINE",
"243 257 LINE"
);
}
);
width = 558;
}
);
unicode = 00AB;
},
{
glyphname = guillemotright;
layers = (
{
layerId = "616D4D79-28E0-48D4-A99A-6A264E58F352";
paths = (
{
nodes = (
"308 257 LINE",
"76 68 LINE",
"12 146 LINE",
"222 320 LINE",
"12 495 LINE",
"76 573 LINE",
"308 384 LINE"
);
},
{
nodes = (
"539 257 LINE",
"307 68 LINE",
"243 146 LINE",
"453 320 LINE",
"243 495 LINE",
"307 573 LINE",
"539 384 LINE"
);
}
);
width = 558;
}
);
unicode = 00BB;
},
{
glyphname = asciitilde;
layers = (
{
layerId = "616D4D79-28E0-48D4-A99A-6A264E58F352";
paths = (
{
nodes = (
"487 342 LINE",
"470 326 OFFCURVE",
"433 293 OFFCURVE",
"393 266 OFFCURVE",
"349 249 OFFCURVE",
"324 249 QCURVE SMOOTH",
"302 249 OFFCURVE",
"263 268 OFFCURVE",
"229 291 OFFCURVE",
"200 310 OFFCURVE",
"189 310 QCURVE SMOOTH",
"179 310 OFFCURVE",
"148 296 OFFCURVE",
"116 277 OFFCURVE",
"89 255 OFFCURVE",
"83 247 QCURVE",
"19 344 LINE",
"38 360 OFFCURVE",
"76 392 OFFCURVE",
"118 418 OFFCURVE",
"164 434 OFFCURVE",
"191 434 QCURVE SMOOTH",
"210 434 OFFCURVE",
"242 416 OFFCURVE",
"273 395 OFFCURVE",
"306 378 OFFCURVE",
"326 378 QCURVE SMOOTH",
"353 378 OFFCURVE",
"401 413 OFFCURVE",
"419 433 QCURVE"
);
}
);
width = 513;
}
);
unicode = 007E;
},
{
glyphname = braceleft;
layers = (
{
layerId = "616D4D79-28E0-48D4-A99A-6A264E58F352";
paths = (
{
nodes = (
"221 18 LINE SMOOTH",
"221 4 OFFCURVE",
"227 -10 QCURVE SMOOTH",
"232 -20 OFFCURVE",
"264 -37 OFFCURVE",
"283 -27 QCURVE SMOOTH",
"289 -23 OFFCURVE",
"289 -31 QCURVE SMOOTH",
"289 -187 LINE",
"247 -187 OFFCURVE",
"172 -155 OFFCURVE",
"116 -99 OFFCURVE",
"84 -25 OFFCURVE",
"84 18 QCURVE SMOOTH",
"84 193 LINE SMOOTH",
"84 207 OFFCURVE",
"78 221 QCURVE SMOOTH",
"73 231 OFFCURVE",
"41 248 OFFCURVE",
"22 238 QCURVE SMOOTH",
"16 234 OFFCURVE",
"16 242 QCURVE SMOOTH",
"16 469 LINE SMOOTH",
"16 477 OFFCURVE",
"22 473 QCURVE SMOOTH",
"41 463 OFFCURVE",
"73 480 OFFCURVE",
"78 490 QCURVE SMOOTH",
"84 504 OFFCURVE",
"84 518 QCURVE SMOOTH",
"84 667 LINE SMOOTH",
"84 710 OFFCURVE",
"116 784 OFFCURVE",
"172 840 OFFCURVE",
"247 872 OFFCURVE",
"289 872 QCURVE",
"289 716 LINE SMOOTH",
"289 708 OFFCURVE",
"283 712 QCURVE SMOOTH",
"264 722 OFFCURVE",
"232 705 OFFCURVE",
"227 695 QCURVE SMOOTH",
"221 681 OFFCURVE",
"221 667 QCURVE SMOOTH",
"221 518 LINE SMOOTH",
"221 475 OFFCURVE",
"189 401 OFFCURVE",
"161 373 QCURVE SMOOTH",
"151 363 OFFCURVE",
"141 355 QCURVE",
"151 347 OFFCURVE",
"161 338 QCURVE SMOOTH",
"189 310 OFFCURVE",
"221 236 OFFCURVE",
"221 193 QCURVE SMOOTH"
);
}
);
width = 313;
}
);
unicode = 007B;
},
{
glyphname = braceright;
layers = (
{
layerId = "616D4D79-28E0-48D4-A99A-6A264E58F352";
paths = (
{
nodes = (
"84 193 LINE SMOOTH",
"84 236 OFFCURVE",
"116 310 OFFCURVE",
"144 338 QCURVE SMOOTH",
"154 347 OFFCURVE",
"164 355 QCURVE",
"154 363 OFFCURVE",
"144 373 QCURVE SMOOTH",
"116 401 OFFCURVE",
"84 475 OFFCURVE",
"84 518 QCURVE SMOOTH",
"84 667 LINE SMOOTH",
"84 681 OFFCURVE",
"78 695 QCURVE SMOOTH",
"73 705 OFFCURVE",
"41 722 OFFCURVE",
"22 712 QCURVE SMOOTH",
"16 708 OFFCURVE",
"16 716 QCURVE SMOOTH",
"16 872 LINE",
"58 872 OFFCURVE",
"133 840 OFFCURVE",
"189 784 OFFCURVE",
"221 710 OFFCURVE",
"221 667 QCURVE SMOOTH",
"221 518 LINE SMOOTH",
"221 504 OFFCURVE",
"227 490 QCURVE SMOOTH",
"232 480 OFFCURVE",
"264 463 OFFCURVE",
"283 473 QCURVE SMOOTH",
"289 477 OFFCURVE",
"289 469 QCURVE SMOOTH",
"289 242 LINE SMOOTH",
"289 234 OFFCURVE",
"283 238 QCURVE SMOOTH",
"264 248 OFFCURVE",
"232 231 OFFCURVE",
"227 221 QCURVE SMOOTH",
"221 207 OFFCURVE",
"221 193 QCURVE SMOOTH",
"221 18 LINE SMOOTH",
"221 -25 OFFCURVE",
"189 -99 OFFCURVE",
"133 -155 OFFCURVE",
"58 -187 OFFCURVE",
"16 -187 QCURVE",
"16 -31 LINE SMOOTH",
"16 -23 OFFCURVE",
"22 -27 QCURVE SMOOTH",
"41 -37 OFFCURVE",
"73 -20 OFFCURVE",
"78 -10 QCURVE SMOOTH",
"84 4 OFFCURVE",
"84 18 QCURVE SMOOTH"
);
}
);
width = 313;
}
);
unicode = 007D;
},
{
glyphname = dotlessi;
layers = (
{
layerId = "616D4D79-28E0-48D4-A99A-6A264E58F352";
paths = (
{
nodes = (
"186 91 LINE SMOOTH",
"186 27 OFFCURVE",
"209 8 QCURVE SMOOTH",
"211 6 OFFCURVE",
"210 0 OFFCURVE",
"205 0 QCURVE SMOOTH",
"30 0 LINE SMOOTH",
"25 0 OFFCURVE",
"24 6 OFFCURVE",
"27 8 QCURVE SMOOTH",
"49 27 OFFCURVE",
"49 91 QCURVE SMOOTH",
"49 592 LINE SMOOTH",
"49 657 OFFCURVE",
"27 675 QCURVE",
"19 683 OFFCURVE",
"30 683 QCURVE SMOOTH",
"205 683 LINE SMOOTH",
"215 683 OFFCURVE",
"209 675 QCURVE",
"186 658 OFFCURVE",
"186 592 QCURVE SMOOTH"
);
}
);
width = 231;
}
);
unicode = 0131;
},
{
glyphname = Idotaccent;
layers = (
{
layerId = "616D4D79-28E0-48D4-A99A-6A264E58F352";
paths = (
{
nodes = (
"186 91 LINE SMOOTH",
"186 27 OFFCURVE",
"209 8 QCURVE SMOOTH",
"211 6 OFFCURVE",
"210 0 OFFCURVE",
"205 0 QCURVE SMOOTH",
"30 0 LINE SMOOTH",
"25 0 OFFCURVE",
"24 6 OFFCURVE",
"27 8 QCURVE SMOOTH",
"49 27 OFFCURVE",
"49 91 QCURVE SMOOTH",
"49 592 LINE SMOOTH",
"49 657 OFFCURVE",
"27 675 QCURVE",
"19 683 OFFCURVE",
"30 683 QCURVE SMOOTH",
"205 683 LINE SMOOTH",
"215 683 OFFCURVE",
"209 675 QCURVE",
"186 658 OFFCURVE",
"186 592 QCURVE SMOOTH"
);
},
{
nodes = (
"147 876 OFFCURVE",
"192 831 OFFCURVE",
"192 800 QCURVE SMOOTH",
"192 769 OFFCURVE",
"147 724 OFFCURVE",
"116 724 QCURVE SMOOTH",
"84 724 OFFCURVE",
"40 769 OFFCURVE",
"40 800 QCURVE SMOOTH",
"40 831 OFFCURVE",
"84 876 OFFCURVE",
"116 876 QCURVE SMOOTH"
);
}
);
width = 231;
}
);
unicode = 0130;
},
{
glyphname = quotesinglbase;
layers = (
{
layerId = "616D4D79-28E0-48D4-A99A-6A264E58F352";
paths = (
{
nodes = (
"85 136 OFFCURVE",
"118 126 OFFCURVE",
"142 103 OFFCURVE",
"152 70 OFFCURVE",
"148 52 QCURVE",
"141 6 OFFCURVE",
"104 -60 OFFCURVE",
"62 -83 QCURVE",
"48 -79 OFFCURVE",
"35 -69 QCURVE SMOOTH",
"31 -66 OFFCURVE",
"34 -63 QCURVE SMOOTH",
"47 -48 OFFCURVE",
"56 -10 OFFCURVE",
"34 22 QCURVE",
"21 36 OFFCURVE",
"15 71 OFFCURVE",
"24 102 OFFCURVE",
"49 127 OFFCURVE",
"67 132 QCURVE SMOOTH"
);
}
);
width = 186;
}
);
unicode = 201A;
},
{
glyphname = uni0163;
layers = (
{
layerId = "616D4D79-28E0-48D4-A99A-6A264E58F352";
paths = (
{
nodes = (
"512 683 LINE SMOOTH",
"516 683 OFFCURVE",
"518 678 OFFCURVE",
"514 675 QCURVE SMOOTH",
"509 670 OFFCURVE",
"501 654 OFFCURVE",
"495 625 OFFCURVE",
"492 580 OFFCURVE",
"492 547 QCURVE SMOOTH",
"492 527 LINE SMOOTH",
"492 523 OFFCURVE",
"486 521 OFFCURVE",
"484 524 QCURVE SMOOTH",
"464 547 OFFCURVE",
"401 547 QCURVE SMOOTH",
"332 547 LINE",
"332 91 LINE SMOOTH",
"332 27 OFFCURVE",
"354 8 QCURVE SMOOTH",
"357 6 OFFCURVE",
"356 0 OFFCURVE",
"351 0 QCURVE SMOOTH",
"175 0 LINE SMOOTH",
"171 0 OFFCURVE",
"169 6 OFFCURVE",
"173 8 QCURVE",
"195 28 OFFCURVE",
"195 91 QCURVE SMOOTH",
"195 547 LINE",
"126 547 LINE SMOOTH",
"61 547 OFFCURVE",
"43 524 QCURVE SMOOTH",
"40 521 OFFCURVE",
"35 523 OFFCURVE",
"35 527 QCURVE SMOOTH",
"35 592 LINE SMOOTH",
"35 655 OFFCURVE",
"12 675 QCURVE SMOOTH",
"9 678 OFFCURVE",
"11 683 OFFCURVE",
"15 683 QCURVE SMOOTH"
);
},
{
nodes = (
"277 -34 OFFCURVE",
"310 -44 OFFCURVE",
"334 -67 OFFCURVE",
"344 -100 OFFCURVE",
"340 -118 QCURVE",
"333 -164 OFFCURVE",
"296 -230 OFFCURVE",
"254 -253 QCURVE",
"240 -249 OFFCURVE",
"227 -239 QCURVE SMOOTH",
"223 -236 OFFCURVE",
"226 -233 QCURVE SMOOTH",
"239 -218 OFFCURVE",
"248 -180 OFFCURVE",
"226 -148 QCURVE",
"213 -134 OFFCURVE",
"207 -99 OFFCURVE",
"216 -68 OFFCURVE",
"241 -43 OFFCURVE",
"259 -38 QCURVE SMOOTH"
);
}
);
width = 530;
}
);
unicode = 0163;
},
{
glyphname = uni0162;
layers = (
{
layerId = "616D4D79-28E0-48D4-A99A-6A264E58F352";
paths = (
{
nodes = (
"512 683 LINE SMOOTH",
"516 683 OFFCURVE",
"518 678 OFFCURVE",
"514 675 QCURVE SMOOTH",
"509 670 OFFCURVE",
"501 654 OFFCURVE",
"495 625 OFFCURVE",
"492 580 OFFCURVE",
"492 547 QCURVE SMOOTH",
"492 527 LINE SMOOTH",
"492 523 OFFCURVE",
"486 521 OFFCURVE",
"484 524 QCURVE SMOOTH",
"464 547 OFFCURVE",
"401 547 QCURVE SMOOTH",
"332 547 LINE",
"332 91 LINE SMOOTH",
"332 27 OFFCURVE",
"354 8 QCURVE SMOOTH",
"357 6 OFFCURVE",
"356 0 OFFCURVE",
"351 0 QCURVE SMOOTH",
"175 0 LINE SMOOTH",
"171 0 OFFCURVE",
"169 6 OFFCURVE",
"173 8 QCURVE",
"195 28 OFFCURVE",
"195 91 QCURVE SMOOTH",
"195 547 LINE",
"126 547 LINE SMOOTH",
"61 547 OFFCURVE",
"43 524 QCURVE SMOOTH",
"40 521 OFFCURVE",
"35 523 OFFCURVE",
"35 527 QCURVE SMOOTH",
"35 592 LINE SMOOTH",
"35 655 OFFCURVE",
"12 675 QCURVE SMOOTH",
"9 678 OFFCURVE",
"11 683 OFFCURVE",
"15 683 QCURVE SMOOTH"
);
},
{
nodes = (
"277 -34 OFFCURVE",
"310 -44 OFFCURVE",
"334 -67 OFFCURVE",
"344 -100 OFFCURVE",
"340 -118 QCURVE",
"333 -164 OFFCURVE",
"296 -230 OFFCURVE",
"254 -253 QCURVE",
"240 -249 OFFCURVE",
"227 -239 QCURVE SMOOTH",
"223 -236 OFFCURVE",
"226 -233 QCURVE SMOOTH",
"239 -218 OFFCURVE",
"248 -180 OFFCURVE",
"226 -148 QCURVE",
"213 -134 OFFCURVE",
"207 -99 OFFCURVE",
"216 -68 OFFCURVE",
"241 -43 OFFCURVE",
"259 -38 QCURVE SMOOTH"
);
}
);
width = 530;
}
);
unicode = 0162;
},
{
glyphname = uni013C;
layers = (
{
layerId = "616D4D79-28E0-48D4-A99A-6A264E58F352";
paths = (
{
nodes = (
"429 6 OFFCURVE",
"428 0 OFFCURVE",
"423 0 QCURVE SMOOTH",
"19 0 LINE",
"9 2 OFFCURVE",
"17 8 QCURVE SMOOTH",
"39 27 OFFCURVE",
"39 91 QCURVE SMOOTH",
"39 592 LINE SMOOTH",
"39 656 OFFCURVE",
"17 675 QCURVE SMOOTH",
"9 683 OFFCURVE",
"20 683 QCURVE SMOOTH",
"195 683 LINE SMOOTH",
"200 683 OFFCURVE",
"202 678 OFFCURVE",
"198 675 QCURVE SMOOTH",
"176 656 OFFCURVE",
"176 592 QCURVE SMOOTH",
"176 137 LINE",
"312 137 LINE SMOOTH",
"377 137 OFFCURVE",
"395 159 QCURVE SMOOTH",
"398 162 OFFCURVE",
"404 161 OFFCURVE",
"404 156 QCURVE SMOOTH",
"404 91 LINE SMOOTH",
"404 27 OFFCURVE",
"426 8 QCURVE SMOOTH"
);
},
{
nodes = (
"236 -34 OFFCURVE",
"269 -44 OFFCURVE",
"293 -67 OFFCURVE",
"303 -100 OFFCURVE",
"299 -118 QCURVE",
"292 -164 OFFCURVE",
"255 -230 OFFCURVE",
"213 -253 QCURVE",
"199 -249 OFFCURVE",
"186 -239 QCURVE SMOOTH",
"182 -236 OFFCURVE",
"185 -233 QCURVE SMOOTH",
"198 -218 OFFCURVE",
"207 -180 OFFCURVE",
"185 -148 QCURVE",
"172 -134 OFFCURVE",
"166 -99 OFFCURVE",
"175 -68 OFFCURVE",
"200 -43 OFFCURVE",
"218 -38 QCURVE SMOOTH"
);
}
);
width = 445;
}
);
unicode = 013C;
},
{
glyphname = uni013B;
layers = (
{
layerId = "616D4D79-28E0-48D4-A99A-6A264E58F352";
paths = (
{
nodes = (
"429 6 OFFCURVE",
"428 0 OFFCURVE",
"423 0 QCURVE SMOOTH",
"19 0 LINE",
"9 2 OFFCURVE",
"17 8 QCURVE SMOOTH",
"39 27 OFFCURVE",
"39 91 QCURVE SMOOTH",
"39 592 LINE SMOOTH",
"39 656 OFFCURVE",
"17 675 QCURVE SMOOTH",
"9 683 OFFCURVE",
"20 683 QCURVE SMOOTH",
"195 683 LINE SMOOTH",
"200 683 OFFCURVE",
"202 678 OFFCURVE",
"198 675 QCURVE SMOOTH",
"176 656 OFFCURVE",
"176 592 QCURVE SMOOTH",
"176 137 LINE",
"312 137 LINE SMOOTH",
"377 137 OFFCURVE",
"395 159 QCURVE SMOOTH",
"398 162 OFFCURVE",
"404 161 OFFCURVE",
"404 156 QCURVE SMOOTH",
"404 91 LINE SMOOTH",
"404 27 OFFCURVE",
"426 8 QCURVE SMOOTH"
);
},
{
nodes = (
"236 -34 OFFCURVE",
"269 -44 OFFCURVE",
"293 -67 OFFCURVE",
"303 -100 OFFCURVE",
"299 -118 QCURVE",
"292 -164 OFFCURVE",
"255 -230 OFFCURVE",
"213 -253 QCURVE",
"199 -249 OFFCURVE",
"186 -239 QCURVE SMOOTH",
"182 -236 OFFCURVE",
"185 -233 QCURVE SMOOTH",
"198 -218 OFFCURVE",
"207 -180 OFFCURVE",
"185 -148 QCURVE",
"172 -134 OFFCURVE",
"166 -99 OFFCURVE",
"175 -68 OFFCURVE",
"200 -43 OFFCURVE",
"218 -38 QCURVE SMOOTH"
);
}
);
width = 445;
}
);
unicode = 013B;
},
{
glyphname = uni0137;
layers = (
{
layerId = "616D4D79-28E0-48D4-A99A-6A264E58F352";
paths = (
{
nodes = (
"465 91 LINE SMOOTH",
"465 28 OFFCURVE",
"488 8 QCURVE SMOOTH",
"491 6 OFFCURVE",
"489 0 OFFCURVE",
"485 0 QCURVE SMOOTH",
"309 0 LINE SMOOTH",
"304 0 OFFCURVE",
"303 6 OFFCURVE",
"306 8 QCURVE SMOOTH",
"329 28 OFFCURVE",
"329 91 QCURVE SMOOTH",
"329 159 LINE SMOOTH",
"329 187 OFFCURVE",
"307 237 OFFCURVE",
"270 275 OFFCURVE",
"220 296 OFFCURVE",
"192 296 QCURVE SMOOTH",
"169 296 LINE",
"169 91 LINE SMOOTH",
"169 28 OFFCURVE",
"191 8 QCURVE",
"195 6 OFFCURVE",
"193 0 OFFCURVE",
"189 0 QCURVE SMOOTH",
"13 0 LINE SMOOTH",
"8 0 OFFCURVE",
"7 6 OFFCURVE",
"10 8 QCURVE SMOOTH",
"32 27 OFFCURVE",
"32 91 QCURVE SMOOTH",
"32 592 LINE SMOOTH",
"32 657 OFFCURVE",
"10 675 QCURVE",
"2 683 OFFCURVE",
"13 683 QCURVE SMOOTH",
"189 683 LINE SMOOTH",
"193 683 OFFCURVE",
"195 678 OFFCURVE",
"191 675 QCURVE SMOOTH",
"169 656 OFFCURVE",
"169 592 QCURVE SMOOTH",
"169 433 LINE",
"192 433 LINE SMOOTH",
"220 433 OFFCURVE",
"270 454 OFFCURVE",
"307 491 OFFCURVE",
"329 541 OFFCURVE",
"329 569 QCURVE SMOOTH",
"329 592 LINE SMOOTH",
"329 657 OFFCURVE",
"306 675 QCURVE",
"298 683 OFFCURVE",
"309 683 QCURVE SMOOTH",
"485 683 LINE SMOOTH",
"489 683 OFFCURVE",
"491 678 OFFCURVE",
"488 675 QCURVE SMOOTH",
"465 657 OFFCURVE",
"465 592 QCURVE SMOOTH",
"465 569 LINE SMOOTH",
"465 510 OFFCURVE",
"417 403 OFFCURVE",
"372 365 QCURVE",
"417 325 OFFCURVE",
"465 219 OFFCURVE",
"465 159 QCURVE SMOOTH"
);
},
{
nodes = (
"236 -34 OFFCURVE",
"269 -44 OFFCURVE",
"293 -67 OFFCURVE",
"303 -100 OFFCURVE",
"299 -118 QCURVE",
"292 -164 OFFCURVE",
"255 -230 OFFCURVE",
"213 -253 QCURVE",
"199 -249 OFFCURVE",
"186 -239 QCURVE SMOOTH",
"182 -236 OFFCURVE",
"185 -233 QCURVE SMOOTH",
"198 -218 OFFCURVE",
"207 -180 OFFCURVE",
"185 -148 QCURVE",
"172 -134 OFFCURVE",
"166 -99 OFFCURVE",
"175 -68 OFFCURVE",
"200 -43 OFFCURVE",
"218 -38 QCURVE SMOOTH"
);
}
);
width = 500;
}
);
unicode = 0137;
},
{
glyphname = kgreenlandic;
layers = (
{
layerId = "616D4D79-28E0-48D4-A99A-6A264E58F352";
paths = (
{
nodes = (
"465 91 LINE SMOOTH",
"465 28 OFFCURVE",
"488 8 QCURVE SMOOTH",
"491 6 OFFCURVE",
"489 0 OFFCURVE",
"485 0 QCURVE SMOOTH",
"309 0 LINE SMOOTH",
"304 0 OFFCURVE",
"303 6 OFFCURVE",
"306 8 QCURVE SMOOTH",
"329 28 OFFCURVE",
"329 91 QCURVE SMOOTH",
"329 159 LINE SMOOTH",
"329 187 OFFCURVE",
"307 237 OFFCURVE",
"270 275 OFFCURVE",
"220 296 OFFCURVE",
"192 296 QCURVE SMOOTH",
"169 296 LINE",
"169 91 LINE SMOOTH",
"169 28 OFFCURVE",
"191 8 QCURVE",
"195 6 OFFCURVE",
"193 0 OFFCURVE",
"189 0 QCURVE SMOOTH",
"13 0 LINE SMOOTH",
"8 0 OFFCURVE",
"7 6 OFFCURVE",
"10 8 QCURVE SMOOTH",
"32 27 OFFCURVE",
"32 91 QCURVE SMOOTH",
"32 592 LINE SMOOTH",
"32 657 OFFCURVE",
"10 675 QCURVE",
"2 683 OFFCURVE",
"13 683 QCURVE SMOOTH",
"189 683 LINE SMOOTH",
"193 683 OFFCURVE",
"195 678 OFFCURVE",
"191 675 QCURVE SMOOTH",
"169 656 OFFCURVE",
"169 592 QCURVE SMOOTH",
"169 433 LINE",
"192 433 LINE SMOOTH",
"220 433 OFFCURVE",
"270 454 OFFCURVE",
"307 491 OFFCURVE",
"329 541 OFFCURVE",
"329 569 QCURVE SMOOTH",
"329 592 LINE SMOOTH",
"329 657 OFFCURVE",
"306 675 QCURVE",
"298 683 OFFCURVE",
"309 683 QCURVE SMOOTH",
"485 683 LINE SMOOTH",
"489 683 OFFCURVE",
"491 678 OFFCURVE",
"488 675 QCURVE SMOOTH",
"465 657 OFFCURVE",
"465 592 QCURVE SMOOTH",
"465 569 LINE SMOOTH",
"465 510 OFFCURVE",
"417 403 OFFCURVE",
"372 365 QCURVE",
"417 325 OFFCURVE",
"465 219 OFFCURVE",
"465 159 QCURVE SMOOTH"
);
}
);
width = 500;
}
);
unicode = 0138;
},
{
glyphname = uni0136;
layers = (
{
layerId = "616D4D79-28E0-48D4-A99A-6A264E58F352";
paths = (
{
nodes = (
"465 91 LINE SMOOTH",
"465 28 OFFCURVE",
"488 8 QCURVE SMOOTH",
"491 6 OFFCURVE",
"489 0 OFFCURVE",
"485 0 QCURVE SMOOTH",
"309 0 LINE SMOOTH",
"304 0 OFFCURVE",
"303 6 OFFCURVE",
"306 8 QCURVE SMOOTH",
"329 28 OFFCURVE",
"329 91 QCURVE SMOOTH",
"329 159 LINE SMOOTH",
"329 187 OFFCURVE",
"307 237 OFFCURVE",
"270 275 OFFCURVE",
"220 296 OFFCURVE",
"192 296 QCURVE SMOOTH",
"169 296 LINE",
"169 91 LINE SMOOTH",
"169 28 OFFCURVE",
"191 8 QCURVE",
"195 6 OFFCURVE",
"193 0 OFFCURVE",
"189 0 QCURVE SMOOTH",
"13 0 LINE SMOOTH",
"8 0 OFFCURVE",
"7 6 OFFCURVE",
"10 8 QCURVE SMOOTH",
"32 27 OFFCURVE",
"32 91 QCURVE SMOOTH",
"32 592 LINE SMOOTH",
"32 657 OFFCURVE",
"10 675 QCURVE",
"2 683 OFFCURVE",
"13 683 QCURVE SMOOTH",
"189 683 LINE SMOOTH",
"193 683 OFFCURVE",
"195 678 OFFCURVE",
"191 675 QCURVE SMOOTH",
"169 656 OFFCURVE",
"169 592 QCURVE SMOOTH",
"169 433 LINE",
"192 433 LINE SMOOTH",
"220 433 OFFCURVE",
"270 454 OFFCURVE",
"307 491 OFFCURVE",
"329 541 OFFCURVE",
"329 569 QCURVE SMOOTH",
"329 592 LINE SMOOTH",
"329 657 OFFCURVE",
"306 675 QCURVE",
"298 683 OFFCURVE",
"309 683 QCURVE SMOOTH",
"485 683 LINE SMOOTH",
"489 683 OFFCURVE",
"491 678 OFFCURVE",
"488 675 QCURVE SMOOTH",
"465 657 OFFCURVE",
"465 592 QCURVE SMOOTH",
"465 569 LINE SMOOTH",
"465 510 OFFCURVE",
"417 403 OFFCURVE",
"372 365 QCURVE",
"417 325 OFFCURVE",
"465 219 OFFCURVE",
"465 159 QCURVE SMOOTH"
);
},
{
nodes = (
"236 -34 OFFCURVE",
"269 -44 OFFCURVE",
"293 -67 OFFCURVE",
"303 -100 OFFCURVE",
"299 -118 QCURVE",
"292 -164 OFFCURVE",
"255 -230 OFFCURVE",
"213 -253 QCURVE",
"199 -249 OFFCURVE",
"186 -239 QCURVE SMOOTH",
"182 -236 OFFCURVE",
"185 -233 QCURVE SMOOTH",
"198 -218 OFFCURVE",
"207 -180 OFFCURVE",
"185 -148 QCURVE",
"172 -134 OFFCURVE",
"166 -99 OFFCURVE",
"175 -68 OFFCURVE",
"200 -43 OFFCURVE",
"218 -38 QCURVE SMOOTH"
);
}
);
width = 500;
}
);
unicode = 0136;
},
{
glyphname = AEacute;
layers = (
{
layerId = "616D4D79-28E0-48D4-A99A-6A264E58F352";
paths = (
{
nodes = (
"178 91 LINE SMOOTH",
"178 26 OFFCURVE",
"201 8 QCURVE",
"209 0 OFFCURVE",
"198 0 QCURVE SMOOTH",
"22 0 LINE SMOOTH",
"18 0 OFFCURVE",
"16 5 OFFCURVE",
"19 8 QCURVE SMOOTH",
"42 26 OFFCURVE",
"42 91 QCURVE SMOOTH",
"42 308 LINE SMOOTH",
"42 351 OFFCURVE",
"53 437 OFFCURVE",
"97 492 QCURVE",
"196 591 LINE",
"231 646 OFFCURVE",
"217 675 QCURVE",
"214 678 OFFCURVE",
"216 683 OFFCURVE",
"220 683 QCURVE SMOOTH",
"771 683 LINE SMOOTH",
"776 683 OFFCURVE",
"777 677 OFFCURVE",
"774 675 QCURVE SMOOTH",
"752 656 OFFCURVE",
"752 592 QCURVE SMOOTH",
"752 526 LINE SMOOTH",
"752 522 OFFCURVE",
"746 520 OFFCURVE",
"744 524 QCURVE",
"725 546 OFFCURVE",
"661 546 QCURVE SMOOTH",
"487 546 LINE",
"487 410 LINE",
"570 410 LINE SMOOTH",
"634 410 OFFCURVE",
"653 432 QCURVE SMOOTH",
"655 435 OFFCURVE",
"661 433 OFFCURVE",
"661 429 QCURVE SMOOTH",
"661 253 LINE SMOOTH",
"661 249 OFFCURVE",
"655 247 OFFCURVE",
"653 250 QCURVE SMOOTH",
"633 273 OFFCURVE",
"570 273 QCURVE SMOOTH",
"487 273 LINE",
"487 136 LINE",
"661 136 LINE SMOOTH",
"724 136 OFFCURVE",
"744 159 QCURVE SMOOTH",
"746 162 OFFCURVE",
"752 160 OFFCURVE",
"752 156 QCURVE SMOOTH",
"752 91 LINE SMOOTH",
"752 26 OFFCURVE",
"774 7 QCURVE SMOOTH",
"777 5 OFFCURVE",
"776 0 OFFCURVE",
"771 0 QCURVE SMOOTH",
"331 0 LINE SMOOTH",
"326 0 OFFCURVE",
"325 5 OFFCURVE",
"328 7 QCURVE SMOOTH",
"350 26 OFFCURVE",
"350 91 QCURVE SMOOTH",
"350 179 LINE",
"178 179 LINE"
);
},
{
nodes = (
"179 306 LINE",
"350 306 LINE",
"350 567 LINE",
"201 402 LINE",
"181 383 OFFCURVE",
"180 351 QCURVE SMOOTH"
);
},
{
nodes = (
"322 729 LINE",
"386 852 LINE",
"522 852 LINE",
"455 729 LINE"
);
}
);
width = 796;
}
);
unicode = 01FC;
},
{
glyphname = Oslashacute;
layers = (
{
layerId = "616D4D79-28E0-48D4-A99A-6A264E58F352";
paths = (
{
nodes = (
"297 683 LINE SMOOTH",
"344 683 OFFCURVE",
"427 647 OFFCURVE",
"489 585 OFFCURVE",
"525 502 OFFCURVE",
"525 455 QCURVE SMOOTH",
"525 227 LINE SMOOTH",
"525 180 OFFCURVE",
"489 97 OFFCURVE",
"427 35 OFFCURVE",
"344 0 OFFCURVE",
"297 0 QCURVE SMOOTH",
"252 0 LINE SMOOTH",
"205 0 OFFCURVE",
"122 35 OFFCURVE",
"60 97 OFFCURVE",
"24 180 OFFCURVE",
"24 227 QCURVE SMOOTH",
"24 455 LINE SMOOTH",
"24 502 OFFCURVE",
"60 585 OFFCURVE",
"122 647 OFFCURVE",
"205 683 OFFCURVE",
"252 683 QCURVE SMOOTH"
);
},
{
nodes = (
"297 136 LINE SMOOTH",
"335 136 OFFCURVE",
"388 189 OFFCURVE",
"388 227 QCURVE SMOOTH",
"388 455 LINE SMOOTH",
"388 493 OFFCURVE",
"335 546 OFFCURVE",
"297 546 QCURVE SMOOTH",
"252 546 LINE SMOOTH",
"233 546 OFFCURVE",
"200 532 OFFCURVE",
"175 507 OFFCURVE",
"161 474 OFFCURVE",
"161 455 QCURVE SMOOTH",
"161 227 LINE SMOOTH",
"161 208 OFFCURVE",
"175 175 OFFCURVE",
"200 150 OFFCURVE",
"233 136 OFFCURVE",
"252 136 QCURVE SMOOTH"
);
},
{
nodes = (
"214 -43 LINE",
"134 -43 LINE",
"339 718 LINE",
"419 718 LINE"
);
},
{
nodes = (
"181 729 LINE",
"245 852 LINE",
"381 852 LINE",
"314 729 LINE"
);
}
);
width = 551;
}
);
unicode = 01FE;
},
{
glyphname = uni1E9E;
layers = (
{
layerId = "616D4D79-28E0-48D4-A99A-6A264E58F352";
paths = (
{
nodes = (
"186 91 LINE SMOOTH",
"186 27 OFFCURVE",
"209 8 QCURVE SMOOTH",
"211 6 OFFCURVE",
"210 0 OFFCURVE",
"205 0 QCURVE SMOOTH",
"30 0 LINE SMOOTH",
"25 0 OFFCURVE",
"24 6 OFFCURVE",
"27 8 QCURVE SMOOTH",
"49 27 OFFCURVE",
"49 91 QCURVE SMOOTH",
"49 592 LINE SMOOTH",
"49 657 OFFCURVE",
"27 675 QCURVE",
"19 683 OFFCURVE",
"30 683 QCURVE SMOOTH",
"536 683 LINE",
"536 517 LINE",
"538 450 OFFCURVE",
"513 374 OFFCURVE",
"483 341 QCURVE",
"511 310 OFFCURVE",
"535 246 OFFCURVE",
"535 205 QCURVE SMOOTH",
"535 163 OFFCURVE",
"503 88 OFFCURVE",
"447 32 OFFCURVE",
"372 0 OFFCURVE",
"330 0 QCURVE SMOOTH",
"240 0 LINE",
"240 136 LINE",
"331 136 LINE",
"359 137 OFFCURVE",
"398 176 OFFCURVE",
"398 205 QCURVE SMOOTH",
"398 233 OFFCURVE",
"359 273 OFFCURVE",
"330 273 QCURVE SMOOTH",
"314 273 LINE SMOOTH",
"263 273 OFFCURVE",
"234 252 QCURVE",
"227 256 LINE",
"227 410 LINE",
"332 410 LINE SMOOTH",
"360 410 OFFCURVE",
"399 450 OFFCURVE",
"399 478 QCURVE SMOOTH",
"399 546 LINE",
"186 546 LINE"
);
}
);
width = 565;
}
);
unicode = 1E9E;
},
{
glyphname = aeacute;
layers = (
{
layerId = "616D4D79-28E0-48D4-A99A-6A264E58F352";
paths = (
{
nodes = (
"178 91 LINE SMOOTH",
"178 26 OFFCURVE",
"201 8 QCURVE",
"209 0 OFFCURVE",
"198 0 QCURVE SMOOTH",
"22 0 LINE SMOOTH",
"18 0 OFFCURVE",
"16 5 OFFCURVE",
"19 8 QCURVE SMOOTH",
"42 26 OFFCURVE",
"42 91 QCURVE SMOOTH",
"42 308 LINE SMOOTH",
"42 351 OFFCURVE",
"53 437 OFFCURVE",
"97 492 QCURVE",
"196 591 LINE",
"231 646 OFFCURVE",
"217 675 QCURVE",
"214 678 OFFCURVE",
"216 683 OFFCURVE",
"220 683 QCURVE SMOOTH",
"771 683 LINE SMOOTH",
"776 683 OFFCURVE",
"777 677 OFFCURVE",
"774 675 QCURVE SMOOTH",
"752 656 OFFCURVE",
"752 592 QCURVE SMOOTH",
"752 526 LINE SMOOTH",
"752 522 OFFCURVE",
"746 520 OFFCURVE",
"744 524 QCURVE",
"725 546 OFFCURVE",
"661 546 QCURVE SMOOTH",
"487 546 LINE",
"487 410 LINE",
"570 410 LINE SMOOTH",
"634 410 OFFCURVE",
"653 432 QCURVE SMOOTH",
"655 435 OFFCURVE",
"661 433 OFFCURVE",
"661 429 QCURVE SMOOTH",
"661 253 LINE SMOOTH",
"661 249 OFFCURVE",
"655 247 OFFCURVE",
"653 250 QCURVE SMOOTH",
"633 273 OFFCURVE",
"570 273 QCURVE SMOOTH",
"487 273 LINE",
"487 136 LINE",
"661 136 LINE SMOOTH",
"724 136 OFFCURVE",
"744 159 QCURVE SMOOTH",
"746 162 OFFCURVE",
"752 160 OFFCURVE",
"752 156 QCURVE SMOOTH",
"752 91 LINE SMOOTH",
"752 26 OFFCURVE",
"774 7 QCURVE SMOOTH",
"777 5 OFFCURVE",
"776 0 OFFCURVE",
"771 0 QCURVE SMOOTH",
"331 0 LINE SMOOTH",
"326 0 OFFCURVE",
"325 5 OFFCURVE",
"328 7 QCURVE SMOOTH",
"350 26 OFFCURVE",
"350 91 QCURVE SMOOTH",
"350 179 LINE",
"178 179 LINE"
);
},
{
nodes = (
"179 306 LINE",
"350 306 LINE",
"350 567 LINE",
"201 402 LINE",
"181 383 OFFCURVE",
"180 351 QCURVE SMOOTH"
);
},
{
nodes = (
"322 729 LINE",
"386 852 LINE",
"522 852 LINE",
"455 729 LINE"
);
}
);
width = 809;
}
);
unicode = 01FD;
},
{
glyphname = dcroat.1;
layers = (
{
layerId = "616D4D79-28E0-48D4-A99A-6A264E58F352";
paths = (
{
nodes = (
"24 294 LINE",
"24 398 LINE",
"68 398 LINE",
"68 593 LINE SMOOTH",
"68 656 OFFCURVE",
"46 676 QCURVE",
"42 678 OFFCURVE",
"44 684 OFFCURVE",
"48 684 QCURVE SMOOTH",
"296 684 LINE SMOOTH",
"343 684 OFFCURVE",
"426 648 OFFCURVE",
"487 586 OFFCURVE",
"523 503 OFFCURVE",
"523 456 QCURVE SMOOTH",
"523 228 LINE SMOOTH",
"523 181 OFFCURVE",
"487 98 OFFCURVE",
"426 36 OFFCURVE",
"343 0 OFFCURVE",
"296 0 QCURVE SMOOTH",
"48 0 LINE SMOOTH",
"44 0 OFFCURVE",
"42 6 OFFCURVE",
"46 9 QCURVE SMOOTH",
"68 28 OFFCURVE",
"68 92 QCURVE SMOOTH",
"68 294 LINE"
);
},
{
nodes = (
"296 137 LINE SMOOTH",
"334 137 OFFCURVE",
"387 190 OFFCURVE",
"387 228 QCURVE SMOOTH",
"387 456 LINE SMOOTH",
"387 494 OFFCURVE",
"334 547 OFFCURVE",
"296 547 QCURVE SMOOTH",
"205 547 LINE",
"205 398 LINE",
"345 398 LINE",
"345 294 LINE",
"205 294 LINE",
"205 137 LINE"
);
}
);
width = 558;
}
);
},
{
glyphname = uni021A;
layers = (
{
layerId = "616D4D79-28E0-48D4-A99A-6A264E58F352";
paths = (
{
nodes = (
"512 683 LINE SMOOTH",
"516 683 OFFCURVE",
"518 678 OFFCURVE",
"514 675 QCURVE SMOOTH",
"509 670 OFFCURVE",
"501 654 OFFCURVE",
"495 625 OFFCURVE",
"492 580 OFFCURVE",
"492 547 QCURVE SMOOTH",
"492 527 LINE SMOOTH",
"492 523 OFFCURVE",
"486 521 OFFCURVE",
"484 524 QCURVE SMOOTH",
"464 547 OFFCURVE",
"401 547 QCURVE SMOOTH",
"332 547 LINE",
"332 91 LINE SMOOTH",
"332 27 OFFCURVE",
"354 8 QCURVE SMOOTH",
"357 6 OFFCURVE",
"356 0 OFFCURVE",
"351 0 QCURVE SMOOTH",
"175 0 LINE SMOOTH",
"171 0 OFFCURVE",
"169 6 OFFCURVE",
"173 8 QCURVE",
"195 28 OFFCURVE",
"195 91 QCURVE SMOOTH",
"195 547 LINE",
"126 547 LINE SMOOTH",
"61 547 OFFCURVE",
"43 524 QCURVE SMOOTH",
"40 521 OFFCURVE",
"35 523 OFFCURVE",
"35 527 QCURVE SMOOTH",
"35 592 LINE SMOOTH",
"35 655 OFFCURVE",
"12 675 QCURVE SMOOTH",
"9 678 OFFCURVE",
"11 683 OFFCURVE",
"15 683 QCURVE SMOOTH"
);
},
{
nodes = (
"277 -34 OFFCURVE",
"310 -44 OFFCURVE",
"334 -67 OFFCURVE",
"344 -100 OFFCURVE",
"340 -118 QCURVE",
"333 -164 OFFCURVE",
"296 -230 OFFCURVE",
"254 -253 QCURVE",
"240 -249 OFFCURVE",
"227 -239 QCURVE SMOOTH",
"223 -236 OFFCURVE",
"226 -233 QCURVE SMOOTH",
"239 -218 OFFCURVE",
"248 -180 OFFCURVE",
"226 -148 QCURVE",
"213 -134 OFFCURVE",
"207 -99 OFFCURVE",
"216 -68 OFFCURVE",
"241 -43 OFFCURVE",
"259 -38 QCURVE SMOOTH"
);
}
);
width = 530;
}
);
unicode = 021A;
},
{
glyphname = uni021B;
layers = (
{
layerId = "616D4D79-28E0-48D4-A99A-6A264E58F352";
paths = (
{
nodes = (
"512 683 LINE SMOOTH",
"516 683 OFFCURVE",
"518 678 OFFCURVE",
"514 675 QCURVE SMOOTH",
"509 670 OFFCURVE",
"501 654 OFFCURVE",
"495 625 OFFCURVE",
"492 580 OFFCURVE",
"492 547 QCURVE SMOOTH",
"492 527 LINE SMOOTH",
"492 523 OFFCURVE",
"486 521 OFFCURVE",
"484 524 QCURVE SMOOTH",
"464 547 OFFCURVE",
"401 547 QCURVE SMOOTH",
"332 547 LINE",
"332 91 LINE SMOOTH",
"332 27 OFFCURVE",
"354 8 QCURVE SMOOTH",
"357 6 OFFCURVE",
"356 0 OFFCURVE",
"351 0 QCURVE SMOOTH",
"175 0 LINE SMOOTH",
"171 0 OFFCURVE",
"169 6 OFFCURVE",
"173 8 QCURVE",
"195 28 OFFCURVE",
"195 91 QCURVE SMOOTH",
"195 547 LINE",
"126 547 LINE SMOOTH",
"61 547 OFFCURVE",
"43 524 QCURVE SMOOTH",
"40 521 OFFCURVE",
"35 523 OFFCURVE",
"35 527 QCURVE SMOOTH",
"35 592 LINE SMOOTH",
"35 655 OFFCURVE",
"12 675 QCURVE SMOOTH",
"9 678 OFFCURVE",
"11 683 OFFCURVE",
"15 683 QCURVE SMOOTH"
);
},
{
nodes = (
"277 -34 OFFCURVE",
"310 -44 OFFCURVE",
"334 -67 OFFCURVE",
"344 -100 OFFCURVE",
"340 -118 QCURVE",
"333 -164 OFFCURVE",
"296 -230 OFFCURVE",
"254 -253 QCURVE",
"240 -249 OFFCURVE",
"227 -239 QCURVE SMOOTH",
"223 -236 OFFCURVE",
"226 -233 QCURVE SMOOTH",
"239 -218 OFFCURVE",
"248 -180 OFFCURVE",
"226 -148 QCURVE",
"213 -134 OFFCURVE",
"207 -99 OFFCURVE",
"216 -68 OFFCURVE",
"241 -43 OFFCURVE",
"259 -38 QCURVE SMOOTH"
);
}
